<svg xmlns="http://www.w3.org/2000/svg" xmlns:xlink="http://www.w3.org/1999/xlink" width="400" zoomAndPan="magnify" viewBox="0 0 300 299.999988" height="400" preserveAspectRatio="xMidYMid meet" version="1.0"><path fill="#000000" d="M 275.65625 115.859375 C 275.484375 110.6875 283.375 102.003906 283.375 102.003906 C 287.121094 107.472656 287.128906 116.628906 288.882812 128.886719 C 293.097656 158.015625 298.707031 190.238281 295.851562 203.015625 C 295.027344 206.707031 287.464844 207.421875 287.464844 207.421875 L 286.527344 187.234375 C 286.527344 187.234375 276.1875 130.0625 275.65625 115.859375 Z M 275.65625 115.859375 " fill-opacity="1" fill-rule="evenodd"/><path fill="#000000" d="M 92.726562 109.574219 C 92.554688 104.402344 100.441406 95.71875 100.441406 95.71875 C 104.191406 101.1875 104.199219 110.34375 105.953125 122.601562 C 110.167969 151.730469 115.777344 183.953125 112.921875 196.730469 C 112.09375 200.421875 104.535156 201.136719 104.535156 201.136719 L 103.597656 180.949219 C 103.597656 180.949219 93.257812 123.777344 92.726562 109.574219 Z M 92.726562 109.574219 " fill-opacity="1" fill-rule="evenodd"/><path fill="#000000" d="M 258.539062 115.1875 C 259.167969 112.660156 263.613281 111.152344 263.691406 105.71875 C 263.761719 100.800781 255.261719 87.195312 250.382812 92.941406 C 245.582031 98.585938 248.023438 133.449219 247.476562 142.550781 C 247.460938 142.835938 247.441406 143.121094 247.425781 143.410156 C 247.117188 148.027344 246.523438 152.644531 246.414062 157.273438 C 246.410156 157.375 246.5 158.613281 246.394531 158.644531 C 245.242188 159.03125 239.363281 147.574219 238.160156 144.949219 C 232.429688 132.433594 222.433594 125.640625 213.316406 115.890625 C 208.382812 110.625 202.195312 102.878906 197.15625 113.226562 C 193.609375 120.519531 196.671875 129.714844 202.925781 134.445312 C 208.683594 138.804688 213.429688 135.644531 215.347656 136.578125 C 220.941406 139.296875 237.304688 160.882812 238.222656 167.867188 C 239.425781 176.992188 213.324219 182.597656 214.425781 196 C 215.15625 204.808594 247.421875 203.988281 251.476562 196.707031 C 257.699219 185.535156 249.507812 177.945312 250.175781 170.746094 C 250.667969 165.449219 256.03125 158.722656 257.027344 152.265625 C 258.96875 139.675781 256.695312 126.804688 258.613281 114.324219 Z M 243.550781 177.769531 C 243 177.601562 242.296875 178.765625 241.953125 179.222656 C 241.261719 180.140625 240.375 181.007812 239.410156 181.632812 C 238.078125 182.503906 233.429688 185.136719 233.507812 185.386719 C 233.636719 185.820312 243.96875 185.65625 243.949219 185.03125 C 243.878906 183.03125 243.640625 179.761719 243.550781 177.769531 Z M 243.550781 177.769531 " fill-opacity="1" fill-rule="evenodd"/><path fill="#000000" d="M 163.460938 191.632812 C 160.117188 193.964844 154.734375 197.738281 150.835938 199.3125 C 141.933594 202.90625 135.574219 196.320312 133.542969 187.925781 C 131.152344 178.019531 141.953125 162.878906 152.917969 164.710938 C 155.632812 165.167969 158.066406 166.210938 160.253906 167.898438 C 162.890625 169.9375 165.175781 172.574219 166.695312 175.554688 C 168.785156 179.644531 169.792969 184.554688 170.492188 189.0625 C 173.65625 209.445312 162.445312 237.402344 140.042969 241.933594 C 130.167969 243.933594 118.222656 240.8125 109.300781 236.492188 C 107.632812 235.679688 101.234375 233.1875 101.167969 230.8125 C 101.109375 228.9375 107.195312 228.925781 108.214844 228.820312 C 115.84375 228.03125 123.542969 227.890625 131.089844 226.398438 C 136.007812 225.425781 140.816406 224.023438 145.097656 221.351562 C 153.785156 215.933594 162.882812 202.066406 163.460938 191.632812 Z M 153.664062 183.425781 C 153.347656 183.308594 151.996094 184.636719 151.640625 184.800781 C 150.355469 185.386719 143.855469 187.195312 143.90625 184.089844 C 143.925781 183.019531 145.464844 181.984375 146.234375 181.484375 C 149.085938 179.636719 152.761719 179.472656 153.664062 183.425781 Z M 153.664062 183.425781 " fill-opacity="1" fill-rule="evenodd"/><path fill="#000000" d="M 70.652344 190.789062 C 69.78125 195.625 64.277344 199.792969 60.96875 201.742188 C 51.492188 207.339844 42.851562 210.777344 31.789062 209.171875 C 25.683594 208.28125 18.734375 205.753906 16.1875 199.621094 C 13.300781 192.671875 15.410156 183.710938 17.117188 176.691406 C 17.5 175.113281 19.773438 169.503906 16.492188 169.371094 C 9.582031 169.09375 5.425781 179.476562 4 184.632812 C 0.0117188 199.03125 3.308594 214.257812 17.382812 221.589844 C 32.0625 229.242188 49.191406 223.460938 62.9375 216.734375 C 70.132812 213.21875 77.070312 208.734375 79.671875 200.734375 C 81.410156 195.410156 81.152344 189.125 80.613281 183.699219 C 79.886719 176.375 71.710938 121.59375 69.84375 117.683594 C 69.808594 117.394531 72.25 115.5625 72.527344 115.1875 C 73.914062 113.292969 76.191406 110.398438 75.40625 107.828125 C 74.84375 105.976562 71.6875 104.597656 70.339844 103.339844 C 67.578125 100.757812 65.359375 92.132812 61.089844 97.832031 C 54.886719 106.121094 58.179688 115.128906 59.976562 124.179688 C 63.238281 140.566406 67.855469 156.488281 69.285156 173.246094 C 69.667969 177.714844 71.449219 186.363281 70.652344 190.789062 " fill-opacity="1" fill-rule="evenodd"/><path fill="#000000" d="M 136.535156 132.210938 C 135.242188 132.421875 134.347656 131.914062 132.96875 132.652344 C 126.472656 136.132812 124.980469 147.390625 131.710938 151.449219 C 137.585938 154.992188 140.9375 148.128906 145.242188 146.25 C 147.441406 145.296875 149.894531 148.25 152.328125 148.007812 C 158.824219 147.375 161.753906 137.917969 161.773438 132.808594 C 161.78125 130.855469 160.09375 124.816406 157.175781 128.292969 C 155.222656 130.621094 155.144531 133.769531 154.066406 136.449219 C 153.675781 137.425781 152.859375 138.773438 151.578125 138.722656 C 150.589844 138.683594 150.371094 137.527344 150.265625 136.796875 C 150.027344 135.167969 149.992188 128.109375 146.648438 129.523438 C 141.933594 131.507812 144.429688 141.304688 138.472656 141.914062 C 134.179688 142.355469 136.808594 136.429688 137.109375 134.210938 C 137.425781 131.847656 135.617188 131.59375 133.753906 132.519531 " fill-opacity="1" fill-rule="evenodd"/><path fill="#000000" d="M 170.707031 78.578125 C 170.367188 78.011719 171.511719 74.222656 171.710938 73.769531 C 173.148438 70.460938 174.101562 70.269531 176.691406 68.109375 C 182.863281 62.96875 192.136719 61.292969 199.457031 59.109375 C 201.746094 58.425781 207.316406 56.441406 207.945312 57.207031 C 208.515625 57.90625 207.035156 60.355469 206.460938 61.289062 C 204.097656 65.148438 201.710938 68.15625 197.675781 69.4375 C 194.132812 70.558594 190.570312 71.546875 187.058594 72.789062 C 181.714844 74.6875 175.84375 76.027344 170.707031 78.578125 Z M 170.707031 78.578125 " fill-opacity="1" fill-rule="evenodd"/><path fill="#000000" d="M 123.164062 129.65625 C 122.824219 129.089844 123.96875 125.300781 124.167969 124.847656 C 125.605469 121.539062 126.558594 121.347656 129.148438 119.1875 C 135.316406 114.042969 144.59375 112.371094 151.914062 110.1875 C 154.203125 109.503906 159.769531 107.519531 160.402344 108.285156 C 160.972656 108.984375 159.492188 111.433594 158.917969 112.367188 C 156.554688 116.226562 154.167969 119.234375 150.132812 120.515625 C 146.589844 121.636719 143.027344 122.625 139.515625 123.867188 C 134.171875 125.765625 128.300781 127.105469 123.164062 129.65625 Z M 123.164062 129.65625 " fill-opacity="1" fill-rule="evenodd"/><path fill="#000000" d="M 31.019531 85.96875 C 30.75 85.949219 28.5625 88.101562 28.34375 88.246094 C 27.324219 88.902344 26.238281 89.511719 25.222656 90.152344 C 21.273438 92.5625 17.050781 94.535156 13.308594 97.289062 C 10.828125 99.121094 9.910156 101.820312 13.640625 101.902344 C 19.515625 102.027344 26.535156 97.769531 31.359375 94.203125 C 32.847656 93.109375 34.324219 91.214844 35.917969 90.390625 C 36.734375 89.984375 37.945312 91.46875 38.652344 91.675781 C 40.765625 92.292969 42.820312 90.421875 44.035156 88.679688 C 45.042969 87.230469 45.941406 85.070312 45.179688 83.460938 C 44.8125 82.683594 43.480469 81.859375 43.574219 80.902344 C 43.683594 79.664062 44.316406 78.324219 44.582031 77.082031 C 45.253906 73.589844 45.304688 68.589844 42.382812 66.410156 C 39.769531 64.445312 36.039062 65.636719 33.25 67.242188 C 28.976562 69.710938 22.195312 76.953125 25.148438 82.191406 C 26.066406 83.804688 29.445312 85.183594 31.019531 85.96875 Z M 36.757812 79.519531 C 35.554688 78.847656 34.625 78.386719 33.769531 77.703125 C 33.226562 77.261719 32.417969 76.546875 32.535156 75.691406 C 32.738281 74.363281 34.886719 73.707031 35.738281 74.402344 C 36.355469 74.875 36.527344 75.84375 36.628906 76.59375 C 36.75 77.210938 36.914062 78.882812 36.757812 79.519531 Z M 36.757812 79.519531 " fill-opacity="1" fill-rule="evenodd"/><path fill="#000000" d="M 189.117188 84.121094 C 189.269531 83.890625 191.828125 85.035156 192.132812 85.085938 C 194.355469 85.449219 196.40625 85.339844 197.859375 83.371094 C 200.042969 80.398438 198.4375 74.605469 195.09375 73.136719 C 193.46875 72.425781 191.332031 72.875 189.683594 73.253906 C 183 74.785156 177.386719 81.519531 174.222656 87.261719 C 172.949219 89.566406 171.289062 93.542969 173.847656 95.601562 C 174.863281 96.417969 176.1875 97 177.410156 97.445312 C 177.675781 97.539062 178.578125 97.671875 178.542969 98.089844 C 178.363281 100.28125 171.359375 103.816406 175.011719 106.40625 C 177.640625 108.273438 182.394531 105.835938 184.808594 104.738281 C 186.820312 103.816406 188.773438 102.765625 190.714844 101.71875 C 192.09375 100.976562 193.449219 100.1875 194.816406 99.425781 C 199.546875 96.773438 207.625 93.082031 207.421875 86.476562 C 207.347656 83.992188 204.953125 83.75 203.035156 84.359375 C 198.582031 85.785156 194.808594 88.726562 189.949219 88.757812 C 188.273438 88.765625 184.910156 88.660156 184.257812 86.601562 C 183.570312 84.449219 188.152344 83.886719 189.117188 84.121094 Z M 189.117188 84.121094 " fill-opacity="1" fill-rule="evenodd"/></svg>