<svg xmlns="http://www.w3.org/2000/svg" xmlns:xlink="http://www.w3.org/1999/xlink" width="400" zoomAndPan="magnify" viewBox="0 0 300 299.999988" height="400" preserveAspectRatio="xMidYMid meet" version="1.0"><defs><clipPath id="aad00dd92f"><path d="M 0 115.875 L 300 115.875 L 300 184 L 0 184 Z M 0 115.875 " clip-rule="nonzero"/></clipPath></defs><g clip-path="url(#aad00dd92f)"><path fill="#d9d9d9" d="M 136.117188 141.128906 C 136.421875 140.726562 136.28125 140.648438 136.917969 140.519531 C 137.550781 140.386719 137.347656 139.648438 137.660156 139.214844 C 137.96875 138.777344 139.363281 138.5625 139.996094 138.394531 C 140.636719 138.230469 141.179688 138.269531 141.625 138.101562 C 142.074219 137.925781 142.121094 137.742188 142.164062 137.484375 C 142.210938 137.226562 142.433594 137.269531 142.515625 137.011719 C 142.59375 136.753906 142.066406 135.882812 142.03125 135.65625 C 142 135.433594 141.449219 135.269531 141.316406 134.902344 C 141.175781 134.519531 140.363281 134.347656 139.992188 134.339844 C 139.625 134.328125 137.429688 134.371094 137.246094 134.21875 C 137.070312 134.0625 136.433594 134.234375 136.101562 134.03125 C 135.777344 133.839844 134.527344 133.355469 134.382812 133.207031 C 134.238281 133.050781 133.164062 133.019531 132.566406 133.152344 C 131.964844 133.277344 131.707031 133.269531 131.066406 133.703125 C 130.421875 134.125 130.574219 135.28125 130.34375 135.496094 C 130.109375 135.714844 129.992188 136.082031 129.523438 136.695312 C 129.0625 137.320312 129.128906 137.777344 128.941406 138.03125 C 128.742188 138.285156 128.179688 139.882812 127.746094 140.5 C 127.3125 141.125 126.570312 142.167969 126.335938 142.421875 C 126.105469 142.679688 125.179688 143.085938 124.699219 143.066406 C 124.214844 143.058594 124.3125 143.023438 123.84375 143.046875 C 121.929688 143.152344 120.316406 141.773438 119.414062 140.96875 C 118.507812 140.15625 117.101562 138.808594 116.824219 138.09375 C 116.546875 137.378906 115.050781 136.589844 114.539062 136.207031 C 114.03125 135.820312 114.417969 134.746094 114.171875 134.140625 C 114.003906 133.726562 111.832031 133.472656 110.148438 133.289062 C 110.003906 132.535156 108.976562 130.894531 108.296875 130.425781 C 108.339844 130.351562 108.277344 130.25 108.363281 130.019531 C 108.503906 129.644531 107.882812 129.191406 107.683594 129.097656 C 107.484375 129.007812 107.238281 129.054688 107.027344 129.269531 C 106.816406 129.480469 106.753906 129.589844 106.410156 129.582031 C 106.0625 129.570312 104.894531 128.957031 104.355469 128.59375 C 103.820312 128.230469 103.511719 128.324219 103.359375 128.011719 C 103.210938 127.707031 102.578125 126.589844 102.53125 126.257812 C 102.480469 125.921875 102.0625 124.996094 102.121094 124.464844 C 102.179688 123.929688 101.261719 123.25 100.96875 122.835938 C 100.675781 122.425781 100.621094 122.363281 100.796875 122.28125 C 100.972656 122.203125 101.058594 122.304688 101.578125 122.304688 C 102.089844 122.304688 101.933594 122.027344 101.910156 121.894531 C 101.882812 121.765625 102.015625 121.652344 102.03125 121.554688 C 102.050781 121.453125 101.996094 121.363281 101.996094 121.363281 C 101.996094 121.363281 102.121094 121.382812 102.15625 121.28125 C 102.1875 121.179688 102.316406 120.851562 102.515625 120.859375 C 102.722656 120.867188 102.738281 120.777344 102.746094 120.546875 C 102.75 120.316406 102.730469 119.996094 102.777344 119.796875 C 102.832031 119.597656 102.871094 119.582031 103.035156 119.5 C 103.195312 119.417969 103.648438 118.925781 103.640625 118.535156 C 103.640625 118.140625 102.960938 118.035156 102.835938 117.871094 C 102.710938 117.710938 101.710938 116.816406 100.964844 116.722656 C 100.214844 116.621094 99.714844 117.316406 99.492188 117.617188 C 99.265625 117.914062 98.78125 118.097656 98.558594 118.28125 C 98.335938 118.46875 98.054688 118.628906 97.917969 119.363281 C 97.78125 120.09375 98.476562 119.597656 98.285156 120.175781 C 98.09375 120.742188 98.007812 120.710938 97.652344 121.078125 C 97.652344 121.078125 97.285156 121.195312 96.789062 121.324219 C 96.296875 121.453125 95.742188 122.480469 95.144531 123.15625 C 94.546875 123.835938 93.421875 125.679688 93.367188 126.429688 C 93.316406 127.179688 94.292969 127.5 94.117188 128.503906 C 93.976562 129.335938 94.292969 130.3125 94.363281 131.695312 C 94.25 131.691406 94.144531 131.671875 94.058594 131.625 C 93.761719 131.460938 92.640625 131.078125 92.507812 130.949219 C 92.375 130.820312 90.957031 130.734375 90.429688 130.871094 C 89.90625 131.003906 89.675781 131.003906 89.121094 131.40625 C 88.5625 131.808594 88.734375 132.824219 88.539062 133.019531 C 88.347656 133.222656 88.25 133.546875 87.863281 134.109375 C 87.472656 134.675781 87.847656 134.617188 87.683594 134.847656 C 87.523438 135.078125 86.960938 135.4375 86.929688 135.535156 C 86.894531 135.636719 86.890625 136.488281 86.890625 136.488281 C 86.796875 136.554688 86.894531 136.921875 86.535156 137.484375 C 86.167969 138.046875 86.117188 138.074219 86.214844 138.203125 C 86.316406 138.335938 86.023438 138.546875 85.929688 138.828125 C 85.515625 139.996094 83.742188 140.519531 83.316406 140.527344 C 82.910156 140.53125 82.226562 140.351562 81.882812 140.378906 C 81.144531 140.144531 80.515625 139.800781 80.097656 139.460938 C 79.269531 138.773438 78.046875 137.835938 77.773438 137.210938 C 77.507812 136.585938 76.152344 135.941406 75.691406 135.621094 C 75.226562 135.292969 75.375 134.378906 75.140625 133.851562 C 74.996094 133.523438 73.417969 133.375 72.015625 133.265625 C 71.984375 132.878906 71.867188 132.253906 71.75 131.808594 C 71.800781 131.8125 71.84375 131.816406 71.894531 131.816406 C 72.308594 131.832031 72.363281 131.542969 72.503906 131.3125 C 72.640625 131.078125 72.425781 130.722656 72.351562 130.585938 C 72.277344 130.445312 72.113281 130.257812 71.921875 130.265625 C 71.722656 130.273438 71.5625 130.601562 71.457031 130.59375 C 71.351562 130.578125 71.398438 130.226562 71.308594 130.050781 C 71.21875 129.875 70.878906 129.945312 70.648438 130.203125 C 70.484375 130.382812 70.320312 130.554688 70.152344 130.59375 C 70.140625 130.550781 70.125 130.507812 70.113281 130.464844 C 70.027344 130.121094 68.960938 130.371094 68.367188 130.082031 C 67.769531 129.789062 67.800781 130.140625 67.371094 129.523438 C 66.933594 128.910156 66.066406 128.328125 65.792969 127.550781 C 65.515625 126.777344 65.054688 125.894531 64.699219 125.441406 C 64.34375 124.988281 64.699219 125.28125 64.691406 124.640625 C 64.691406 124.414062 64.691406 124.167969 64.695312 123.949219 C 64.828125 123.867188 64.792969 123.625 64.804688 123.558594 C 64.816406 123.476562 64.855469 123.441406 64.972656 123.425781 C 65.082031 123.410156 65.015625 123.292969 64.976562 123.089844 C 64.957031 123.007812 64.964844 122.882812 64.984375 122.746094 C 65.144531 122.492188 65.328125 122.214844 65.398438 122.183594 C 65.53125 122.132812 65.71875 122.078125 65.632812 121.570312 C 65.550781 121.058594 64.945312 119.695312 64.164062 119.703125 C 63.894531 119.703125 62.878906 119.390625 62.6875 119.5 C 62.5 119.609375 61.886719 119.992188 61.699219 120.207031 C 61.515625 120.421875 61.175781 121.367188 61.234375 121.820312 C 61.292969 122.28125 61.09375 122.761719 61.238281 123.027344 C 61.378906 123.296875 60.613281 124.429688 60.402344 124.832031 C 60.191406 125.242188 60.191406 125.457031 59.496094 125.78125 C 58.800781 126.109375 57.910156 125.582031 58.242188 126.492188 C 58.574219 127.402344 59.03125 127.476562 59.164062 127.640625 C 59.300781 127.796875 59.277344 128.09375 59.199219 128.6875 C 59.128906 129.277344 59.214844 130.050781 59.21875 130.53125 C 59.21875 131.019531 59.230469 131.664062 59.121094 131.746094 C 59.015625 131.828125 58.347656 132.183594 58.4375 133.390625 C 58.460938 133.679688 58.496094 133.898438 58.546875 134.070312 C 58.386719 134.105469 58.25 134.144531 58.152344 134.175781 C 57.695312 134.300781 57.300781 134.636719 56.824219 135.164062 C 56.273438 136.183594 55.277344 138.179688 54.320312 138.800781 C 53.242188 139.5 53.148438 140.128906 51.875 141.253906 C 51.570312 141.527344 51.28125 141.910156 51.039062 142.371094 C 50.820312 142.609375 50.640625 142.902344 50.53125 143.265625 C 50.050781 144.222656 49.597656 145.164062 49.566406 145.628906 C 49.539062 146.144531 49.257812 146.710938 49.164062 146.878906 C 49.0625 147.039062 48.675781 147.507812 48.773438 147.703125 C 48.875 147.894531 49.003906 147.964844 49.007812 148.09375 C 49.007812 148.226562 49.113281 148.652344 48.769531 148.882812 C 48.425781 149.117188 47.996094 150.085938 47.324219 150.976562 C 46.894531 151.539062 46.222656 152.480469 46.554688 152.375 C 46.882812 152.277344 47.046875 152.574219 47.832031 152.070312 C 48.125 151.886719 48.414062 151.601562 48.6875 151.289062 C 48.21875 152.980469 47.832031 154.246094 47.730469 154.742188 C 47.503906 155.859375 46.714844 157.574219 46.128906 158.296875 C 45.660156 158.867188 45.191406 159.011719 45.140625 159.515625 L 45.128906 159.511719 C 45.128906 159.589844 45.105469 159.722656 45.128906 159.808594 C 45.332031 160.441406 45.308594 162.09375 45.664062 163.304688 C 46.023438 164.515625 45.59375 168.90625 45.675781 169.429688 C 45.753906 169.945312 45.460938 170.195312 45.578125 170.707031 C 45.691406 171.222656 45.761719 171.246094 46.449219 171.167969 C 47.136719 171.097656 48.328125 171.445312 48.988281 171.175781 C 49.644531 170.90625 48.210938 170.320312 47.878906 170.109375 C 47.542969 169.894531 47.335938 169.832031 47.265625 169.4375 C 47.195312 169.050781 47.210938 168.652344 47.039062 167.980469 C 46.867188 167.3125 46.988281 165.554688 46.960938 164.128906 C 46.941406 163.113281 47.355469 161.320312 47.632812 160.21875 L 47.628906 160.21875 C 47.664062 160.144531 47.695312 160.074219 47.710938 160.039062 C 47.871094 159.640625 48.824219 158.785156 49.3125 157.761719 C 49.804688 156.746094 50.078125 156.398438 50.757812 155.886719 C 52.488281 154.582031 53.179688 153.460938 53.5625 152.476562 C 53.710938 152.738281 53.847656 152.972656 53.953125 153.175781 C 54.585938 154.390625 54.894531 157.347656 55.003906 158.859375 C 55.113281 160.371094 54.460938 160.976562 54.417969 162.109375 C 54.414062 162.164062 54.417969 162.207031 54.421875 162.257812 L 54.417969 162.257812 C 54.417969 162.285156 54.421875 162.308594 54.421875 162.332031 C 54.429688 162.363281 54.429688 162.390625 54.433594 162.414062 C 54.445312 162.476562 54.453125 162.535156 54.46875 162.589844 C 54.472656 162.597656 54.46875 162.601562 54.46875 162.601562 L 54.472656 162.601562 C 54.632812 163.164062 55.121094 163.632812 55.453125 164.433594 C 55.941406 165.605469 56.816406 167.070312 57.039062 167.800781 C 57.257812 168.53125 57.71875 170.101562 57.9375 170.832031 C 58.160156 171.5625 58.03125 171.542969 59.101562 171.703125 C 60.171875 171.871094 61.234375 171.898438 61.488281 171.539062 C 61.742188 171.179688 60.152344 171.136719 60.183594 170.707031 C 60.21875 170.285156 59.382812 170.089844 58.945312 169.457031 C 58.511719 168.824219 57.335938 165.621094 57.21875 164.636719 C 57.152344 164.0625 57.222656 162.949219 57.308594 162.148438 L 57.300781 162.148438 C 57.292969 161.894531 57.171875 161.519531 57.25 160.941406 C 57.308594 160.472656 57.804688 157.277344 57.917969 156.667969 C 58.03125 156.050781 58.914062 155.230469 59.160156 154.375 C 59.40625 153.507812 59.355469 153.378906 58.867188 152.21875 C 58.730469 151.898438 58.617188 151.460938 58.519531 150.976562 C 59.402344 151 60.816406 151.359375 61.816406 151.617188 C 63.164062 151.96875 64.347656 152.023438 65.203125 152.179688 C 66.0625 152.335938 68.21875 152.515625 69.628906 152.175781 C 70.089844 152.066406 71.125 151.914062 72.355469 151.691406 C 72.4375 152.390625 72.453125 153.140625 72.5 153.644531 C 72.46875 154.152344 72.402344 154.71875 72.355469 155.046875 C 72.28125 155.585938 72.046875 158.917969 72.015625 159.546875 C 72.003906 159.882812 72.003906 160.523438 72.039062 161.171875 L 72.054688 161.175781 C 72.089844 161.703125 72.148438 162.390625 72.230469 162.699219 C 72.453125 163.5 72.457031 166.277344 72.355469 167.15625 C 72.25 168.019531 72.695312 169.0625 72.871094 169.441406 C 73.042969 169.816406 72.871094 169.441406 72.605469 170.328125 C 72.335938 171.21875 73.707031 171.035156 75.019531 170.953125 C 76.335938 170.863281 76.425781 170.476562 76.453125 170.171875 C 76.492188 169.871094 75.417969 169.753906 75.183594 169.71875 C 74.949219 169.675781 74.320312 169.082031 74.105469 168.644531 C 73.890625 168.207031 73.828125 166.128906 73.738281 165.277344 C 73.640625 164.425781 73.839844 162.292969 74.128906 161.929688 C 74.234375 161.800781 74.300781 161.613281 74.339844 161.402344 L 74.34375 161.402344 C 74.34375 161.398438 74.34375 161.390625 74.347656 161.386719 C 74.347656 161.371094 74.351562 161.351562 74.355469 161.335938 L 74.351562 161.335938 C 74.402344 160.976562 74.40625 160.503906 74.363281 160.148438 C 74.300781 159.527344 74.679688 156.082031 74.984375 155.191406 C 75.136719 154.71875 75.3125 154.070312 75.441406 153.550781 C 75.445312 153.539062 75.449219 153.523438 75.449219 153.511719 C 76.152344 154.3125 76.851562 155.957031 77.84375 157.574219 C 78.519531 158.679688 78.765625 159.464844 78.835938 160.085938 L 78.890625 160.066406 L 78.835938 160.089844 C 78.875 160.429688 78.859375 160.722656 78.832031 160.988281 C 78.757812 161.730469 78.78125 162.292969 78.636719 163.550781 C 78.496094 164.800781 77.765625 166.902344 77.726562 167.617188 C 77.683594 168.335938 77.433594 168.121094 77.066406 168.644531 C 76.703125 169.164062 78.808594 170.882812 79.507812 171.183594 C 80.207031 171.480469 80.160156 171.570312 80.238281 170.960938 C 80.328125 170.351562 79.339844 169.144531 79.441406 168.441406 C 79.542969 167.738281 79.34375 166.90625 79.449219 165.675781 C 79.46875 165.425781 79.546875 165.085938 79.660156 164.699219 C 79.738281 165.011719 79.832031 165.304688 79.945312 165.5625 C 80.515625 166.859375 80.660156 171.847656 80.824219 172.417969 C 80.992188 172.988281 80.5 173.203125 80.707031 173.765625 C 80.90625 174.324219 81.152344 174.269531 81.910156 174.085938 C 82.671875 173.90625 84.085938 174.28125 84.78125 173.886719 C 85.472656 173.488281 83.796875 173.054688 83.394531 172.867188 C 82.992188 172.675781 82.746094 172.628906 82.613281 172.203125 C 82.480469 171.777344 82.441406 171.328125 82.148438 170.597656 C 81.863281 169.871094 81.746094 167.894531 81.511719 166.300781 C 81.347656 165.175781 81.550781 163.132812 81.703125 161.859375 C 81.886719 161.472656 82.027344 161.179688 82.078125 161.066406 C 82.277344 160.628906 83.382812 159.695312 83.972656 158.558594 C 84.5625 157.425781 84.800781 156.914062 85.667969 156.492188 C 86.535156 156.074219 89.546875 153.5 89.574219 152.617188 C 89.695312 152.640625 89.8125 152.660156 89.933594 152.675781 C 89.945312 152.710938 89.953125 152.742188 89.964844 152.773438 C 90.398438 154.246094 90.195312 157.59375 90.042969 159.300781 C 89.890625 161.003906 89.214844 161.945312 88.96875 163.203125 C 88.929688 163.410156 88.925781 163.59375 88.941406 163.765625 L 88.976562 163.757812 C 89.148438 164.597656 89.917969 165.125 90.46875 166.105469 C 91.171875 167.351562 92.359375 168.875 92.703125 169.664062 C 93.050781 170.453125 93.78125 172.144531 94.128906 172.9375 C 94.476562 173.726562 94.328125 173.722656 95.554688 173.753906 C 96.777344 173.792969 97.96875 173.683594 98.203125 173.242188 C 98.4375 172.804688 96.652344 172.972656 96.628906 172.492188 C 96.609375 172.007812 95.644531 171.902344 95.066406 171.257812 C 94.496094 170.605469 92.738281 167.175781 92.476562 166.089844 C 92.320312 165.460938 91.917969 164.355469 91.902344 163.453125 C 91.898438 162.796875 91.921875 162.242188 91.96875 162.027344 C 92.085938 161.511719 93.175781 158.054688 93.398438 157.394531 C 93.625 156.730469 94.667969 155.980469 95.066406 155.066406 C 95.472656 154.152344 95.445312 154 95.144531 152.617188 C 95.089844 152.367188 95.054688 152.054688 95.03125 151.71875 C 95.65625 151.414062 96.792969 151.792969 98.234375 152.226562 C 99.742188 152.683594 101.074219 152.796875 102.03125 153.011719 C 102.992188 153.222656 104.714844 152.792969 106.320312 152.46875 C 106.769531 152.378906 107.761719 152.3125 108.988281 152.21875 C 109.007812 152.269531 109.042969 152.316406 109.101562 152.351562 C 109.6875 152.738281 110.230469 153.769531 110.667969 154.675781 C 110.585938 155.847656 110.316406 157.351562 110.207031 158.949219 C 110.105469 160.433594 109.953125 161.839844 110.035156 162.332031 C 110.121094 162.636719 110.171875 164.289062 110.226562 165.683594 C 109.847656 165.941406 109.515625 166.152344 109.292969 166.269531 C 108.421875 166.742188 107.75 167.832031 107.515625 168.238281 C 107.277344 168.644531 107.515625 168.238281 106.519531 168.570312 C 105.527344 168.90625 106.589844 170.046875 107.519531 171.199219 C 108.457031 172.355469 108.875 172.1875 109.175781 172.019531 C 109.472656 171.855469 108.882812 170.792969 108.765625 170.550781 C 108.652344 170.304688 108.789062 169.34375 109.054688 168.859375 C 109.183594 168.625 109.6875 168.175781 110.257812 167.703125 C 110.179688 169.113281 109.910156 170.851562 109.980469 171.507812 C 110.066406 172.332031 109.980469 173.25 109.664062 173.910156 C 109.34375 174.570312 112.800781 174.21875 113.648438 174.429688 C 114.496094 174.640625 114.457031 174.75 114.441406 174.050781 C 114.425781 173.339844 112.089844 172.945312 112.078125 172.125 C 112.066406 171.308594 111.683594 170.40625 111.578125 168.988281 C 111.53125 168.421875 111.679688 167.414062 111.871094 166.367188 C 111.886719 166.351562 111.90625 166.339844 111.917969 166.324219 C 112.640625 165.683594 114.816406 164.421875 115.339844 164.453125 C 115.496094 164.457031 115.808594 164.394531 115.972656 164.273438 C 116.160156 164.246094 116.242188 163.984375 116.324219 163.746094 C 116.457031 163.371094 115.988281 162.210938 115.785156 161.839844 C 115.449219 161.21875 114.5 157.363281 114.4375 156.304688 C 114.402344 155.742188 114.304688 154.980469 114.21875 154.394531 C 114.203125 154.25 114.175781 154.054688 114.148438 153.835938 C 114.421875 153.0625 114.386719 152.902344 115.410156 151.925781 C 115.757812 151.597656 116.117188 151.242188 116.414062 150.882812 C 117.097656 150.585938 117.625 150.21875 117.910156 149.769531 C 118.25 149.234375 118.144531 149.230469 118.589844 149.167969 C 119.039062 149.105469 120.914062 151.0625 124.953125 150.101562 C 127.152344 149.574219 130.285156 146.90625 131.085938 146.226562 C 131.886719 145.542969 132.484375 145.488281 132.671875 145.347656 C 132.863281 145.199219 133.050781 145.058594 133.472656 144.777344 C 133.894531 144.488281 133.417969 144.46875 133.949219 144.035156 C 134.480469 143.605469 134.800781 142.835938 134.980469 141.835938 C 135.15625 140.839844 135.804688 141.523438 136.117188 141.128906 Z M 71.023438 133.199219 C 70.730469 133.175781 70.472656 133.152344 70.269531 133.144531 C 69.652344 133.078125 68.078125 133.273438 66.5 133.453125 C 66.597656 133.027344 66.777344 133 66.289062 132.117188 C 65.746094 131.121094 65.203125 130.667969 65.304688 130.027344 C 65.410156 129.378906 65.824219 130.664062 66.441406 131.023438 C 67.0625 131.375 67.253906 131.566406 67.785156 131.613281 C 68.328125 131.660156 69.589844 131.675781 69.828125 131.726562 C 70.074219 131.78125 70.449219 131.964844 70.449219 131.589844 C 70.445312 131.496094 70.429688 131.410156 70.40625 131.320312 C 70.691406 131.359375 70.871094 131.289062 70.980469 131.285156 C 71.105469 131.285156 71.230469 131.285156 71.257812 131.519531 C 71.265625 131.585938 71.292969 131.632812 71.332031 131.675781 C 71.199219 132.121094 71.070312 132.828125 71.023438 133.199219 Z M 83.308594 145.382812 L 83.363281 145.566406 C 83.320312 145.621094 83.289062 145.671875 83.253906 145.722656 Z M 83.246094 149.429688 C 82.863281 149.679688 82.40625 150.0625 82.265625 150.328125 C 82.105469 150.621094 81.832031 151.09375 81.050781 151.257812 C 80.261719 151.417969 79.796875 152.113281 80.171875 152.011719 C 80.542969 151.910156 80.722656 152.25 81.628906 151.71875 C 82.535156 151.1875 82.355469 151.519531 82.8125 151.421875 C 82.839844 151.417969 82.867188 151.410156 82.890625 151.402344 C 82.597656 153.164062 82.398438 154.640625 82.292969 155.089844 C 82.070312 156.023438 81.492188 157.308594 80.929688 158.234375 C 80.824219 158.070312 80.699219 157.894531 80.550781 157.695312 C 79.851562 156.78125 79.121094 155.074219 78.585938 153.636719 L 78.566406 153.632812 C 78.445312 153.351562 78.316406 153.011719 78.15625 152.335938 C 77.902344 151.265625 77.71875 151.371094 77.984375 149.972656 L 77.988281 149.96875 C 78.476562 149.671875 78.863281 149.34375 79.082031 148.964844 C 79.359375 148.480469 79.789062 147.914062 80.183594 147.847656 C 80.5 147.789062 81.035156 147.882812 82.90625 147.824219 C 83.085938 147.816406 83.265625 147.796875 83.4375 147.777344 C 83.398438 147.875 83.378906 147.960938 83.410156 148.027344 C 83.4375 148.089844 83.46875 148.140625 83.5 148.183594 C 83.410156 148.59375 83.328125 149.015625 83.246094 149.429688 Z M 107.59375 133.101562 C 107.207031 133.117188 106.761719 133.144531 106.285156 133.175781 C 106.222656 132.59375 105.960938 132.070312 105.765625 131.6875 C 105.582031 131.304688 103.921875 131.546875 104.914062 131.328125 C 105.902344 131.109375 105.355469 131.039062 105.789062 131.109375 C 106.214844 131.179688 106.203125 131.210938 106.507812 131.128906 C 106.816406 131.054688 106.515625 130.859375 106.726562 130.695312 C 106.933594 130.519531 107.011719 130.714844 107.417969 130.707031 C 107.542969 130.707031 107.617188 130.707031 107.667969 130.699219 C 107.511719 131.289062 107.546875 132.394531 107.59375 133.101562 Z M 113.316406 163.257812 C 113.136719 163.480469 112.765625 163.804688 112.3125 164.164062 C 112.453125 163.488281 112.5625 162.941406 112.582031 162.707031 C 112.609375 162.320312 112.742188 161.992188 112.65625 161.5625 C 112.664062 161.351562 112.664062 161.128906 112.65625 160.867188 C 112.652344 160.65625 112.660156 160.417969 112.675781 160.171875 C 112.992188 161.015625 113.28125 161.777344 113.382812 162.054688 C 113.449219 162.25 113.570312 162.523438 113.710938 162.839844 C 113.558594 162.992188 113.421875 163.132812 113.316406 163.257812 Z M 194.210938 135.335938 C 194.503906 134.875 195.824219 134.976562 196.46875 134.78125 C 197.109375 134.59375 197.636719 134.320312 198.09375 134.128906 C 198.542969 133.929688 198.582031 133.738281 198.621094 133.476562 C 198.652344 133.210938 198.882812 133.246094 198.957031 132.980469 C 199.03125 132.714844 198.453125 131.847656 198.414062 131.621094 C 198.371094 131.394531 197.800781 131.246094 197.648438 130.867188 C 197.492188 130.488281 196.65625 130.347656 196.277344 130.347656 C 195.898438 130.351562 193.660156 130.488281 193.472656 130.335938 C 193.277344 130.1875 192.636719 130.382812 192.292969 130.195312 C 191.949219 130.007812 190.660156 129.5625 190.503906 129.414062 C 190.351562 129.265625 188.710938 129.164062 188.105469 129.324219 C 187.5 129.476562 187.234375 129.484375 186.59375 129.945312 C 185.953125 130.402344 186.148438 131.578125 185.925781 131.808594 C 185.703125 132.035156 185.589844 132.417969 185.144531 133.066406 C 184.691406 133.71875 185.125 133.644531 184.9375 133.914062 C 184.75 134.183594 184.105469 134.59375 184.0625 134.707031 C 184.027344 134.820312 184.019531 135.808594 184.019531 135.808594 C 183.910156 135.882812 184.023438 136.308594 183.609375 136.957031 C 183.191406 137.605469 183.128906 137.632812 183.242188 137.785156 C 183.359375 137.9375 183.023438 138.179688 182.910156 138.507812 C 182.433594 139.859375 180.386719 140.460938 179.894531 140.46875 C 179.429688 140.472656 178.640625 140.265625 178.242188 140.300781 C 177.390625 140.023438 176.664062 139.632812 176.183594 139.230469 C 175.226562 138.449219 173.816406 137.355469 173.503906 136.640625 C 173.191406 135.917969 171.632812 135.175781 171.101562 134.808594 C 170.566406 134.425781 170.738281 133.371094 170.464844 132.765625 C 170.300781 132.390625 168.480469 132.214844 166.859375 132.089844 C 166.828125 131.644531 166.691406 130.921875 166.554688 130.402344 C 166.609375 130.414062 166.660156 130.417969 166.722656 130.417969 C 167.199219 130.433594 167.261719 130.101562 167.421875 129.835938 C 167.585938 129.566406 167.332031 129.152344 167.25 128.996094 C 167.164062 128.832031 166.972656 128.617188 166.75 128.628906 C 166.523438 128.632812 166.339844 129.015625 166.214844 129.007812 C 166.09375 128.988281 166.152344 128.585938 166.046875 128.378906 C 165.941406 128.175781 165.550781 128.257812 165.285156 128.554688 C 165.09375 128.761719 164.902344 128.960938 164.710938 129.007812 C 164.699219 128.953125 164.679688 128.90625 164.667969 128.855469 C 164.566406 128.453125 163.332031 128.746094 162.652344 128.414062 C 161.964844 128.078125 162 128.484375 161.5 127.773438 C 160.996094 127.066406 160 126.390625 159.683594 125.492188 C 159.363281 124.601562 158.832031 123.578125 158.425781 123.0625 C 158.011719 122.535156 158.421875 122.875 158.414062 122.132812 C 158.414062 121.871094 158.414062 121.59375 158.414062 121.339844 C 158.570312 121.242188 158.53125 120.964844 158.542969 120.886719 C 158.558594 120.792969 158.601562 120.75 158.734375 120.730469 C 158.859375 120.71875 158.785156 120.582031 158.738281 120.347656 C 158.71875 120.253906 158.730469 120.113281 158.746094 119.949219 C 158.933594 119.65625 159.144531 119.34375 159.226562 119.300781 C 159.382812 119.242188 159.597656 119.175781 159.5 118.589844 C 159.402344 118.003906 158.703125 116.425781 157.804688 116.441406 C 157.492188 116.441406 156.320312 116.082031 156.101562 116.207031 C 155.886719 116.332031 155.179688 116.769531 154.964844 117.019531 C 154.75 117.269531 154.355469 118.355469 154.421875 118.878906 C 154.492188 119.410156 154.265625 119.96875 154.429688 120.273438 C 154.59375 120.585938 153.707031 121.890625 153.464844 122.359375 C 153.21875 122.828125 153.21875 123.074219 152.421875 123.453125 C 151.617188 123.832031 150.589844 123.222656 150.972656 124.273438 C 151.359375 125.324219 151.882812 125.410156 152.039062 125.59375 C 152.191406 125.777344 152.167969 126.121094 152.078125 126.804688 C 151.992188 127.484375 152.09375 128.382812 152.101562 128.9375 C 152.101562 129.5 152.113281 130.238281 151.988281 130.332031 C 151.863281 130.425781 151.097656 130.835938 151.199219 132.230469 C 151.226562 132.5625 151.265625 132.820312 151.324219 133.019531 C 151.140625 133.058594 150.980469 133.101562 150.871094 133.132812 C 150.34375 133.285156 149.886719 133.671875 149.339844 134.277344 C 148.703125 135.453125 147.554688 137.757812 146.449219 138.476562 C 145.207031 139.28125 145.097656 140.007812 143.632812 141.3125 C 143.273438 141.621094 142.941406 142.0625 142.664062 142.597656 C 142.410156 142.871094 142.203125 143.207031 142.078125 143.625 C 141.519531 144.730469 141 145.816406 140.96875 146.351562 C 140.933594 146.953125 140.609375 147.601562 140.5 147.796875 C 140.386719 147.984375 139.933594 148.519531 140.050781 148.75 C 140.167969 148.972656 140.320312 149.046875 140.324219 149.199219 C 140.324219 149.355469 140.441406 149.84375 140.042969 150.113281 C 139.648438 150.382812 139.152344 151.5 138.375 152.523438 C 137.882812 153.171875 137.109375 154.257812 137.488281 154.140625 C 137.867188 154.027344 138.0625 154.367188 138.964844 153.785156 C 139.300781 153.578125 139.636719 153.246094 139.949219 152.886719 C 139.40625 154.839844 138.960938 156.296875 138.847656 156.871094 C 138.585938 158.164062 137.679688 160.132812 137 160.976562 C 136.457031 161.632812 135.914062 161.796875 135.855469 162.375 L 135.84375 162.371094 C 135.84375 162.460938 135.816406 162.617188 135.847656 162.71875 C 136.078125 163.449219 136.050781 165.355469 136.464844 166.746094 C 136.878906 168.144531 136.378906 173.214844 136.472656 173.816406 C 136.570312 174.417969 136.230469 174.699219 136.363281 175.292969 C 136.496094 175.890625 136.574219 175.910156 137.371094 175.824219 C 138.164062 175.742188 139.539062 176.144531 140.296875 175.832031 C 141.054688 175.527344 139.402344 174.847656 139.019531 174.601562 C 138.632812 174.355469 138.390625 174.277344 138.308594 173.828125 C 138.230469 173.378906 138.25 172.914062 138.050781 172.144531 C 137.851562 171.371094 137.992188 169.347656 137.960938 167.703125 C 137.9375 166.53125 138.414062 164.460938 138.734375 163.195312 L 138.730469 163.191406 C 138.769531 163.101562 138.804688 163.023438 138.820312 162.980469 C 139.011719 162.527344 140.109375 161.53125 140.675781 160.359375 C 141.238281 159.183594 141.554688 158.785156 142.339844 158.191406 C 144.335938 156.6875 145.136719 155.394531 145.578125 154.257812 C 145.746094 154.554688 145.90625 154.832031 146.023438 155.0625 C 146.757812 156.464844 147.113281 159.875 147.238281 161.625 C 147.367188 163.371094 146.613281 164.0625 146.5625 165.375 C 146.558594 165.4375 146.5625 165.480469 146.570312 165.542969 L 146.5625 165.542969 C 146.5625 165.570312 146.566406 165.601562 146.570312 165.628906 C 146.574219 165.664062 146.578125 165.695312 146.582031 165.722656 C 146.59375 165.792969 146.605469 165.863281 146.621094 165.925781 C 146.625 165.933594 146.621094 165.9375 146.625 165.9375 L 146.628906 165.941406 C 146.816406 166.589844 147.375 167.128906 147.761719 168.054688 C 148.320312 169.40625 149.332031 171.09375 149.582031 171.941406 C 149.839844 172.78125 150.371094 174.589844 150.625 175.433594 C 150.878906 176.277344 150.730469 176.257812 151.964844 176.445312 C 153.203125 176.636719 154.425781 176.664062 154.71875 176.253906 C 155.011719 175.835938 153.179688 175.785156 153.214844 175.292969 C 153.253906 174.808594 152.289062 174.582031 151.785156 173.851562 C 151.285156 173.117188 149.929688 169.421875 149.792969 168.289062 C 149.714844 167.628906 149.796875 166.339844 149.898438 165.417969 L 149.890625 165.417969 C 149.878906 165.125 149.742188 164.6875 149.828125 164.019531 C 149.898438 163.484375 150.46875 159.796875 150.601562 159.09375 C 150.734375 158.382812 151.75 157.4375 152.03125 156.449219 C 152.316406 155.445312 152.257812 155.296875 151.695312 153.960938 C 151.535156 153.59375 151.402344 153.085938 151.292969 152.523438 C 152.316406 152.550781 153.941406 152.96875 155.09375 153.269531 C 156.648438 153.671875 158.015625 153.734375 159.003906 153.914062 C 159.992188 154.097656 162.480469 154.304688 164.105469 153.910156 C 164.636719 153.78125 165.832031 153.609375 167.253906 153.351562 C 167.347656 154.15625 167.367188 155.023438 167.417969 155.605469 C 167.378906 156.191406 167.304688 156.84375 167.253906 157.222656 C 167.164062 157.839844 166.898438 161.6875 166.863281 162.414062 C 166.84375 162.808594 166.84375 163.542969 166.886719 164.296875 L 166.902344 164.296875 C 166.941406 164.90625 167.011719 165.695312 167.109375 166.054688 C 167.363281 166.976562 167.371094 170.183594 167.253906 171.191406 C 167.128906 172.191406 167.644531 173.398438 167.84375 173.832031 C 168.046875 174.269531 167.84375 173.832031 167.539062 174.855469 C 167.230469 175.878906 168.808594 175.671875 170.324219 175.574219 C 171.839844 175.472656 171.941406 175.023438 171.976562 174.675781 C 172.019531 174.332031 170.78125 174.191406 170.511719 174.152344 C 170.242188 174.105469 169.515625 173.421875 169.269531 172.914062 C 169.023438 172.40625 168.953125 170.011719 168.847656 169.03125 C 168.738281 168.046875 168.964844 165.585938 169.300781 165.164062 C 169.417969 165.015625 169.496094 164.804688 169.542969 164.554688 C 169.546875 164.550781 169.546875 164.546875 169.546875 164.539062 C 169.550781 164.523438 169.554688 164.5 169.558594 164.480469 L 169.550781 164.480469 C 169.613281 164.0625 169.613281 163.515625 169.566406 163.109375 C 169.496094 162.390625 169.933594 158.417969 170.28125 157.386719 C 170.460938 156.84375 170.664062 156.09375 170.8125 155.496094 C 170.8125 155.484375 170.820312 155.464844 170.820312 155.453125 C 171.632812 156.375 172.4375 158.273438 173.578125 160.140625 C 174.359375 161.410156 174.644531 162.324219 174.726562 163.035156 L 174.789062 163.015625 L 174.726562 163.039062 C 174.773438 163.4375 174.753906 163.773438 174.722656 164.078125 C 174.632812 164.9375 174.660156 165.585938 174.496094 167.035156 C 174.335938 168.480469 173.492188 170.902344 173.445312 171.726562 C 173.398438 172.558594 173.105469 172.308594 172.6875 172.914062 C 172.265625 173.511719 174.695312 175.5 175.503906 175.84375 C 176.308594 176.1875 176.253906 176.292969 176.34375 175.589844 C 176.445312 174.882812 175.308594 173.492188 175.425781 172.675781 C 175.542969 171.871094 175.308594 170.914062 175.433594 169.492188 C 175.550781 168.074219 177.242188 164.183594 177.429688 163.425781 C 177.535156 162.984375 177.746094 162.566406 177.632812 161.984375 L 177.644531 161.980469 C 177.636719 161.960938 177.632812 161.933594 177.621094 161.90625 C 177.621094 161.902344 177.621094 161.898438 177.621094 161.894531 L 177.621094 161.898438 C 177.503906 161.503906 177.246094 161 176.699219 160.28125 C 175.898438 159.222656 175.054688 157.253906 174.4375 155.597656 L 174.410156 155.59375 C 174.277344 155.269531 174.128906 154.878906 173.941406 154.097656 C 173.644531 152.863281 173.433594 152.976562 173.746094 151.367188 C 173.746094 151.363281 173.746094 151.363281 173.746094 151.363281 C 174.3125 151.023438 174.757812 150.640625 175.007812 150.210938 C 175.332031 149.652344 175.828125 148.996094 176.28125 148.917969 C 176.648438 148.855469 177.261719 148.957031 179.417969 148.890625 C 184.742188 148.605469 186.386719 144.511719 187.175781 143.785156 C 187.96875 143.054688 188.742188 142.742188 188.929688 142.59375 C 189.117188 142.4375 189.304688 142.289062 189.722656 141.976562 C 190.144531 141.667969 190.25 141.9375 190.773438 141.476562 C 191.304688 141.015625 191.371094 140.367188 191.515625 139.34375 C 191.65625 138.3125 192.136719 138.402344 192.4375 137.980469 C 192.734375 137.5625 192.84375 137.40625 193.492188 137.25 C 194.136719 137.089844 193.910156 135.792969 194.210938 135.335938 Z M 165.710938 132.011719 C 165.378906 131.988281 165.082031 131.964844 164.847656 131.949219 C 164.132812 131.875 162.316406 132.09375 160.5 132.308594 C 160.613281 131.8125 160.816406 131.78125 160.257812 130.765625 C 159.628906 129.613281 159.003906 129.09375 159.121094 128.351562 C 159.238281 127.605469 159.714844 129.089844 160.433594 129.5 C 161.148438 129.914062 161.367188 130.128906 161.984375 130.183594 C 162.605469 130.238281 164.058594 130.257812 164.339844 130.316406 C 164.621094 130.375 165.054688 130.589844 165.054688 130.152344 C 165.046875 130.050781 165.03125 129.949219 165.003906 129.84375 C 165.335938 129.890625 165.542969 129.808594 165.667969 129.808594 C 165.8125 129.808594 165.953125 129.808594 165.984375 130.074219 C 165.992188 130.152344 166.027344 130.210938 166.070312 130.253906 C 165.917969 130.769531 165.769531 131.585938 165.710938 132.011719 Z M 179.824219 146.464844 L 179.886719 146.070312 L 179.949219 146.285156 C 179.902344 146.347656 179.863281 146.40625 179.824219 146.464844 Z M 46.351562 143.226562 C 46.507812 142.417969 47.03125 142.984375 47.289062 142.664062 C 47.542969 142.339844 47.605469 141.5 48.121094 141.402344 C 48.640625 141.308594 48.535156 140.308594 48.792969 139.960938 C 49.046875 139.609375 49.414062 139.652344 49.9375 139.527344 C 50.457031 139.398438 51.125 139.222656 51.496094 139.089844 C 51.714844 139.007812 51.832031 138.753906 51.722656 138.671875 C 51.644531 138.617188 51.101562 138.722656 51.121094 138.628906 C 51.160156 138.417969 51.925781 138.398438 51.996094 138.191406 C 52.066406 137.984375 51.640625 137.265625 51.617188 137.082031 C 51.597656 136.90625 51.148438 136.761719 51.039062 136.453125 C 50.933594 136.148438 50.277344 135.992188 49.972656 135.980469 C 49.667969 135.96875 47.878906 135.980469 47.734375 135.851562 C 47.585938 135.722656 47.066406 135.851562 46.800781 135.6875 C 46.535156 135.523438 45.523438 135.117188 45.40625 134.992188 C 45.289062 134.863281 44.414062 134.824219 43.925781 134.925781 C 43.433594 135.023438 43.222656 135.019531 42.691406 135.355469 C 42.160156 135.691406 42.273438 136.636719 42.082031 136.8125 C 42.046875 136.847656 42.011719 136.894531 41.976562 136.9375 C 40.144531 136.824219 37.847656 136.59375 35.886719 136.089844 C 32.394531 135.195312 29.660156 133.429688 28.34375 132.582031 C 28.273438 132.535156 28.210938 132.492188 28.148438 132.449219 C 28.058594 132.207031 27.851562 131.9375 27.785156 131.785156 C 27.664062 131.523438 27.4375 131.527344 27.234375 131.714844 C 27.027344 131.898438 26.800781 131.972656 26.652344 131.558594 C 26.507812 131.144531 26.238281 131.3125 25.765625 130.902344 C 25.296875 130.488281 24.734375 129.90625 24.628906 129.757812 C 24.519531 129.601562 24.660156 129.394531 24.367188 129.027344 C 24.070312 128.652344 24.035156 128.0625 24.035156 127.722656 C 24.03125 127.375 23.546875 126.179688 23.351562 125.777344 C 23.15625 125.378906 22.757812 124.773438 22.609375 124.425781 C 22.464844 124.074219 22.585938 123.867188 22.539062 123.492188 C 22.488281 123.117188 22.921875 123.28125 23.203125 123.195312 C 23.484375 123.109375 23.242188 122.640625 23.371094 122.355469 C 23.496094 122.066406 23.558594 121.757812 23.539062 121.53125 C 23.515625 121.300781 23.609375 120.996094 23.652344 120.878906 C 23.691406 120.765625 23.574219 120.339844 23.578125 120.273438 C 23.582031 120.210938 23.671875 119.984375 23.695312 119.855469 C 23.714844 119.722656 23.566406 119.390625 23.4375 119.027344 C 23.308594 118.664062 22.867188 118.980469 22.6875 119.058594 C 22.5 119.128906 22.023438 118.847656 21.070312 118.988281 C 20.117188 119.125 19.90625 119.835938 19.714844 120.132812 C 19.519531 120.441406 19.152344 120.304688 18.984375 120.722656 C 18.820312 121.140625 19.332031 121.066406 19.324219 121.585938 C 19.316406 122.109375 19.898438 122.199219 19.691406 122.5 C 19.480469 122.800781 19.238281 122.777344 18.953125 123.269531 C 18.671875 123.765625 18.34375 124.546875 17.894531 125.113281 C 17.445312 125.683594 17.246094 127.207031 17.296875 128.207031 C 17.355469 129.207031 17.183594 129.347656 17.054688 130.351562 C 16.929688 131.355469 17.066406 132.050781 16.953125 132.757812 C 16.839844 133.464844 16 132.835938 15.761719 132.742188 C 15.519531 132.648438 15.0625 132.679688 14.515625 132.867188 C 13.96875 133.050781 14.253906 133.296875 13.871094 133.410156 C 13.492188 133.523438 13.125 133.3125 12.054688 133.503906 C 10.984375 133.707031 11.824219 134.304688 11.742188 134.980469 C 11.683594 135.511719 11.542969 136.417969 11.359375 137.441406 C 11.214844 137.484375 11.097656 137.515625 11.023438 137.535156 C 10.605469 137.628906 10.222656 137.925781 9.757812 138.386719 C 9.203125 139.292969 8.394531 139.785156 7.484375 140.308594 C 7.066406 140.550781 6.972656 140.835938 6.921875 141.152344 C 5.980469 141.652344 3.640625 143.355469 2.917969 145.574219 C 2.683594 146.296875 2.84375 147.792969 2.425781 148.375 C 2.007812 148.949219 2.546875 149.402344 2.226562 149.882812 C 1.90625 150.367188 1.828125 151.027344 1.855469 151.410156 C 1.882812 151.792969 2.078125 151.652344 1.867188 152.480469 C 1.652344 153.3125 1.285156 153.363281 1.292969 153.679688 C 1.296875 153.992188 2.429688 153.414062 2.378906 152.761719 C 2.332031 152.113281 2.640625 151.78125 2.835938 151.597656 C 2.898438 151.542969 2.957031 151.449219 3.019531 151.34375 C 2.960938 152.863281 2.96875 154.214844 2.890625 154.640625 C 2.707031 155.699219 2.023438 157.328125 1.5 158.019531 C 1.101562 158.539062 0.675781 158.871094 0.53125 159.265625 C 0.53125 159.339844 0.390625 159.480469 0.457031 159.710938 C 0.644531 160.371094 0.609375 161.777344 0.945312 162.917969 C 1.28125 164.050781 0.902344 168.179688 0.984375 168.667969 C 1.0625 169.160156 0.789062 169.386719 0.902344 169.875 C 1.011719 170.355469 1.074219 170.378906 1.707031 170.308594 C 2.339844 170.234375 3.539062 170.71875 4.144531 170.464844 C 4.746094 170.210938 3.324219 169.511719 3.015625 169.3125 C 2.707031 169.109375 2.515625 169.050781 2.449219 168.683594 C 2.382812 168.316406 2.398438 167.945312 2.234375 167.308594 C 2.074219 166.679688 2.175781 165.027344 2.144531 163.6875 C 2.121094 162.734375 2.515625 161.246094 2.765625 160.214844 C 2.878906 159.921875 2.964844 159.703125 3 159.621094 C 3.140625 159.246094 3.996094 158.414062 4.421875 157.445312 C 4.851562 156.472656 5.023438 156.035156 5.710938 155.648438 C 6.007812 155.476562 6.398438 155.222656 6.839844 154.910156 C 7.074219 156.078125 7.21875 157.421875 7.253906 158.289062 C 7.3125 159.683594 7.074219 160.5 7.003906 161.539062 C 6.992188 161.6875 7.007812 161.816406 7.027344 161.933594 C 7.027344 161.9375 7.027344 161.945312 7.035156 161.949219 C 7.035156 161.964844 7.035156 161.980469 7.039062 161.996094 L 7.046875 161.996094 C 7.246094 162.613281 7.984375 162.984375 8.53125 163.738281 C 9.214844 164.6875 10.304688 165.8125 10.65625 166.421875 C 11.011719 167.03125 11.753906 168.335938 12.105469 168.945312 C 12.457031 169.558594 12.074219 169.664062 13.070312 169.585938 C 14.070312 169.503906 15.292969 169.910156 15.445312 169.527344 C 15.597656 169.160156 13.824219 168.730469 13.761719 168.335938 C 13.699219 167.945312 13.242188 167.980469 12.71875 167.503906 C 12.195312 167.03125 10.464844 164.402344 10.152344 163.542969 C 9.976562 163.0625 9.703125 162.039062 9.601562 161.304688 C 9.53125 160.820312 9.496094 160.410156 9.515625 160.238281 C 9.558594 159.804688 9.59375 156.710938 9.714844 156.152344 C 9.839844 155.589844 10.535156 154.625 10.78125 153.835938 C 11.027344 153.085938 10.992188 152.9375 10.628906 151.988281 C 10.6875 151.980469 10.726562 151.972656 10.746094 151.964844 C 11.023438 151.855469 11.523438 151.515625 12.023438 151.203125 C 12.519531 150.894531 13.472656 151.234375 14.699219 151.628906 C 15.925781 152.011719 17.011719 152.117188 17.792969 152.304688 C 18.574219 152.492188 20.011719 152.683594 21.320312 152.4375 C 21.925781 152.324219 23.71875 152.878906 25.597656 153.320312 C 25.632812 153.363281 25.675781 153.40625 25.726562 153.453125 C 26.066406 153.765625 26.582031 154.074219 26.992188 154.320312 C 26.84375 154.714844 26.675781 155.121094 26.566406 155.363281 C 26.367188 155.820312 25.3125 158.710938 25.125 159.261719 C 25.03125 159.53125 24.890625 160.039062 24.761719 160.570312 C 24.761719 160.570312 24.757812 160.574219 24.757812 160.582031 C 24.75 160.625 24.738281 160.664062 24.726562 160.707031 L 24.730469 160.710938 C 24.628906 161.183594 24.515625 161.800781 24.511719 162.109375 C 24.492188 163.007812 23.054688 168.304688 23.113281 168.683594 C 23.175781 169.058594 23.296875 168.601562 22.835938 169.320312 C 22.371094 170.039062 23.628906 170.226562 24.816406 170.488281 C 26 170.746094 26.152344 170.601562 26.257812 170.339844 C 26.363281 170.085938 25.511719 169.703125 25.3125 169.605469 C 25.117188 169.507812 24.449219 168.746094 24.371094 168.304688 C 24.296875 167.859375 24.851562 165.683594 24.984375 164.910156 C 25.117188 164.128906 26.039062 162.15625 26.386719 161.910156 C 26.523438 161.816406 26.644531 161.625 26.742188 161.433594 C 26.746094 161.425781 26.746094 161.421875 26.75 161.414062 C 26.753906 161.410156 26.757812 161.402344 26.757812 161.398438 L 26.753906 161.398438 C 26.894531 161.097656 26.992188 160.730469 27.050781 160.394531 C 27.148438 159.832031 28.335938 156.941406 28.839844 156.1875 C 29.289062 156.789062 29.78125 157.472656 30.339844 158.144531 C 30.824219 158.726562 31.226562 159.121094 31.5 159.480469 C 31.394531 159.644531 31.28125 159.800781 31.203125 159.917969 C 30.820312 160.503906 30.535156 160.816406 29.878906 161.804688 C 29.222656 162.792969 27.71875 164.222656 27.375 164.804688 C 27.035156 165.386719 26.914062 165.097656 26.386719 165.375 C 25.863281 165.652344 26.878906 167.996094 27.335938 168.542969 C 27.792969 169.09375 27.710938 169.144531 28.039062 168.675781 C 28.371094 168.199219 28.070312 166.773438 28.457031 166.226562 C 28.84375 165.683594 29.027344 164.90625 29.644531 163.925781 C 30.257812 162.941406 32.925781 160.761719 33.339844 160.285156 C 33.585938 159.996094 33.949219 159.695312 33.816406 159.148438 L 33.824219 159.144531 C 33.820312 159.128906 33.8125 159.117188 33.808594 159.105469 C 33.808594 159.105469 33.808594 159.105469 33.804688 159.101562 C 33.671875 158.796875 33.398438 158.414062 32.867188 157.890625 C 32.09375 157.136719 31.183594 155.652344 30.496094 154.394531 L 30.476562 154.394531 C 30.398438 154.265625 30.3125 154.121094 30.222656 153.925781 C 30.3125 153.769531 30.414062 153.601562 30.515625 153.4375 C 30.625 153.351562 30.71875 153.261719 30.792969 153.148438 C 31.074219 152.714844 32.160156 151.335938 32.410156 151.070312 C 33.019531 150.410156 34.230469 151.109375 36.0625 150.859375 C 36.207031 150.839844 36.667969 150.933594 36.8125 150.894531 C 40.257812 151.046875 42.433594 147.574219 43.023438 147.085938 C 43.683594 146.539062 43.597656 147.089844 43.753906 146.976562 C 43.910156 146.863281 44.066406 146.753906 44.410156 146.523438 C 44.757812 146.296875 44.835938 146.511719 45.277344 146.167969 C 45.714844 145.824219 46.191406 144.035156 46.351562 143.226562 Z M 40.46875 139.164062 C 40.433594 139.253906 40.0625 140.019531 40.0625 140.019531 C 40.011719 140.046875 40.285156 140.375 40.101562 140.8125 C 39.976562 141.128906 39.40625 141.546875 39.253906 141.753906 C 38.890625 142.253906 39.113281 142.328125 39.199219 142.449219 C 39.285156 142.578125 38.734375 142.824219 38.546875 143.027344 C 38.480469 143.097656 37.808594 143.714844 37.660156 143.761719 L 37.65625 143.765625 C 37.355469 143.804688 36.847656 143.808594 36.65625 143.804688 C 36.265625 143.785156 36.34375 143.757812 35.964844 143.773438 C 34.398438 143.835938 33.378906 142.390625 32.652344 141.722656 C 31.921875 141.050781 31.265625 140.128906 31.046875 139.542969 C 30.832031 138.953125 30.3125 137.835938 29.902344 137.515625 C 29.488281 137.191406 28.546875 135.199219 28.359375 134.703125 C 28.328125 134.625 28.191406 134.625 27.984375 134.675781 C 27.988281 134.660156 27.988281 134.644531 27.988281 134.628906 C 27.917969 133.945312 27.613281 134.214844 27.199219 133.949219 C 26.785156 133.6875 27.015625 133.351562 27.027344 133.09375 C 27.039062 132.835938 27.175781 133.085938 27.234375 133.167969 C 27.277344 133.226562 27.375 133.175781 27.605469 133.074219 C 28.554688 134.0625 31.289062 136.65625 35.082031 137.871094 C 36.957031 138.472656 38.835938 138.828125 40.488281 139.035156 C 40.484375 139.09375 40.480469 139.140625 40.46875 139.164062 Z M 41.402344 137.785156 C 41.019531 138.28125 40.796875 138.273438 40.632812 138.476562 C 40.570312 138.5625 40.539062 138.660156 40.519531 138.769531 C 38.882812 138.5625 37.023438 138.203125 35.167969 137.609375 C 31.523438 136.4375 28.867188 133.984375 27.875 132.964844 C 27.910156 132.949219 27.945312 132.9375 27.980469 132.921875 C 28.070312 132.890625 28.125 132.84375 28.15625 132.78125 C 28.167969 132.792969 28.179688 132.804688 28.199219 132.8125 C 29.523438 133.667969 32.285156 135.449219 35.820312 136.355469 C 37.742188 136.847656 39.984375 137.085938 41.800781 137.199219 C 41.707031 137.359375 41.585938 137.546875 41.402344 137.785156 Z M 299.511719 182.480469 C 299.402344 182.210938 297.980469 182.109375 297.707031 181.894531 C 297.4375 181.683594 296.472656 181.710938 296.308594 181.605469 C 296.152344 181.503906 296.015625 181.367188 296.039062 181.121094 C 296.066406 180.878906 295.925781 179.804688 296.4375 179.722656 C 296.945312 179.640625 297.863281 179.527344 297.507812 179.179688 C 297.160156 178.832031 297.09375 176.226562 297.144531 175.207031 C 297.195312 174.1875 297.246094 173.242188 296.625 171.953125 C 295.996094 170.664062 295.433594 169.78125 294.878906 168.976562 C 294.582031 168.539062 294.765625 167.753906 294.960938 166.941406 C 294.972656 166.972656 294.984375 167 294.996094 167.03125 C 295.121094 167.363281 295.425781 167.742188 295.5625 167.742188 C 296.191406 167.738281 296.175781 167.050781 296.347656 166.722656 C 296.53125 166.402344 296.230469 165.757812 296.238281 165.628906 C 296.246094 165.5 295.613281 164.984375 295.613281 164.984375 C 295.613281 164.984375 295.3125 163.914062 295.21875 162.972656 C 295.285156 162.582031 295.371094 162.222656 295.453125 161.902344 C 295.664062 161.070312 295.257812 156.6875 295.148438 156.230469 C 295.039062 155.78125 295.101562 155.222656 294.902344 154.90625 C 294.695312 154.582031 294.941406 154.1875 295.046875 154.082031 C 295.152344 153.976562 295.273438 154.03125 295.71875 154.125 C 296.164062 154.214844 296.320312 153.898438 296.320312 153.785156 C 296.320312 153.660156 296.496094 153.457031 296.507812 153.375 C 296.519531 153.300781 296.683594 153.300781 296.757812 153.292969 C 296.839844 153.292969 296.789062 152.972656 296.761719 152.789062 C 296.734375 152.597656 296.863281 152.324219 296.972656 152.246094 C 297.085938 152.167969 297.375 151.789062 297.402344 151.550781 C 297.402344 151.550781 297.484375 151.574219 298.207031 150.988281 C 298.929688 150.398438 297.996094 150.054688 297.859375 149.628906 C 297.726562 149.199219 296.75 147.832031 295.410156 148.128906 C 294.066406 148.433594 294.359375 148.914062 293.339844 149.292969 C 292.324219 149.675781 293.898438 149.300781 292.933594 150.382812 C 291.972656 151.460938 291.453125 150.523438 291.109375 151.835938 C 290.773438 153.144531 292.351562 152.695312 291.519531 153.050781 C 290.691406 153.40625 290.101562 154.855469 289.65625 155.878906 C 289.210938 156.902344 287.863281 157.542969 287.460938 158.539062 C 287.0625 159.535156 288.109375 161.210938 288.085938 161.902344 C 288.074219 162.242188 288.007812 162.851562 287.851562 163.78125 C 278.082031 162.605469 271.5625 149.871094 269.402344 144.992188 C 269.765625 144.617188 270.003906 144.035156 270.277344 143.699219 C 270.6875 143.203125 271.542969 143.601562 272.316406 143.449219 C 273.09375 143.304688 273.742188 143.054688 274.296875 142.890625 C 274.851562 142.722656 274.914062 142.496094 274.992188 142.195312 C 275.066406 141.890625 275.328125 141.960938 275.445312 141.660156 C 275.566406 141.355469 275 140.273438 274.984375 140.003906 C 274.964844 139.730469 274.320312 139.488281 274.183594 139.027344 C 274.050781 138.566406 273.09375 138.292969 272.652344 138.25 C 272.210938 138.203125 269.578125 138.078125 269.375 137.886719 C 269.167969 137.679688 268.394531 137.832031 268.019531 137.570312 C 267.636719 137.308594 266.1875 136.628906 266.019531 136.433594 C 265.867188 136.238281 264.578125 136.113281 263.855469 136.222656 C 263.125 136.328125 262.816406 136.300781 262.007812 136.753906 C 261.207031 137.214844 261.289062 138.609375 261 138.851562 C 260.707031 139.089844 260.527344 139.523438 259.921875 140.222656 C 259.320312 140.921875 259.128906 141.035156 258.875 141.328125 C 258.621094 141.613281 257.894531 141.679688 257.839844 141.808594 C 257.789062 141.9375 256.894531 142.789062 256.894531 142.789062 C 256.75 142.863281 256.445312 143.277344 255.875 143.984375 C 255.304688 144.6875 255.625 144.808594 255.738281 145 C 255.855469 145.191406 255.554688 145.523438 255.257812 145.804688 C 254.960938 146.089844 253.972656 146.171875 253.390625 146.113281 C 252.816406 146.058594 252.933594 146.019531 252.367188 146.011719 C 250.070312 145.980469 247.96875 144.816406 246.957031 143.777344 C 245.929688 142.738281 244.417969 141.292969 244.152344 140.414062 C 243.875 139.539062 242.144531 138.472656 241.570312 137.964844 C 240.996094 137.460938 240.632812 137.515625 240.390625 136.777344 C 240.152344 136.039062 239.550781 135.261719 239.492188 134.542969 C 239.425781 133.820312 238.902344 133.679688 238.238281 133.164062 C 237.574219 132.652344 236.488281 131.828125 236.207031 131.085938 C 235.984375 130.507812 235.761719 129.902344 235.316406 129.460938 C 235.589844 129.148438 235.347656 128.304688 235.265625 127.859375 C 235.1875 127.363281 234.304688 127.675781 233.328125 127.582031 C 232.355469 127.484375 230.660156 126.960938 229.886719 126.664062 C 229.105469 126.359375 227.941406 126.425781 227.226562 125.949219 C 226.507812 125.476562 225.460938 122.914062 225.445312 122.6875 C 225.417969 122.460938 225.289062 121.996094 225.636719 122.03125 C 225.996094 122.066406 225.988281 121.667969 226.105469 121.40625 C 226.21875 121.152344 226.371094 120.945312 226.546875 121.003906 C 226.722656 121.0625 226.78125 120.847656 226.824219 120.453125 C 226.863281 120.050781 227.226562 120.039062 227.253906 119.734375 C 227.289062 119.421875 227.5 118.589844 227.914062 118.007812 C 228.332031 117.421875 227.84375 117.371094 227.378906 117.101562 C 226.910156 116.832031 226.691406 116.808594 226.367188 116.464844 C 226.042969 116.121094 225.441406 115.882812 224.175781 115.984375 C 222.910156 116.078125 222.753906 117.230469 222.234375 117.539062 C 221.710938 117.839844 221.992188 118.183594 222.316406 118.976562 C 222.640625 119.769531 222.28125 119.332031 222.148438 119.765625 C 222.015625 120.203125 222.117188 120.523438 221.757812 120.535156 C 221.398438 120.542969 220.875 122.238281 219.828125 123.746094 C 218.789062 125.257812 218.851562 129.15625 218.484375 130.640625 C 218.113281 132.125 218.003906 131.847656 217.363281 132.011719 C 216.722656 132.167969 217.296875 133.164062 216.519531 134.203125 C 215.746094 135.246094 213.875 138.378906 212.320312 139.160156 C 210.765625 139.953125 210.546875 140.78125 208.671875 142.121094 C 208.144531 142.496094 207.640625 143.070312 207.191406 143.792969 C 206.378906 144.4375 205.503906 145.136719 204.65625 145.660156 C 203.367188 146.449219 202.578125 149.828125 202.050781 152.878906 C 201.933594 153.585938 201.476562 154.296875 201.324219 154.511719 C 201.167969 154.71875 200.574219 155.285156 200.679688 155.5625 C 200.789062 155.847656 200.953125 155.953125 200.9375 156.128906 C 200.921875 156.304688 201.003906 156.898438 200.503906 157.160156 C 200.003906 157.425781 199.332031 157.894531 199.121094 158.234375 C 198.90625 158.566406 198.542969 159.117188 197.589844 159.246094 C 196.636719 159.371094 196.023438 160.167969 196.476562 160.078125 C 196.9375 159.984375 197.117188 160.40625 198.246094 159.847656 C 199.378906 159.285156 199.132812 159.664062 199.691406 159.582031 C 199.957031 159.546875 200.316406 159.453125 200.675781 159.300781 C 200.078125 160.554688 199.214844 161.902344 198.5625 162.5625 C 197.855469 163.269531 197.132812 163.679688 196.882812 164.253906 L 196.878906 164.253906 C 196.878906 164.261719 196.871094 164.269531 196.871094 164.277344 C 196.859375 164.308594 196.839844 164.335938 196.835938 164.363281 L 196.847656 164.367188 C 196.816406 164.5 196.769531 164.667969 196.777344 164.757812 C 196.824219 165.65625 196.160156 167.875 196.214844 169.582031 C 196.269531 171.289062 194.203125 176.902344 194.125 177.613281 C 194.058594 178.320312 193.585938 178.542969 193.566406 179.257812 C 193.535156 179.972656 193.621094 180.023438 194.550781 180.15625 C 195.472656 180.296875 196.335938 180.203125 197.289062 180.074219 C 198.238281 179.941406 197.148438 179.65625 196.785156 179.257812 C 196.417969 178.867188 196.167969 178.707031 196.210938 178.175781 C 196.253906 177.640625 196.414062 177.121094 196.417969 176.183594 C 196.417969 175.238281 197.179688 172.984375 197.628906 171.109375 C 197.949219 169.78125 199.210938 167.386719 199.949219 166.03125 C 200.195312 165.585938 200.390625 165.25 200.460938 165.117188 C 200.730469 164.613281 202.128906 163.585938 202.925781 162.273438 C 203.730469 160.96875 204.058594 160.371094 205.128906 159.941406 C 205.769531 159.683594 206.679688 159.230469 207.710938 158.664062 C 207.617188 160.351562 207.359375 162.1875 207.164062 163.363281 C 206.828125 165.386719 205.875 166.457031 205.460938 167.941406 C 205.394531 168.183594 205.371094 168.40625 205.378906 168.605469 L 205.402344 168.605469 C 205.410156 169.546875 206.378906 170.351562 206.945312 171.53125 C 207.683594 173.082031 208.976562 175 209.324219 175.972656 C 209.679688 176.945312 210.414062 179.03125 210.769531 180.007812 C 211.113281 180.984375 210.941406 180.964844 212.40625 181.109375 C 213.867188 181.253906 215.304688 181.214844 215.617188 180.710938 C 215.9375 180.207031 213.785156 180.261719 213.796875 179.683594 C 213.808594 179.097656 212.667969 178.902344 212.027344 178.070312 C 211.394531 177.253906 209.574219 173 209.34375 171.679688 C 209.214844 170.917969 209.21875 169.480469 209.277344 168.398438 C 209.320312 167.667969 209.386719 167.054688 209.464844 166.8125 C 209.660156 166.203125 211.355469 162.167969 211.699219 161.386719 C 212.046875 160.621094 213.464844 159.820312 214.0625 158.761719 C 214.628906 157.753906 214.632812 157.539062 214.394531 156.082031 C 214.546875 156.074219 214.648438 156.058594 214.6875 156.046875 C 215.105469 155.910156 215.863281 155.441406 216.625 155.027344 C 217.378906 154.613281 218.753906 155.195312 220.523438 155.863281 C 222.296875 156.527344 223.878906 156.773438 225.011719 157.105469 C 226.140625 157.441406 228.238281 157.066406 230.191406 156.808594 C 230.722656 156.738281 231.894531 156.742188 233.347656 156.726562 C 233.277344 157.207031 233.207031 157.648438 233.160156 158.003906 C 232.976562 158.667969 232.726562 159.394531 232.578125 159.820312 C 232.328125 160.511719 231.097656 164.867188 230.882812 165.695312 C 230.769531 166.117188 230.601562 166.914062 230.472656 167.75 C 230.464844 167.761719 230.464844 167.769531 230.457031 167.78125 C 230.457031 167.808594 230.457031 167.835938 230.453125 167.859375 L 230.453125 167.863281 C 230.351562 168.5625 230.257812 169.46875 230.28125 169.929688 C 230.351562 171.0625 229.589844 174.746094 229.210938 175.871094 C 228.832031 176.996094 229.128906 178.5 229.253906 179.050781 C 229.378906 179.605469 229.253906 179.050781 228.652344 180.160156 C 228.054688 181.265625 229.917969 181.402344 231.683594 181.65625 C 233.449219 181.902344 233.675781 181.410156 233.808594 181.019531 C 233.933594 180.632812 232.542969 180.183594 232.246094 180.0625 C 231.945312 179.945312 231.277344 178.984375 231.113281 178.34375 C 230.953125 177.699219 231.445312 174.929688 231.5625 173.773438 C 231.675781 172.625 232.535156 169.84375 233.015625 169.441406 C 233.1875 169.304688 233.355469 168.988281 233.480469 168.707031 L 233.484375 168.699219 C 233.496094 168.675781 233.503906 168.644531 233.515625 168.625 C 233.519531 168.609375 233.523438 168.59375 233.53125 168.585938 L 233.523438 168.585938 C 233.683594 168.136719 233.777344 167.613281 233.828125 167.148438 C 233.90625 166.304688 235.375 161.84375 236.023438 160.746094 C 236.367188 160.160156 236.777344 159.339844 237.085938 158.695312 C 237.222656 158.414062 237.449219 157.976562 237.695312 157.484375 C 238.484375 158.226562 239.828125 158.988281 240.15625 159.316406 C 241.222656 160.320312 242.394531 162.507812 243.96875 164.613281 C 245 165.992188 245.4375 167.019531 245.625 167.847656 C 245.714844 168.308594 245.761719 168.8125 245.753906 169.171875 C 245.742188 170.199219 245.847656 170.972656 245.808594 172.710938 C 245.773438 174.453125 245.035156 177.425781 245.070312 178.414062 C 245.109375 179.402344 244.730469 179.144531 244.296875 179.902344 C 243.863281 180.667969 246.972656 182.765625 247.96875 183.085938 C 248.964844 183.40625 248.90625 183.539062 248.945312 182.6875 C 248.988281 181.847656 247.480469 180.308594 247.535156 179.328125 C 247.582031 178.347656 247.199219 177.238281 247.1875 175.535156 C 247.175781 173.832031 248.773438 169.023438 248.902344 168.097656 C 248.980469 167.566406 249.171875 167.03125 248.988281 166.355469 L 249.003906 166.355469 C 248.992188 166.320312 248.972656 166.28125 248.960938 166.242188 C 248.957031 166.238281 248.953125 166.234375 248.953125 166.234375 C 248.773438 165.777344 248.40625 165.214844 247.699219 164.4375 C 246.625 163.261719 245.402344 161.015625 244.492188 159.117188 L 244.460938 159.113281 C 244.261719 158.742188 244.042969 158.285156 243.738281 157.382812 C 243.398438 156.371094 243.175781 156.148438 243.144531 155.425781 C 243.632812 155.175781 244.03125 154.882812 244.289062 154.53125 C 244.738281 153.914062 244.890625 153.871094 245.429688 153.832031 C 245.972656 153.796875 250.324219 155.027344 253.027344 154.804688 C 255.742188 154.578125 259.339844 152.109375 260.351562 151.363281 C 261.371094 150.613281 262.082031 150.59375 262.324219 150.4375 C 262.5625 150.285156 262.800781 150.125 263.328125 149.816406 C 263.855469 149.515625 263.949219 149.835938 264.621094 149.363281 C 265.292969 148.894531 265.742188 147.996094 266.035156 146.816406 C 266.335938 145.636719 267.050781 146.511719 267.449219 146.066406 C 267.859375 145.613281 268.007812 145.445312 268.773438 145.339844 C 268.882812 145.328125 268.980469 145.292969 269.070312 145.246094 C 271.375 150.289062 278.207031 163.320312 287.773438 164.253906 C 287.605469 165.203125 287.359375 166.429688 287.011719 167.988281 C 286.21875 171.511719 287.621094 172.90625 286.847656 173.390625 C 286.066406 173.875 285.101562 174.789062 284.492188 176.167969 C 283.878906 177.542969 283.824219 177.433594 283.261719 178.132812 C 282.699219 178.835938 282.054688 179.078125 281.945312 179.484375 C 281.84375 179.886719 281.117188 179.757812 280.6875 180.050781 C 280.257812 180.351562 280.097656 180.273438 279.960938 181.078125 C 279.832031 181.882812 281.660156 182.359375 281.878906 182.578125 C 282.09375 182.789062 284.144531 183.9375 284.144531 183.9375 C 284.144531 183.9375 284.597656 184.121094 284.761719 183.777344 C 284.921875 183.421875 283.921875 182.304688 283.785156 182.03125 C 283.648438 181.761719 283.59375 181.140625 283.566406 180.929688 C 283.542969 180.714844 284.105469 181.035156 284.480469 180.519531 C 284.855469 180.011719 284.527344 179.371094 286.273438 179.601562 C 288.023438 179.835938 291.496094 180.742188 292.894531 180.703125 C 293.355469 180.691406 293.574219 180.632812 293.671875 180.570312 C 293.769531 180.949219 293.699219 181.917969 293.625 182.316406 C 293.550781 182.738281 293.414062 183.066406 293.847656 183.472656 C 294.277344 183.871094 296.851562 183.296875 296.851562 183.296875 L 299.515625 182.964844 C 299.511719 182.964844 299.621094 182.746094 299.511719 182.480469 Z M 233.125 131.003906 C 232.542969 131.976562 231.832031 131.863281 231.269531 131.71875 C 230.699219 131.574219 229.230469 131.519531 229.230469 131.519531 C 229.230469 131.519531 227.847656 129.640625 228.269531 129.855469 C 228.695312 130.078125 228.835938 129.558594 229.691406 129.550781 C 230.535156 129.542969 232.019531 129.511719 232.707031 129.351562 C 233.390625 129.195312 232.929688 128.929688 233.378906 128.925781 C 233.820312 128.925781 233.703125 129.222656 234.042969 129.394531 C 233.730469 129.796875 233.460938 130.457031 233.125 131.003906 Z M 233.125 131.003906 " fill-opacity="1" fill-rule="nonzero"/></g></svg>