<svg xmlns="http://www.w3.org/2000/svg" xmlns:xlink="http://www.w3.org/1999/xlink" width="400" zoomAndPan="magnify" viewBox="0 0 300 299.999988" height="400" preserveAspectRatio="xMidYMid meet" version="1.0"><path fill="#737373" d="M 83.457031 16.71875 L 84.726562 17.683594 C 81.261719 22.230469 83.136719 27.777344 83.21875 28.011719 C 84.75 32.410156 88.871094 35.488281 93.464844 35.667969 C 98.53125 35.867188 103.136719 32.683594 104.652344 27.917969 C 106.210938 23.027344 104.074219 17.539062 99.578125 14.867188 C 94.757812 12.003906 88.09375 13.265625 84.726562 17.683594 Z M 93.917969 38.867188 C 93.726562 38.867188 93.535156 38.863281 93.339844 38.855469 C 87.445312 38.621094 82.164062 34.683594 80.203125 29.058594 C 80.097656 28.757812 77.695312 21.648438 82.1875 15.753906 C 86.578125 9.996094 94.929688 8.402344 101.207031 12.128906 C 106.96875 15.546875 109.695312 22.59375 107.691406 28.882812 C 105.800781 34.828125 100.183594 38.867188 93.917969 38.867188 " fill-opacity="1" fill-rule="nonzero"/><path fill="#737373" d="M 93.414062 5.464844 C 87.636719 5.464844 81.957031 7.550781 78.003906 11.53125 C 72.214844 17.359375 70.992188 26.324219 74.375 38.167969 C 74.675781 39.234375 75.484375 42.066406 83.464844 54.8125 C 86.859375 60.234375 90.402344 65.609375 94.007812 70.820312 C 98.785156 64.558594 103.078125 57.945312 106.789062 51.136719 C 114.015625 37.863281 117.152344 31.679688 115.757812 24.125 C 115.433594 22.359375 113.371094 13.296875 104.84375 8.4375 C 101.335938 6.4375 97.351562 5.464844 93.414062 5.464844 Z M 93.867188 76.191406 L 92.632812 74.429688 C 88.566406 68.621094 84.574219 62.589844 80.761719 56.503906 C 72.542969 43.375 71.707031 40.449219 71.304688 39.042969 L 72.839844 38.605469 L 71.304688 39.039062 C 67.585938 26.007812 69.078125 15.996094 75.738281 9.285156 C 83.371094 1.601562 96.5625 0.046875 106.425781 5.667969 C 116.179688 11.226562 118.523438 21.535156 118.894531 23.546875 C 120.554688 32.527344 116.660156 39.679688 109.589844 52.660156 C 105.457031 60.246094 100.613281 67.59375 95.195312 74.496094 L 93.867188 76.191406 " fill-opacity="1" fill-rule="nonzero"/><path fill="#737373" d="M 239.417969 191.179688 L 240.6875 192.148438 C 237.222656 196.691406 239.097656 202.238281 239.175781 202.472656 C 240.710938 206.871094 244.832031 209.949219 249.425781 210.132812 C 254.5 210.332031 259.097656 207.144531 260.613281 202.378906 C 262.171875 197.488281 260.035156 192 255.539062 189.328125 C 250.714844 186.464844 244.054688 187.730469 240.6875 192.148438 Z M 249.878906 213.328125 C 249.6875 213.328125 249.496094 213.324219 249.300781 213.316406 C 243.40625 213.082031 238.125 209.144531 236.164062 203.519531 C 236.058594 203.222656 233.65625 196.109375 238.148438 190.214844 C 242.539062 184.457031 250.894531 182.863281 257.167969 186.589844 C 262.929688 190.007812 265.65625 197.054688 263.652344 203.34375 C 261.757812 209.289062 256.148438 213.328125 249.878906 213.328125 " fill-opacity="1" fill-rule="nonzero"/><path fill="#737373" d="M 249.371094 179.925781 C 243.597656 179.925781 237.917969 182.011719 233.964844 185.992188 C 228.175781 191.824219 226.953125 200.785156 230.335938 212.628906 C 230.636719 213.695312 231.445312 216.527344 239.425781 229.273438 C 242.820312 234.695312 246.359375 240.070312 249.96875 245.28125 C 254.746094 239.019531 259.039062 232.40625 262.746094 225.597656 C 269.976562 212.324219 273.113281 206.140625 271.71875 198.585938 C 271.394531 196.820312 269.335938 187.761719 260.804688 182.898438 C 257.296875 180.898438 253.3125 179.925781 249.371094 179.925781 Z M 249.828125 250.652344 L 248.59375 248.890625 C 244.527344 243.078125 240.53125 237.050781 236.722656 230.964844 C 228.503906 217.835938 227.667969 214.910156 227.265625 213.503906 C 223.546875 200.46875 225.039062 190.457031 231.699219 183.75 C 239.332031 176.066406 252.523438 174.507812 262.382812 180.128906 C 272.140625 185.691406 274.484375 196 274.855469 198.007812 C 276.515625 206.992188 272.621094 214.140625 265.550781 227.121094 C 261.417969 234.707031 256.574219 242.054688 251.15625 248.960938 L 249.828125 250.652344 " fill-opacity="1" fill-rule="nonzero"/><path fill="#737373" d="M 91.742188 81.738281 C 91.613281 86.320312 91.269531 90.894531 90.710938 95.441406 C 90.65625 95.894531 90.964844 96.488281 91.269531 96.792969 C 91.601562 97.128906 92.148438 97.375 92.625 97.355469 C 93.117188 97.332031 93.632812 97.171875 93.976562 96.792969 C 94.34375 96.394531 94.472656 95.976562 94.539062 95.441406 C 95.097656 90.894531 95.441406 86.320312 95.570312 81.738281 C 95.601562 80.738281 94.671875 79.78125 93.65625 79.824219 C 92.597656 79.875 91.773438 80.667969 91.742188 81.738281 " fill-opacity="1" fill-rule="nonzero"/><path fill="#737373" d="M 88.375 102.214844 C 88.132812 102.84375 87.882812 103.46875 87.625 104.09375 C 87.542969 104.289062 87.554688 104.269531 87.652344 104.035156 C 87.613281 104.121094 87.578125 104.210938 87.539062 104.296875 C 87.480469 104.433594 87.421875 104.5625 87.367188 104.695312 C 87.230469 105.003906 87.09375 105.3125 86.953125 105.617188 C 86.402344 106.820312 85.808594 108.003906 85.183594 109.167969 C 83.914062 111.519531 82.492188 113.785156 80.933594 115.953125 C 80.347656 116.765625 80.765625 118.117188 81.621094 118.570312 C 82.609375 119.089844 83.617188 118.753906 84.242188 117.882812 C 87.488281 113.363281 90.089844 108.429688 92.0625 103.230469 C 92.421875 102.292969 91.671875 101.09375 90.726562 100.878906 C 89.636719 100.632812 88.753906 101.210938 88.375 102.214844 " fill-opacity="1" fill-rule="nonzero"/><path fill="#737373" d="M 76.679688 121.753906 C 74.011719 125.148438 71.027344 128.28125 67.761719 131.105469 C 67.003906 131.761719 67.039062 133.144531 67.761719 133.808594 C 68.574219 134.550781 69.660156 134.511719 70.46875 133.808594 C 73.734375 130.984375 76.71875 127.851562 79.386719 124.457031 C 79.714844 124.042969 79.949219 123.65625 79.949219 123.105469 C 79.949219 122.636719 79.738281 122.078125 79.386719 121.753906 C 78.699219 121.121094 77.339844 120.914062 76.679688 121.753906 " fill-opacity="1" fill-rule="nonzero"/><path fill="#737373" d="M 60.539062 139.199219 C 57.363281 141.898438 54.59375 145.050781 52.277344 148.515625 C 51.722656 149.347656 52.089844 150.667969 52.964844 151.132812 C 53.929688 151.640625 54.988281 151.335938 55.585938 150.445312 C 56.128906 149.636719 56.6875 148.828125 57.292969 148.066406 C 56.980469 148.453125 57.289062 148.074219 57.335938 148.011719 C 57.410156 147.921875 57.480469 147.828125 57.554688 147.738281 C 57.714844 147.539062 57.875 147.34375 58.039062 147.148438 C 58.351562 146.769531 58.671875 146.402344 59 146.039062 C 60.316406 144.5625 61.738281 143.183594 63.246094 141.90625 C 64.011719 141.253906 63.964844 139.859375 63.246094 139.199219 C 62.429688 138.453125 61.355469 138.507812 60.539062 139.199219 " fill-opacity="1" fill-rule="nonzero"/><path fill="#737373" d="M 44.332031 154.96875 C 40.949219 158.695312 38.132812 162.929688 36.078125 167.523438 C 35.859375 168.007812 35.738281 168.464844 35.882812 168.996094 C 36.007812 169.441406 36.351562 169.921875 36.765625 170.140625 C 37.597656 170.582031 38.945312 170.429688 39.382812 169.453125 C 40.367188 167.253906 41.519531 165.132812 42.835938 163.113281 C 43.484375 162.117188 44.15625 161.113281 44.90625 160.191406 C 44.59375 160.578125 44.902344 160.199219 44.949219 160.136719 C 45.035156 160.027344 45.125 159.917969 45.210938 159.808594 C 45.417969 159.554688 45.625 159.296875 45.835938 159.046875 C 46.226562 158.582031 46.628906 158.125 47.039062 157.675781 C 47.710938 156.933594 47.824219 155.691406 47.039062 154.96875 C 46.304688 154.296875 45.046875 154.179688 44.332031 154.96875 " fill-opacity="1" fill-rule="nonzero"/><path fill="#737373" d="M 31.488281 174.921875 C 29.398438 180.398438 27.578125 185.976562 26.035156 191.632812 C 25.769531 192.597656 26.359375 193.753906 27.371094 193.984375 C 28.378906 194.214844 29.441406 193.683594 29.726562 192.648438 C 31.269531 186.992188 33.089844 181.417969 35.179688 175.941406 C 35.535156 175.003906 34.785156 173.800781 33.839844 173.589844 C 32.75 173.339844 31.867188 173.921875 31.488281 174.921875 " fill-opacity="1" fill-rule="nonzero"/><path fill="#737373" d="M 24.59375 200.980469 C 23.761719 207.324219 24.339844 213.871094 26.222656 219.988281 C 26.519531 220.941406 27.574219 221.644531 28.578125 221.320312 C 29.542969 221.011719 30.230469 219.992188 29.914062 218.96875 C 29.460938 217.492188 29.082031 215.992188 28.785156 214.472656 C 28.632812 213.691406 28.472656 212.902344 28.390625 212.109375 C 28.441406 212.601562 28.394531 212.136719 28.378906 212.023438 C 28.355469 211.828125 28.332031 211.628906 28.308594 211.429688 C 28.265625 211.035156 28.230469 210.636719 28.195312 210.238281 C 27.941406 207.152344 28.019531 204.046875 28.421875 200.980469 C 28.480469 200.53125 28.164062 199.929688 27.863281 199.628906 C 27.527344 199.296875 26.984375 199.046875 26.507812 199.066406 C 26.011719 199.089844 25.5 199.253906 25.15625 199.628906 C 24.789062 200.027344 24.664062 200.445312 24.59375 200.980469 " fill-opacity="1" fill-rule="nonzero"/><path fill="#737373" d="M 27 228.855469 C 28.859375 234.605469 31.855469 239.90625 35.796875 244.480469 C 36.453125 245.242188 37.839844 245.203125 38.503906 244.480469 C 39.25 243.671875 39.203125 242.589844 38.503906 241.777344 C 38.027344 241.222656 37.542969 240.664062 37.109375 240.074219 C 37.152344 240.132812 37.195312 240.1875 37.238281 240.242188 C 37.183594 240.171875 37.128906 240.097656 37.070312 240.023438 C 36.960938 239.878906 36.851562 239.730469 36.742188 239.582031 C 36.523438 239.285156 36.3125 238.988281 36.101562 238.6875 C 35.316406 237.558594 34.582031 236.390625 33.90625 235.191406 C 33.234375 233.988281 32.617188 232.757812 32.0625 231.496094 C 31.988281 231.328125 31.910156 231.164062 31.84375 230.992188 C 32.042969 231.496094 31.8125 230.910156 31.773438 230.8125 C 31.652344 230.515625 31.535156 230.21875 31.421875 229.917969 C 31.160156 229.230469 30.917969 228.539062 30.691406 227.839844 C 30.386719 226.890625 29.351562 226.175781 28.339844 226.503906 C 27.386719 226.8125 26.671875 227.835938 27 228.855469 " fill-opacity="1" fill-rule="nonzero"/><path fill="#737373" d="M 39.535156 249.609375 C 43.183594 253.457031 47.5625 256.652344 52.355469 258.925781 C 53.261719 259.355469 54.464844 259.207031 54.976562 258.238281 C 55.425781 257.390625 55.253906 256.082031 54.289062 255.625 C 51.984375 254.527344 49.777344 253.230469 47.707031 251.734375 C 47.449219 251.546875 47.191406 251.355469 46.9375 251.164062 C 46.863281 251.109375 46.792969 251.054688 46.71875 250.996094 C 46.777344 251.042969 46.835938 251.085938 46.890625 251.128906 C 46.742188 251.027344 46.601562 250.902344 46.460938 250.789062 C 45.964844 250.390625 45.476562 249.980469 44.996094 249.558594 C 44.039062 248.714844 43.121094 247.828125 42.242188 246.902344 C 41.550781 246.175781 40.222656 246.15625 39.535156 246.902344 C 38.820312 247.683594 38.800781 248.828125 39.535156 249.609375 " fill-opacity="1" fill-rule="nonzero"/><path fill="#737373" d="M 58.417969 260.320312 C 61.6875 261.121094 64.894531 260.148438 67.847656 258.746094 C 70.664062 257.40625 73.359375 255.792969 76.089844 254.292969 C 76.96875 253.808594 77.328125 252.527344 76.777344 251.675781 C 76.203125 250.785156 75.097656 250.472656 74.160156 250.988281 C 71.554688 252.421875 68.980469 253.9375 66.3125 255.253906 C 66.007812 255.402344 65.699219 255.546875 65.386719 255.6875 C 65.296875 255.730469 65.207031 255.769531 65.117188 255.808594 C 64.921875 255.890625 64.941406 255.882812 65.171875 255.785156 C 65.085938 255.855469 64.871094 255.90625 64.769531 255.949219 C 64.101562 256.207031 63.414062 256.429688 62.71875 256.59375 C 62.410156 256.664062 62.066406 256.769531 61.75 256.777344 C 62.285156 256.765625 61.757812 256.765625 61.636719 256.777344 C 61.472656 256.789062 61.3125 256.800781 61.148438 256.804688 C 60.824219 256.8125 60.5 256.804688 60.175781 256.773438 C 60.082031 256.765625 59.992188 256.757812 59.898438 256.746094 C 60.175781 256.785156 60.207031 256.785156 59.992188 256.75 C 59.804688 256.710938 59.617188 256.675781 59.433594 256.632812 C 58.464844 256.390625 57.3125 256.941406 57.082031 257.964844 C 56.855469 258.953125 57.378906 260.0625 58.417969 260.320312 " fill-opacity="1" fill-rule="nonzero"/><path fill="#737373" d="M 81.039062 248.128906 C 84.882812 245.519531 88.777344 242.984375 92.714844 240.523438 C 93.5625 239.992188 93.976562 238.792969 93.402344 237.90625 C 92.855469 237.054688 91.691406 236.652344 90.785156 237.21875 C 86.84375 239.679688 82.949219 242.21875 79.105469 244.828125 C 78.277344 245.386719 77.832031 246.535156 78.417969 247.441406 C 78.949219 248.265625 80.152344 248.730469 81.039062 248.128906 " fill-opacity="1" fill-rule="nonzero"/><path fill="#737373" d="M 98.382812 238.441406 C 100.640625 237.542969 102.960938 236.804688 105.324219 236.246094 C 106.484375 235.972656 107.652344 235.742188 108.828125 235.554688 C 109.121094 235.507812 109.414062 235.464844 109.710938 235.421875 C 110.15625 235.355469 109.378906 235.460938 109.789062 235.410156 C 109.9375 235.390625 110.085938 235.371094 110.234375 235.355469 C 110.875 235.277344 111.515625 235.214844 112.15625 235.164062 C 113.152344 235.082031 114.121094 234.339844 114.070312 233.25 C 114.027344 232.285156 113.226562 231.253906 112.15625 231.339844 C 107.085938 231.75 102.09375 232.867188 97.363281 234.753906 C 96.882812 234.945312 96.492188 235.171875 96.21875 235.632812 C 95.980469 236.042969 95.878906 236.648438 96.027344 237.105469 C 96.316406 238.003906 97.386719 238.839844 98.382812 238.441406 " fill-opacity="1" fill-rule="nonzero"/><path fill="#737373" d="M 118.621094 236.976562 C 118.929688 237.027344 119.230469 237.09375 119.53125 237.183594 C 119.773438 237.25 120.226562 237.324219 120.410156 237.484375 C 120.339844 237.453125 120.269531 237.425781 120.199219 237.394531 C 120.28125 237.429688 120.359375 237.46875 120.441406 237.503906 C 120.582031 237.570312 120.722656 237.636719 120.859375 237.710938 C 121.121094 237.84375 121.375 237.984375 121.625 238.132812 C 122.6875 238.765625 123.667969 239.515625 124.652344 240.257812 C 126.941406 241.984375 129.230469 243.710938 131.519531 245.4375 C 131.886719 245.714844 132.566406 245.746094 132.992188 245.628906 C 133.4375 245.507812 133.917969 245.164062 134.136719 244.75 C 134.371094 244.308594 134.488281 243.769531 134.328125 243.277344 C 134.164062 242.773438 133.871094 242.453125 133.449219 242.136719 C 131.117188 240.378906 128.789062 238.617188 126.460938 236.859375 C 124.410156 235.316406 122.230469 233.730469 119.636719 233.289062 C 119.117188 233.199219 118.632812 233.207031 118.164062 233.480469 C 117.765625 233.714844 117.386719 234.167969 117.285156 234.625 C 117.074219 235.550781 117.566406 236.796875 118.621094 236.976562 " fill-opacity="1" fill-rule="nonzero"/><path fill="#737373" d="M 133.632812 249.992188 C 136.058594 255.148438 139.007812 260.050781 142.429688 264.609375 C 142.742188 265.023438 143.054688 265.34375 143.574219 265.488281 C 144.03125 265.613281 144.644531 265.558594 145.050781 265.292969 C 145.839844 264.785156 146.378906 263.535156 145.734375 262.679688 C 142.3125 258.121094 139.363281 253.21875 136.9375 248.0625 C 136.511719 247.152344 135.132812 246.851562 134.320312 247.375 C 133.382812 247.976562 133.175781 249.019531 133.632812 249.992188 " fill-opacity="1" fill-rule="nonzero"/><path fill="#737373" d="M 145.902344 269.921875 C 149.039062 274.859375 152.707031 279.46875 156.828125 283.621094 C 157.535156 284.332031 158.839844 284.378906 159.535156 283.621094 C 160.238281 282.855469 160.289062 281.675781 159.535156 280.917969 C 157.546875 278.914062 155.667969 276.808594 153.90625 274.605469 C 153.679688 274.324219 153.445312 274.042969 153.234375 273.753906 C 153.519531 274.140625 153.222656 273.742188 153.179688 273.683594 C 153.0625 273.527344 152.945312 273.375 152.828125 273.222656 C 152.40625 272.664062 151.996094 272.101562 151.589844 271.53125 C 150.761719 270.375 149.96875 269.191406 149.207031 267.992188 C 148.667969 267.148438 147.476562 266.730469 146.585938 267.304688 C 145.742188 267.851562 145.328125 269.019531 145.902344 269.921875 " fill-opacity="1" fill-rule="nonzero"/><path fill="#737373" d="M 163.320312 290.183594 C 166.96875 292.363281 170.722656 294.375 174.558594 296.210938 C 175.457031 296.640625 176.667969 296.488281 177.175781 295.523438 C 177.628906 294.671875 177.453125 293.367188 176.488281 292.90625 C 172.652344 291.074219 168.902344 289.0625 165.253906 286.882812 C 164.394531 286.367188 163.113281 286.660156 162.632812 287.570312 C 162.144531 288.492188 162.402344 289.636719 163.320312 290.183594 " fill-opacity="1" fill-rule="nonzero"/><path fill="#737373" d="M 182.867188 298.984375 C 185.183594 299.625 187.605469 299.957031 190.011719 299.957031 C 191.28125 299.953125 192.535156 299.835938 193.792969 299.664062 C 193.910156 299.648438 194.03125 299.632812 194.152344 299.613281 C 194.296875 299.59375 194.246094 299.601562 194.003906 299.636719 C 194.078125 299.625 194.152344 299.617188 194.222656 299.609375 C 194.488281 299.574219 194.753906 299.546875 195.019531 299.535156 C 195.308594 299.519531 195.59375 299.523438 195.882812 299.539062 C 196.277344 299.5625 195.527344 299.429688 195.9375 299.550781 C 196.074219 299.59375 196.214844 299.621094 196.351562 299.664062 C 197.308594 299.960938 198.484375 299.3125 198.707031 298.328125 C 198.941406 297.289062 198.394531 296.296875 197.371094 295.976562 C 196.042969 295.5625 194.699219 295.714844 193.351562 295.898438 C 193.230469 295.914062 193.03125 295.914062 192.917969 295.957031 C 192.992188 295.949219 193.066406 295.9375 193.140625 295.925781 C 193.039062 295.941406 192.941406 295.953125 192.84375 295.964844 C 192.570312 295.996094 192.296875 296.023438 192.027344 296.046875 C 191.457031 296.09375 190.882812 296.121094 190.308594 296.128906 C 189.761719 296.136719 189.214844 296.125 188.667969 296.097656 C 188.082031 296.066406 187.457031 296.058594 186.882812 295.9375 C 187.128906 295.988281 187.109375 295.96875 186.875 295.933594 C 186.726562 295.914062 186.582031 295.890625 186.433594 295.863281 C 186.164062 295.820312 185.894531 295.769531 185.625 295.714844 C 185.039062 295.597656 184.460938 295.457031 183.882812 295.300781 C 182.917969 295.03125 181.757812 295.628906 181.527344 296.636719 C 181.296875 297.644531 181.832031 298.703125 182.867188 298.984375 " fill-opacity="1" fill-rule="nonzero"/><path fill="#737373" d="M 207.828125 296.820312 C 212.265625 295.027344 216.582031 292.964844 220.734375 290.582031 C 221.601562 290.085938 221.976562 288.832031 221.417969 287.96875 C 220.855469 287.089844 219.730469 286.75 218.800781 287.28125 C 216.820312 288.417969 214.800781 289.488281 212.75 290.484375 C 211.734375 290.980469 210.710938 291.457031 209.679688 291.914062 C 209.175781 292.140625 208.667969 292.359375 208.160156 292.578125 C 207.695312 292.777344 208.535156 292.421875 208.066406 292.617188 C 207.925781 292.675781 207.785156 292.734375 207.648438 292.789062 C 207.371094 292.90625 207.089844 293.019531 206.8125 293.132812 C 206.332031 293.324219 205.941406 293.546875 205.667969 294.011719 C 205.429688 294.421875 205.324219 295.023438 205.476562 295.484375 C 205.765625 296.378906 206.835938 297.222656 207.828125 296.820312 " fill-opacity="1" fill-rule="nonzero"/><path fill="#737373" d="M 229.453125 284.972656 C 233.339844 282.148438 236.730469 278.816406 239.640625 274.996094 C 239.917969 274.628906 239.949219 273.945312 239.832031 273.523438 C 239.707031 273.078125 239.367188 272.597656 238.953125 272.378906 C 238.507812 272.144531 237.96875 272.027344 237.476562 272.1875 C 236.972656 272.351562 236.652344 272.644531 236.332031 273.066406 C 236.277344 273.140625 236.222656 273.210938 236.164062 273.285156 C 236.207031 273.230469 236.25 273.175781 236.292969 273.117188 C 236.226562 273.148438 236.082031 273.390625 236.035156 273.445312 C 235.863281 273.664062 235.691406 273.878906 235.511719 274.09375 C 235.175781 274.507812 234.828125 274.910156 234.476562 275.308594 C 233.753906 276.125 233.003906 276.914062 232.226562 277.675781 C 231.464844 278.421875 230.675781 279.136719 229.867188 279.828125 C 229.441406 280.1875 229.011719 280.539062 228.574219 280.882812 C 228.488281 280.949219 228.152344 281.226562 228.523438 280.921875 C 228.414062 281.011719 228.300781 281.09375 228.191406 281.175781 C 227.96875 281.34375 227.746094 281.507812 227.519531 281.671875 C 227.105469 281.972656 226.78125 282.304688 226.640625 282.8125 C 226.515625 283.269531 226.570312 283.882812 226.832031 284.289062 C 227.351562 285.085938 228.585938 285.601562 229.453125 284.972656 " fill-opacity="1" fill-rule="nonzero"/><path fill="#737373" d="M 244.527344 268.855469 C 247.449219 264.835938 249.625 260.269531 250.957031 255.484375 C 251.222656 254.523438 250.625 253.363281 249.617188 253.132812 C 248.605469 252.902344 247.550781 253.4375 247.265625 254.46875 C 246.945312 255.617188 246.578125 256.75 246.164062 257.863281 C 246.054688 258.144531 245.945312 258.429688 245.832031 258.710938 C 245.78125 258.839844 245.726562 258.96875 245.675781 259.097656 C 245.511719 259.5 245.808594 258.792969 245.648438 259.160156 C 245.40625 259.714844 245.15625 260.269531 244.894531 260.8125 C 243.851562 262.957031 242.621094 265 241.222656 266.925781 C 240.632812 267.738281 241.058594 269.089844 241.910156 269.539062 C 242.902344 270.066406 243.898438 269.722656 244.527344 268.855469 " fill-opacity="1" fill-rule="nonzero"/></svg>