<svg xmlns="http://www.w3.org/2000/svg" xmlns:xlink="http://www.w3.org/1999/xlink" width="400" zoomAndPan="magnify" viewBox="0 0 300 299.999988" height="400" preserveAspectRatio="xMidYMid meet" version="1.0"><defs><clipPath id="12094b3490"><path d="M 91 230 L 210 230 L 210 288.957031 L 91 288.957031 Z M 91 230 " clip-rule="nonzero"/></clipPath><clipPath id="f686da6cf1"><path d="M 34 76 L 38 76 L 38 81 L 34 81 Z M 34 76 " clip-rule="nonzero"/></clipPath><clipPath id="d8e723ea5d"><path d="M 62.726562 -9.753906 L 156.667969 210.28125 L 73.207031 245.914062 L -20.734375 25.878906 Z M 62.726562 -9.753906 " clip-rule="nonzero"/></clipPath><clipPath id="24c5d061fe"><path d="M 62.726562 -9.753906 L 156.667969 210.28125 L 73.207031 245.914062 L -20.734375 25.878906 Z M 62.726562 -9.753906 " clip-rule="nonzero"/></clipPath><clipPath id="a75fd7ff4b"><path d="M 12 92 L 16 92 L 16 95 L 12 95 Z M 12 92 " clip-rule="nonzero"/></clipPath><clipPath id="17df8fcb46"><path d="M 62.726562 -9.753906 L 156.667969 210.28125 L 73.207031 245.914062 L -20.734375 25.878906 Z M 62.726562 -9.753906 " clip-rule="nonzero"/></clipPath><clipPath id="aae446947c"><path d="M 62.726562 -9.753906 L 156.667969 210.28125 L 73.207031 245.914062 L -20.734375 25.878906 Z M 62.726562 -9.753906 " clip-rule="nonzero"/></clipPath><clipPath id="6febbb34a1"><path d="M 29 73 L 32 73 L 32 76 L 29 76 Z M 29 73 " clip-rule="nonzero"/></clipPath><clipPath id="1dd63c4ee4"><path d="M 62.726562 -9.753906 L 156.667969 210.28125 L 73.207031 245.914062 L -20.734375 25.878906 Z M 62.726562 -9.753906 " clip-rule="nonzero"/></clipPath><clipPath id="80955be510"><path d="M 62.726562 -9.753906 L 156.667969 210.28125 L 73.207031 245.914062 L -20.734375 25.878906 Z M 62.726562 -9.753906 " clip-rule="nonzero"/></clipPath><clipPath id="bcae26a8b2"><path d="M 36 71 L 38 71 L 38 75 L 36 75 Z M 36 71 " clip-rule="nonzero"/></clipPath><clipPath id="171b9c5a2c"><path d="M 62.726562 -9.753906 L 156.667969 210.28125 L 73.207031 245.914062 L -20.734375 25.878906 Z M 62.726562 -9.753906 " clip-rule="nonzero"/></clipPath><clipPath id="a5f4dd0c3d"><path d="M 62.726562 -9.753906 L 156.667969 210.28125 L 73.207031 245.914062 L -20.734375 25.878906 Z M 62.726562 -9.753906 " clip-rule="nonzero"/></clipPath><clipPath id="67db82af0a"><path d="M 7 87 L 11 87 L 11 91 L 7 91 Z M 7 87 " clip-rule="nonzero"/></clipPath><clipPath id="9996b06646"><path d="M 62.726562 -9.753906 L 156.667969 210.28125 L 73.207031 245.914062 L -20.734375 25.878906 Z M 62.726562 -9.753906 " clip-rule="nonzero"/></clipPath><clipPath id="9c163266c8"><path d="M 62.726562 -9.753906 L 156.667969 210.28125 L 73.207031 245.914062 L -20.734375 25.878906 Z M 62.726562 -9.753906 " clip-rule="nonzero"/></clipPath><clipPath id="879c5c5ab0"><path d="M 33 83 L 36 83 L 36 87 L 33 87 Z M 33 83 " clip-rule="nonzero"/></clipPath><clipPath id="4cb2f4a3fd"><path d="M 62.726562 -9.753906 L 156.667969 210.28125 L 73.207031 245.914062 L -20.734375 25.878906 Z M 62.726562 -9.753906 " clip-rule="nonzero"/></clipPath><clipPath id="ee58d3df3a"><path d="M 62.726562 -9.753906 L 156.667969 210.28125 L 73.207031 245.914062 L -20.734375 25.878906 Z M 62.726562 -9.753906 " clip-rule="nonzero"/></clipPath><clipPath id="cc277effe2"><path d="M 6 81 L 8 81 L 8 86 L 6 86 Z M 6 81 " clip-rule="nonzero"/></clipPath><clipPath id="dac5468c74"><path d="M 62.726562 -9.753906 L 156.667969 210.28125 L 73.207031 245.914062 L -20.734375 25.878906 Z M 62.726562 -9.753906 " clip-rule="nonzero"/></clipPath><clipPath id="e80c6311f1"><path d="M 62.726562 -9.753906 L 156.667969 210.28125 L 73.207031 245.914062 L -20.734375 25.878906 Z M 62.726562 -9.753906 " clip-rule="nonzero"/></clipPath><clipPath id="a35262e4eb"><path d="M 41 86 L 44 86 L 44 90 L 41 90 Z M 41 86 " clip-rule="nonzero"/></clipPath><clipPath id="ae444bab3a"><path d="M 62.726562 -9.753906 L 156.667969 210.28125 L 73.207031 245.914062 L -20.734375 25.878906 Z M 62.726562 -9.753906 " clip-rule="nonzero"/></clipPath><clipPath id="d693a02136"><path d="M 62.726562 -9.753906 L 156.667969 210.28125 L 73.207031 245.914062 L -20.734375 25.878906 Z M 62.726562 -9.753906 " clip-rule="nonzero"/></clipPath><clipPath id="8eabf6f09f"><path d="M 38 81 L 41 81 L 41 85 L 38 85 Z M 38 81 " clip-rule="nonzero"/></clipPath><clipPath id="9b5b489e97"><path d="M 62.726562 -9.753906 L 156.667969 210.28125 L 73.207031 245.914062 L -20.734375 25.878906 Z M 62.726562 -9.753906 " clip-rule="nonzero"/></clipPath><clipPath id="938884af46"><path d="M 62.726562 -9.753906 L 156.667969 210.28125 L 73.207031 245.914062 L -20.734375 25.878906 Z M 62.726562 -9.753906 " clip-rule="nonzero"/></clipPath><clipPath id="142af048db"><path d="M 44 92 L 46 92 L 46 96 L 44 96 Z M 44 92 " clip-rule="nonzero"/></clipPath><clipPath id="625b4dc38f"><path d="M 62.726562 -9.753906 L 156.667969 210.28125 L 73.207031 245.914062 L -20.734375 25.878906 Z M 62.726562 -9.753906 " clip-rule="nonzero"/></clipPath><clipPath id="7e83772472"><path d="M 62.726562 -9.753906 L 156.667969 210.28125 L 73.207031 245.914062 L -20.734375 25.878906 Z M 62.726562 -9.753906 " clip-rule="nonzero"/></clipPath><clipPath id="0a20f4a14d"><path d="M 24 92 L 28 92 L 28 95 L 24 95 Z M 24 92 " clip-rule="nonzero"/></clipPath><clipPath id="d9402877c4"><path d="M 62.726562 -9.753906 L 156.667969 210.28125 L 73.207031 245.914062 L -20.734375 25.878906 Z M 62.726562 -9.753906 " clip-rule="nonzero"/></clipPath><clipPath id="3a6abf3ddf"><path d="M 62.726562 -9.753906 L 156.667969 210.28125 L 73.207031 245.914062 L -20.734375 25.878906 Z M 62.726562 -9.753906 " clip-rule="nonzero"/></clipPath><clipPath id="76b67594d5"><path d="M 29 88 L 33 88 L 33 92 L 29 92 Z M 29 88 " clip-rule="nonzero"/></clipPath><clipPath id="4161cc6909"><path d="M 62.726562 -9.753906 L 156.667969 210.28125 L 73.207031 245.914062 L -20.734375 25.878906 Z M 62.726562 -9.753906 " clip-rule="nonzero"/></clipPath><clipPath id="6d5a322dea"><path d="M 62.726562 -9.753906 L 156.667969 210.28125 L 73.207031 245.914062 L -20.734375 25.878906 Z M 62.726562 -9.753906 " clip-rule="nonzero"/></clipPath><clipPath id="919a7aba07"><path d="M 18 94 L 22 94 L 22 96 L 18 96 Z M 18 94 " clip-rule="nonzero"/></clipPath><clipPath id="9eb88d19bf"><path d="M 62.726562 -9.753906 L 156.667969 210.28125 L 73.207031 245.914062 L -20.734375 25.878906 Z M 62.726562 -9.753906 " clip-rule="nonzero"/></clipPath><clipPath id="04bdaaf791"><path d="M 62.726562 -9.753906 L 156.667969 210.28125 L 73.207031 245.914062 L -20.734375 25.878906 Z M 62.726562 -9.753906 " clip-rule="nonzero"/></clipPath><clipPath id="99cbc9deb9"><path d="M 12 35 L 16 35 L 16 38 L 12 38 Z M 12 35 " clip-rule="nonzero"/></clipPath><clipPath id="db50f0b0f5"><path d="M 62.726562 -9.753906 L 156.667969 210.28125 L 73.207031 245.914062 L -20.734375 25.878906 Z M 62.726562 -9.753906 " clip-rule="nonzero"/></clipPath><clipPath id="6a12f154c2"><path d="M 62.726562 -9.753906 L 156.667969 210.28125 L 73.207031 245.914062 L -20.734375 25.878906 Z M 62.726562 -9.753906 " clip-rule="nonzero"/></clipPath><clipPath id="9dffc965bd"><path d="M 45 98 L 48 98 L 48 102 L 45 102 Z M 45 98 " clip-rule="nonzero"/></clipPath><clipPath id="b95245b546"><path d="M 62.726562 -9.753906 L 156.667969 210.28125 L 73.207031 245.914062 L -20.734375 25.878906 Z M 62.726562 -9.753906 " clip-rule="nonzero"/></clipPath><clipPath id="c31db45d1e"><path d="M 62.726562 -9.753906 L 156.667969 210.28125 L 73.207031 245.914062 L -20.734375 25.878906 Z M 62.726562 -9.753906 " clip-rule="nonzero"/></clipPath><clipPath id="c70e73b43f"><path d="M 23 70 L 27 70 L 27 73 L 23 73 Z M 23 70 " clip-rule="nonzero"/></clipPath><clipPath id="bc6669087a"><path d="M 62.726562 -9.753906 L 156.667969 210.28125 L 73.207031 245.914062 L -20.734375 25.878906 Z M 62.726562 -9.753906 " clip-rule="nonzero"/></clipPath><clipPath id="59d6d189ba"><path d="M 62.726562 -9.753906 L 156.667969 210.28125 L 73.207031 245.914062 L -20.734375 25.878906 Z M 62.726562 -9.753906 " clip-rule="nonzero"/></clipPath><clipPath id="b19025fd40"><path d="M 7 31 L 11 31 L 11 34 L 7 34 Z M 7 31 " clip-rule="nonzero"/></clipPath><clipPath id="a1887475f3"><path d="M 62.726562 -9.753906 L 156.667969 210.28125 L 73.207031 245.914062 L -20.734375 25.878906 Z M 62.726562 -9.753906 " clip-rule="nonzero"/></clipPath><clipPath id="aaa0a1349f"><path d="M 62.726562 -9.753906 L 156.667969 210.28125 L 73.207031 245.914062 L -20.734375 25.878906 Z M 62.726562 -9.753906 " clip-rule="nonzero"/></clipPath><clipPath id="a20bc426fd"><path d="M 0 25 L 5 25 L 5 31 L 0 31 Z M 0 25 " clip-rule="nonzero"/></clipPath><clipPath id="cf22a51b2c"><path d="M 62.726562 -9.753906 L 156.667969 210.28125 L 73.207031 245.914062 L -20.734375 25.878906 Z M 62.726562 -9.753906 " clip-rule="nonzero"/></clipPath><clipPath id="f0014af103"><path d="M 62.726562 -9.753906 L 156.667969 210.28125 L 73.207031 245.914062 L -20.734375 25.878906 Z M 62.726562 -9.753906 " clip-rule="nonzero"/></clipPath><clipPath id="b13f269d50"><path d="M 34 121 L 38 121 L 38 123 L 34 123 Z M 34 121 " clip-rule="nonzero"/></clipPath><clipPath id="ffa2c2cb6f"><path d="M 62.726562 -9.753906 L 156.667969 210.28125 L 73.207031 245.914062 L -20.734375 25.878906 Z M 62.726562 -9.753906 " clip-rule="nonzero"/></clipPath><clipPath id="22a12a9633"><path d="M 62.726562 -9.753906 L 156.667969 210.28125 L 73.207031 245.914062 L -20.734375 25.878906 Z M 62.726562 -9.753906 " clip-rule="nonzero"/></clipPath><clipPath id="db4156625e"><path d="M 21 43 L 25 43 L 25 47 L 21 47 Z M 21 43 " clip-rule="nonzero"/></clipPath><clipPath id="a89e21590d"><path d="M 62.726562 -9.753906 L 156.667969 210.28125 L 73.207031 245.914062 L -20.734375 25.878906 Z M 62.726562 -9.753906 " clip-rule="nonzero"/></clipPath><clipPath id="41329af709"><path d="M 62.726562 -9.753906 L 156.667969 210.28125 L 73.207031 245.914062 L -20.734375 25.878906 Z M 62.726562 -9.753906 " clip-rule="nonzero"/></clipPath><clipPath id="aeedf1cc6b"><path d="M 34 64 L 37 64 L 37 69 L 34 69 Z M 34 64 " clip-rule="nonzero"/></clipPath><clipPath id="4bb2356230"><path d="M 62.726562 -9.753906 L 156.667969 210.28125 L 73.207031 245.914062 L -20.734375 25.878906 Z M 62.726562 -9.753906 " clip-rule="nonzero"/></clipPath><clipPath id="948bcfbf0b"><path d="M 62.726562 -9.753906 L 156.667969 210.28125 L 73.207031 245.914062 L -20.734375 25.878906 Z M 62.726562 -9.753906 " clip-rule="nonzero"/></clipPath><clipPath id="de4a8d05c3"><path d="M 17 39 L 20 39 L 20 42 L 17 42 Z M 17 39 " clip-rule="nonzero"/></clipPath><clipPath id="5133d8867f"><path d="M 62.726562 -9.753906 L 156.667969 210.28125 L 73.207031 245.914062 L -20.734375 25.878906 Z M 62.726562 -9.753906 " clip-rule="nonzero"/></clipPath><clipPath id="b38a3f8acf"><path d="M 62.726562 -9.753906 L 156.667969 210.28125 L 73.207031 245.914062 L -20.734375 25.878906 Z M 62.726562 -9.753906 " clip-rule="nonzero"/></clipPath><clipPath id="1882892430"><path d="M 17 70 L 21 70 L 21 72 L 17 72 Z M 17 70 " clip-rule="nonzero"/></clipPath><clipPath id="e1838d47e0"><path d="M 62.726562 -9.753906 L 156.667969 210.28125 L 73.207031 245.914062 L -20.734375 25.878906 Z M 62.726562 -9.753906 " clip-rule="nonzero"/></clipPath><clipPath id="18927a4a68"><path d="M 62.726562 -9.753906 L 156.667969 210.28125 L 73.207031 245.914062 L -20.734375 25.878906 Z M 62.726562 -9.753906 " clip-rule="nonzero"/></clipPath><clipPath id="6f04faba2a"><path d="M 7 76 L 10 76 L 10 79 L 7 79 Z M 7 76 " clip-rule="nonzero"/></clipPath><clipPath id="b2b630fe82"><path d="M 62.726562 -9.753906 L 156.667969 210.28125 L 73.207031 245.914062 L -20.734375 25.878906 Z M 62.726562 -9.753906 " clip-rule="nonzero"/></clipPath><clipPath id="2666121197"><path d="M 62.726562 -9.753906 L 156.667969 210.28125 L 73.207031 245.914062 L -20.734375 25.878906 Z M 62.726562 -9.753906 " clip-rule="nonzero"/></clipPath><clipPath id="457c2f289c"><path d="M 11 72 L 15 72 L 15 75 L 11 75 Z M 11 72 " clip-rule="nonzero"/></clipPath><clipPath id="510b3a1aa9"><path d="M 62.726562 -9.753906 L 156.667969 210.28125 L 73.207031 245.914062 L -20.734375 25.878906 Z M 62.726562 -9.753906 " clip-rule="nonzero"/></clipPath><clipPath id="96678631d1"><path d="M 62.726562 -9.753906 L 156.667969 210.28125 L 73.207031 245.914062 L -20.734375 25.878906 Z M 62.726562 -9.753906 " clip-rule="nonzero"/></clipPath><clipPath id="d67e2b60d1"><path d="M 29 53 L 32 53 L 32 57 L 29 57 Z M 29 53 " clip-rule="nonzero"/></clipPath><clipPath id="54e8869dc0"><path d="M 62.726562 -9.753906 L 156.667969 210.28125 L 73.207031 245.914062 L -20.734375 25.878906 Z M 62.726562 -9.753906 " clip-rule="nonzero"/></clipPath><clipPath id="4b6360870a"><path d="M 62.726562 -9.753906 L 156.667969 210.28125 L 73.207031 245.914062 L -20.734375 25.878906 Z M 62.726562 -9.753906 " clip-rule="nonzero"/></clipPath><clipPath id="586cad9e7e"><path d="M 25 48 L 29 48 L 29 52 L 25 52 Z M 25 48 " clip-rule="nonzero"/></clipPath><clipPath id="8cd55ccd27"><path d="M 62.726562 -9.753906 L 156.667969 210.28125 L 73.207031 245.914062 L -20.734375 25.878906 Z M 62.726562 -9.753906 " clip-rule="nonzero"/></clipPath><clipPath id="ca1b5f00b1"><path d="M 62.726562 -9.753906 L 156.667969 210.28125 L 73.207031 245.914062 L -20.734375 25.878906 Z M 62.726562 -9.753906 " clip-rule="nonzero"/></clipPath><clipPath id="6b5cc5d5a8"><path d="M 32 59 L 35 59 L 35 63 L 32 63 Z M 32 59 " clip-rule="nonzero"/></clipPath><clipPath id="c1f3824a5d"><path d="M 62.726562 -9.753906 L 156.667969 210.28125 L 73.207031 245.914062 L -20.734375 25.878906 Z M 62.726562 -9.753906 " clip-rule="nonzero"/></clipPath><clipPath id="2d239285ca"><path d="M 62.726562 -9.753906 L 156.667969 210.28125 L 73.207031 245.914062 L -20.734375 25.878906 Z M 62.726562 -9.753906 " clip-rule="nonzero"/></clipPath><clipPath id="6582a9c44e"><path d="M 24 125 L 27 125 L 27 129 L 24 129 Z M 24 125 " clip-rule="nonzero"/></clipPath><clipPath id="8164b5f34e"><path d="M 62.726562 -9.753906 L 156.667969 210.28125 L 73.207031 245.914062 L -20.734375 25.878906 Z M 62.726562 -9.753906 " clip-rule="nonzero"/></clipPath><clipPath id="d08da2f315"><path d="M 62.726562 -9.753906 L 156.667969 210.28125 L 73.207031 245.914062 L -20.734375 25.878906 Z M 62.726562 -9.753906 " clip-rule="nonzero"/></clipPath><clipPath id="17396b218a"><path d="M 73 165 L 76 165 L 76 169 L 73 169 Z M 73 165 " clip-rule="nonzero"/></clipPath><clipPath id="018a35bd81"><path d="M 62.726562 -9.753906 L 156.667969 210.28125 L 73.207031 245.914062 L -20.734375 25.878906 Z M 62.726562 -9.753906 " clip-rule="nonzero"/></clipPath><clipPath id="a15afae2fd"><path d="M 62.726562 -9.753906 L 156.667969 210.28125 L 73.207031 245.914062 L -20.734375 25.878906 Z M 62.726562 -9.753906 " clip-rule="nonzero"/></clipPath><clipPath id="dfe54254f3"><path d="M 76 171 L 79 171 L 79 174 L 76 174 Z M 76 171 " clip-rule="nonzero"/></clipPath><clipPath id="244587821e"><path d="M 62.726562 -9.753906 L 156.667969 210.28125 L 73.207031 245.914062 L -20.734375 25.878906 Z M 62.726562 -9.753906 " clip-rule="nonzero"/></clipPath><clipPath id="8c4d06a77b"><path d="M 62.726562 -9.753906 L 156.667969 210.28125 L 73.207031 245.914062 L -20.734375 25.878906 Z M 62.726562 -9.753906 " clip-rule="nonzero"/></clipPath><clipPath id="df022e73fe"><path d="M 84 181 L 87 181 L 87 184 L 84 184 Z M 84 181 " clip-rule="nonzero"/></clipPath><clipPath id="28270d5f0f"><path d="M 62.726562 -9.753906 L 156.667969 210.28125 L 73.207031 245.914062 L -20.734375 25.878906 Z M 62.726562 -9.753906 " clip-rule="nonzero"/></clipPath><clipPath id="b31b308b7a"><path d="M 62.726562 -9.753906 L 156.667969 210.28125 L 73.207031 245.914062 L -20.734375 25.878906 Z M 62.726562 -9.753906 " clip-rule="nonzero"/></clipPath><clipPath id="3aa50dab60"><path d="M 80 176 L 83 176 L 83 180 L 80 180 Z M 80 176 " clip-rule="nonzero"/></clipPath><clipPath id="d0fdd85c59"><path d="M 62.726562 -9.753906 L 156.667969 210.28125 L 73.207031 245.914062 L -20.734375 25.878906 Z M 62.726562 -9.753906 " clip-rule="nonzero"/></clipPath><clipPath id="6028f7669e"><path d="M 62.726562 -9.753906 L 156.667969 210.28125 L 73.207031 245.914062 L -20.734375 25.878906 Z M 62.726562 -9.753906 " clip-rule="nonzero"/></clipPath><clipPath id="3a198e145c"><path d="M 65 148 L 68 148 L 68 152 L 65 152 Z M 65 148 " clip-rule="nonzero"/></clipPath><clipPath id="fcfb8c114b"><path d="M 62.726562 -9.753906 L 156.667969 210.28125 L 73.207031 245.914062 L -20.734375 25.878906 Z M 62.726562 -9.753906 " clip-rule="nonzero"/></clipPath><clipPath id="4f12d9b039"><path d="M 62.726562 -9.753906 L 156.667969 210.28125 L 73.207031 245.914062 L -20.734375 25.878906 Z M 62.726562 -9.753906 " clip-rule="nonzero"/></clipPath><clipPath id="355f33970c"><path d="M 70 160 L 73 160 L 73 163 L 70 163 Z M 70 160 " clip-rule="nonzero"/></clipPath><clipPath id="f3983280e0"><path d="M 62.726562 -9.753906 L 156.667969 210.28125 L 73.207031 245.914062 L -20.734375 25.878906 Z M 62.726562 -9.753906 " clip-rule="nonzero"/></clipPath><clipPath id="3462d026e0"><path d="M 62.726562 -9.753906 L 156.667969 210.28125 L 73.207031 245.914062 L -20.734375 25.878906 Z M 62.726562 -9.753906 " clip-rule="nonzero"/></clipPath><clipPath id="8d0863cb12"><path d="M 62 142 L 65 142 L 65 146 L 62 146 Z M 62 142 " clip-rule="nonzero"/></clipPath><clipPath id="6f9b457a2c"><path d="M 62.726562 -9.753906 L 156.667969 210.28125 L 73.207031 245.914062 L -20.734375 25.878906 Z M 62.726562 -9.753906 " clip-rule="nonzero"/></clipPath><clipPath id="e2c6db7372"><path d="M 62.726562 -9.753906 L 156.667969 210.28125 L 73.207031 245.914062 L -20.734375 25.878906 Z M 62.726562 -9.753906 " clip-rule="nonzero"/></clipPath><clipPath id="d859fddc1c"><path d="M 68 154 L 71 154 L 71 158 L 68 158 Z M 68 154 " clip-rule="nonzero"/></clipPath><clipPath id="1df64c0378"><path d="M 62.726562 -9.753906 L 156.667969 210.28125 L 73.207031 245.914062 L -20.734375 25.878906 Z M 62.726562 -9.753906 " clip-rule="nonzero"/></clipPath><clipPath id="5f30a141e8"><path d="M 62.726562 -9.753906 L 156.667969 210.28125 L 73.207031 245.914062 L -20.734375 25.878906 Z M 62.726562 -9.753906 " clip-rule="nonzero"/></clipPath><clipPath id="358ee9acec"><path d="M 46 105 L 48 105 L 48 109 L 46 109 Z M 46 105 " clip-rule="nonzero"/></clipPath><clipPath id="2d64959a5f"><path d="M 62.726562 -9.753906 L 156.667969 210.28125 L 73.207031 245.914062 L -20.734375 25.878906 Z M 62.726562 -9.753906 " clip-rule="nonzero"/></clipPath><clipPath id="8c841200e3"><path d="M 62.726562 -9.753906 L 156.667969 210.28125 L 73.207031 245.914062 L -20.734375 25.878906 Z M 62.726562 -9.753906 " clip-rule="nonzero"/></clipPath><clipPath id="e630f789b1"><path d="M 88 185 L 92 185 L 92 189 L 88 189 Z M 88 185 " clip-rule="nonzero"/></clipPath><clipPath id="b681cd79cb"><path d="M 62.726562 -9.753906 L 156.667969 210.28125 L 73.207031 245.914062 L -20.734375 25.878906 Z M 62.726562 -9.753906 " clip-rule="nonzero"/></clipPath><clipPath id="12b1cbf450"><path d="M 62.726562 -9.753906 L 156.667969 210.28125 L 73.207031 245.914062 L -20.734375 25.878906 Z M 62.726562 -9.753906 " clip-rule="nonzero"/></clipPath><clipPath id="f6843cab2b"><path d="M 114 202 L 118 202 L 118 205 L 114 205 Z M 114 202 " clip-rule="nonzero"/></clipPath><clipPath id="df779489f8"><path d="M 62.726562 -9.753906 L 156.667969 210.28125 L 73.207031 245.914062 L -20.734375 25.878906 Z M 62.726562 -9.753906 " clip-rule="nonzero"/></clipPath><clipPath id="450750659a"><path d="M 62.726562 -9.753906 L 156.667969 210.28125 L 73.207031 245.914062 L -20.734375 25.878906 Z M 62.726562 -9.753906 " clip-rule="nonzero"/></clipPath><clipPath id="04a31b333a"><path d="M 103 197 L 107 197 L 107 200 L 103 200 Z M 103 197 " clip-rule="nonzero"/></clipPath><clipPath id="13442a4585"><path d="M 62.726562 -9.753906 L 156.667969 210.28125 L 73.207031 245.914062 L -20.734375 25.878906 Z M 62.726562 -9.753906 " clip-rule="nonzero"/></clipPath><clipPath id="566a0e25cf"><path d="M 62.726562 -9.753906 L 156.667969 210.28125 L 73.207031 245.914062 L -20.734375 25.878906 Z M 62.726562 -9.753906 " clip-rule="nonzero"/></clipPath><clipPath id="704613e3dd"><path d="M 98 193 L 101 193 L 101 197 L 98 197 Z M 98 193 " clip-rule="nonzero"/></clipPath><clipPath id="fee1eab3bd"><path d="M 62.726562 -9.753906 L 156.667969 210.28125 L 73.207031 245.914062 L -20.734375 25.878906 Z M 62.726562 -9.753906 " clip-rule="nonzero"/></clipPath><clipPath id="1c88250e52"><path d="M 62.726562 -9.753906 L 156.667969 210.28125 L 73.207031 245.914062 L -20.734375 25.878906 Z M 62.726562 -9.753906 " clip-rule="nonzero"/></clipPath><clipPath id="cb0fea590a"><path d="M 93 190 L 96 190 L 96 193 L 93 193 Z M 93 190 " clip-rule="nonzero"/></clipPath><clipPath id="3500a95967"><path d="M 62.726562 -9.753906 L 156.667969 210.28125 L 73.207031 245.914062 L -20.734375 25.878906 Z M 62.726562 -9.753906 " clip-rule="nonzero"/></clipPath><clipPath id="9cd9233beb"><path d="M 62.726562 -9.753906 L 156.667969 210.28125 L 73.207031 245.914062 L -20.734375 25.878906 Z M 62.726562 -9.753906 " clip-rule="nonzero"/></clipPath><clipPath id="607580c97d"><path d="M 108 200 L 112 200 L 112 203 L 108 203 Z M 108 200 " clip-rule="nonzero"/></clipPath><clipPath id="0b77dcaf12"><path d="M 62.726562 -9.753906 L 156.667969 210.28125 L 73.207031 245.914062 L -20.734375 25.878906 Z M 62.726562 -9.753906 " clip-rule="nonzero"/></clipPath><clipPath id="5e36e5f306"><path d="M 62.726562 -9.753906 L 156.667969 210.28125 L 73.207031 245.914062 L -20.734375 25.878906 Z M 62.726562 -9.753906 " clip-rule="nonzero"/></clipPath><clipPath id="3db94c6f7a"><path d="M 45 117 L 47 117 L 47 121 L 45 121 Z M 45 117 " clip-rule="nonzero"/></clipPath><clipPath id="c232b59ea9"><path d="M 62.726562 -9.753906 L 156.667969 210.28125 L 73.207031 245.914062 L -20.734375 25.878906 Z M 62.726562 -9.753906 " clip-rule="nonzero"/></clipPath><clipPath id="788314a840"><path d="M 62.726562 -9.753906 L 156.667969 210.28125 L 73.207031 245.914062 L -20.734375 25.878906 Z M 62.726562 -9.753906 " clip-rule="nonzero"/></clipPath><clipPath id="8ebb035c7d"><path d="M 40 121 L 44 121 L 44 124 L 40 124 Z M 40 121 " clip-rule="nonzero"/></clipPath><clipPath id="d1ecd31eda"><path d="M 62.726562 -9.753906 L 156.667969 210.28125 L 73.207031 245.914062 L -20.734375 25.878906 Z M 62.726562 -9.753906 " clip-rule="nonzero"/></clipPath><clipPath id="0667b3c905"><path d="M 62.726562 -9.753906 L 156.667969 210.28125 L 73.207031 245.914062 L -20.734375 25.878906 Z M 62.726562 -9.753906 " clip-rule="nonzero"/></clipPath><clipPath id="95e8c6cb7c"><path d="M 24 131 L 27 131 L 27 135 L 24 135 Z M 24 131 " clip-rule="nonzero"/></clipPath><clipPath id="33594a500a"><path d="M 62.726562 -9.753906 L 156.667969 210.28125 L 73.207031 245.914062 L -20.734375 25.878906 Z M 62.726562 -9.753906 " clip-rule="nonzero"/></clipPath><clipPath id="e8483c7129"><path d="M 62.726562 -9.753906 L 156.667969 210.28125 L 73.207031 245.914062 L -20.734375 25.878906 Z M 62.726562 -9.753906 " clip-rule="nonzero"/></clipPath><clipPath id="4743366c0b"><path d="M 28 121 L 32 121 L 32 124 L 28 124 Z M 28 121 " clip-rule="nonzero"/></clipPath><clipPath id="64a23a358c"><path d="M 62.726562 -9.753906 L 156.667969 210.28125 L 73.207031 245.914062 L -20.734375 25.878906 Z M 62.726562 -9.753906 " clip-rule="nonzero"/></clipPath><clipPath id="2ba4c9431d"><path d="M 62.726562 -9.753906 L 156.667969 210.28125 L 73.207031 245.914062 L -20.734375 25.878906 Z M 62.726562 -9.753906 " clip-rule="nonzero"/></clipPath><clipPath id="3c006b5a77"><path d="M 43 123 L 46 123 L 46 127 L 43 127 Z M 43 123 " clip-rule="nonzero"/></clipPath><clipPath id="3c5f25cbb2"><path d="M 62.726562 -9.753906 L 156.667969 210.28125 L 73.207031 245.914062 L -20.734375 25.878906 Z M 62.726562 -9.753906 " clip-rule="nonzero"/></clipPath><clipPath id="48da539266"><path d="M 62.726562 -9.753906 L 156.667969 210.28125 L 73.207031 245.914062 L -20.734375 25.878906 Z M 62.726562 -9.753906 " clip-rule="nonzero"/></clipPath><clipPath id="750340d0ae"><path d="M 46 111 L 48 111 L 48 115 L 46 115 Z M 46 111 " clip-rule="nonzero"/></clipPath><clipPath id="b59d0280f0"><path d="M 62.726562 -9.753906 L 156.667969 210.28125 L 73.207031 245.914062 L -20.734375 25.878906 Z M 62.726562 -9.753906 " clip-rule="nonzero"/></clipPath><clipPath id="3340ebfd32"><path d="M 62.726562 -9.753906 L 156.667969 210.28125 L 73.207031 245.914062 L -20.734375 25.878906 Z M 62.726562 -9.753906 " clip-rule="nonzero"/></clipPath><clipPath id="c4165b88cc"><path d="M 55 132 L 59 132 L 59 136 L 55 136 Z M 55 132 " clip-rule="nonzero"/></clipPath><clipPath id="f6c46acfa1"><path d="M 62.726562 -9.753906 L 156.667969 210.28125 L 73.207031 245.914062 L -20.734375 25.878906 Z M 62.726562 -9.753906 " clip-rule="nonzero"/></clipPath><clipPath id="5f2cfb83ba"><path d="M 62.726562 -9.753906 L 156.667969 210.28125 L 73.207031 245.914062 L -20.734375 25.878906 Z M 62.726562 -9.753906 " clip-rule="nonzero"/></clipPath><clipPath id="22304f6b6e"><path d="M 35 133 L 39 133 L 39 136 L 35 136 Z M 35 133 " clip-rule="nonzero"/></clipPath><clipPath id="7c4967142b"><path d="M 62.726562 -9.753906 L 156.667969 210.28125 L 73.207031 245.914062 L -20.734375 25.878906 Z M 62.726562 -9.753906 " clip-rule="nonzero"/></clipPath><clipPath id="e55f056f56"><path d="M 62.726562 -9.753906 L 156.667969 210.28125 L 73.207031 245.914062 L -20.734375 25.878906 Z M 62.726562 -9.753906 " clip-rule="nonzero"/></clipPath><clipPath id="8f6c51a237"><path d="M 51 128 L 55 128 L 55 131 L 51 131 Z M 51 128 " clip-rule="nonzero"/></clipPath><clipPath id="49d7efd6c7"><path d="M 62.726562 -9.753906 L 156.667969 210.28125 L 73.207031 245.914062 L -20.734375 25.878906 Z M 62.726562 -9.753906 " clip-rule="nonzero"/></clipPath><clipPath id="28cc28cd41"><path d="M 62.726562 -9.753906 L 156.667969 210.28125 L 73.207031 245.914062 L -20.734375 25.878906 Z M 62.726562 -9.753906 " clip-rule="nonzero"/></clipPath><clipPath id="43fea56a9f"><path d="M 59 137 L 62 137 L 62 141 L 59 141 Z M 59 137 " clip-rule="nonzero"/></clipPath><clipPath id="ae3d117223"><path d="M 62.726562 -9.753906 L 156.667969 210.28125 L 73.207031 245.914062 L -20.734375 25.878906 Z M 62.726562 -9.753906 " clip-rule="nonzero"/></clipPath><clipPath id="6785d99347"><path d="M 62.726562 -9.753906 L 156.667969 210.28125 L 73.207031 245.914062 L -20.734375 25.878906 Z M 62.726562 -9.753906 " clip-rule="nonzero"/></clipPath><clipPath id="db963d8302"><path d="M 40 129 L 43 129 L 43 132 L 40 132 Z M 40 129 " clip-rule="nonzero"/></clipPath><clipPath id="b3f433b95c"><path d="M 62.726562 -9.753906 L 156.667969 210.28125 L 73.207031 245.914062 L -20.734375 25.878906 Z M 62.726562 -9.753906 " clip-rule="nonzero"/></clipPath><clipPath id="5d05cec835"><path d="M 62.726562 -9.753906 L 156.667969 210.28125 L 73.207031 245.914062 L -20.734375 25.878906 Z M 62.726562 -9.753906 " clip-rule="nonzero"/></clipPath><clipPath id="5c264ae627"><path d="M 29 135 L 33 135 L 33 137 L 29 137 Z M 29 135 " clip-rule="nonzero"/></clipPath><clipPath id="d50715dea5"><path d="M 62.726562 -9.753906 L 156.667969 210.28125 L 73.207031 245.914062 L -20.734375 25.878906 Z M 62.726562 -9.753906 " clip-rule="nonzero"/></clipPath><clipPath id="72c10f0107"><path d="M 62.726562 -9.753906 L 156.667969 210.28125 L 73.207031 245.914062 L -20.734375 25.878906 Z M 62.726562 -9.753906 " clip-rule="nonzero"/></clipPath><clipPath id="ddfc3b351f"><path d="M 46 124 L 50 124 L 50 127 L 46 127 Z M 46 124 " clip-rule="nonzero"/></clipPath><clipPath id="944d05ffcf"><path d="M 62.726562 -9.753906 L 156.667969 210.28125 L 73.207031 245.914062 L -20.734375 25.878906 Z M 62.726562 -9.753906 " clip-rule="nonzero"/></clipPath><clipPath id="61858de3fe"><path d="M 62.726562 -9.753906 L 156.667969 210.28125 L 73.207031 245.914062 L -20.734375 25.878906 Z M 62.726562 -9.753906 " clip-rule="nonzero"/></clipPath><clipPath id="10abbf148f"><path d="M 5 9 L 30 9 L 30 30 L 5 30 Z M 5 9 " clip-rule="nonzero"/></clipPath><clipPath id="9e16324351"><path d="M 62.726562 -9.753906 L 156.667969 210.28125 L 73.207031 245.914062 L -20.734375 25.878906 Z M 62.726562 -9.753906 " clip-rule="nonzero"/></clipPath><clipPath id="8c020aa974"><path d="M 62.726562 -9.753906 L 156.667969 210.28125 L 73.207031 245.914062 L -20.734375 25.878906 Z M 62.726562 -9.753906 " clip-rule="nonzero"/></clipPath><clipPath id="1ae433d685"><path d="M 119 191 L 154 191 L 154 221 L 119 221 Z M 119 191 " clip-rule="nonzero"/></clipPath><clipPath id="8745618bc0"><path d="M 62.726562 -9.753906 L 156.667969 210.28125 L 73.207031 245.914062 L -20.734375 25.878906 Z M 62.726562 -9.753906 " clip-rule="nonzero"/></clipPath><clipPath id="b0c415b2d3"><path d="M 62.726562 -9.753906 L 156.667969 210.28125 L 73.207031 245.914062 L -20.734375 25.878906 Z M 62.726562 -9.753906 " clip-rule="nonzero"/></clipPath></defs><g clip-path="url(#12094b3490)"><path fill="#145da0" d="M 147.230469 260.144531 C 145.953125 258.566406 144.066406 257.65625 142.03125 257.828125 C 139.824219 258.027344 137.984375 259.503906 136.585938 261.378906 C 136.441406 261.476562 136.316406 261.574219 136.195312 261.722656 C 134.921875 263.203125 133.644531 265.566406 131.5625 266.011719 C 129.84375 266.378906 129.671875 263.523438 129.625 262.386719 C 129.527344 260.6875 127.464844 260.046875 126.289062 261.277344 C 123.394531 264.335938 121.1875 267.910156 119.59375 271.777344 C 119.621094 271.507812 119.667969 271.234375 119.695312 270.964844 C 120.429688 265.960938 122 260.8125 124.648438 256.496094 C 125.972656 254.351562 122.613281 252.703125 121.335938 254.746094 C 118.273438 259.554688 115.964844 264.632812 115.035156 270.324219 C 114.152344 275.746094 113.90625 282.128906 116.359375 287.207031 C 117.191406 288.957031 120.011719 287.921875 119.964844 286.148438 C 119.964844 286.097656 119.964844 286.046875 119.964844 286 C 119.964844 285.976562 119.964844 285.976562 119.964844 285.949219 C 120.820312 279.269531 122.488281 272.589844 126.3125 267.070312 C 127 268.773438 128.324219 270.078125 130.605469 270.152344 C 131.511719 270.175781 132.394531 270.003906 133.230469 269.660156 C 132.6875 272.839844 132.886719 276.238281 134.257812 279.121094 C 135.460938 281.636719 138.351562 281.21875 140.191406 279.640625 C 141.835938 278.234375 143.234375 276.4375 144.410156 274.660156 C 144.457031 274.589844 144.507812 274.515625 144.554688 274.441406 C 144.457031 275.5 144.386719 276.558594 144.335938 277.644531 C 144.261719 279.269531 144.1875 280.972656 144.753906 282.523438 C 145.339844 284.175781 147.964844 283.511719 148.40625 282.007812 C 149.339844 278.777344 149.09375 275.105469 149.410156 271.753906 C 149.753906 268.105469 150.390625 264.53125 150.90625 260.910156 C 151.152344 258.839844 148.527344 259.0625 147.230469 260.144531 Z M 142.667969 270.152344 C 141.933594 271.53125 141.074219 272.863281 140.144531 274.09375 C 139.703125 274.6875 139.261719 275.253906 138.746094 275.796875 C 138.597656 275.96875 138.453125 276.117188 138.304688 276.265625 C 138.082031 275.625 137.984375 274.785156 137.910156 274.441406 C 137.667969 273.28125 137.542969 272.097656 137.59375 270.914062 C 137.667969 268.574219 138.207031 266.308594 139.210938 264.1875 C 139.628906 263.300781 140.214844 262.363281 140.902344 261.625 C 141.566406 260.910156 142.421875 261.007812 143.28125 261.597656 C 144.410156 262.363281 144.875 263.546875 145.242188 264.777344 C 144.433594 266.628906 143.574219 268.425781 142.667969 270.152344 Z M 203.332031 257.457031 C 205.195312 254.351562 206.714844 251.027344 207.816406 247.550781 C 208.996094 243.902344 209.902344 239.960938 209.777344 236.113281 C 209.730469 234.464844 209.730469 232.195312 208.40625 230.988281 C 207.007812 229.707031 205.046875 230.175781 203.699219 231.257812 C 201.097656 233.378906 199.503906 237.101562 198.402344 240.207031 C 197.199219 243.632812 196.488281 247.230469 195.828125 250.78125 C 195.410156 252.972656 195.042969 255.191406 194.699219 257.410156 C 194.355469 257.679688 194.085938 258.050781 193.890625 258.519531 C 191.804688 263.300781 190.605469 268.699219 187.390625 272.9375 C 186.828125 273.652344 186.191406 274.390625 185.457031 274.933594 C 185.085938 275.203125 184.644531 275.476562 184.230469 275.671875 C 184.035156 275.769531 183.175781 275.992188 183.46875 275.945312 C 182.488281 276.066406 181.410156 275.84375 180.648438 274.835938 C 179.988281 273.972656 179.765625 272.738281 179.523438 271.703125 C 179.253906 270.621094 179.054688 269.511719 178.980469 268.402344 C 179.71875 268.746094 180.550781 268.917969 181.53125 268.871094 C 184.082031 268.773438 186.511719 267.242188 187.6875 264.953125 C 188.886719 262.585938 189.035156 259.480469 187.808594 257.089844 C 186.511719 254.550781 183.789062 252.925781 180.96875 253.984375 C 178.074219 255.066406 175.992188 257.902344 175.035156 260.761719 C 174.421875 262.609375 174.078125 264.53125 174.003906 266.453125 C 173.417969 266.949219 172.753906 267.316406 172.019531 267.269531 C 170.890625 267.167969 170.695312 266.109375 170.5 265.148438 C 169.761719 261.847656 169.664062 258.394531 169.859375 255.042969 C 169.933594 253.738281 168.683594 252.703125 167.457031 252.726562 C 166.085938 252.75 165.175781 253.859375 165.054688 255.167969 C 164.835938 257.457031 164.808594 259.777344 164.394531 262.019531 C 163.953125 264.382812 163.414062 266.726562 162.773438 269.042969 C 162.039062 271.703125 161.230469 274.441406 159.90625 276.90625 C 159.855469 276.707031 159.808594 276.535156 159.785156 276.339844 C 159.316406 274.441406 158.972656 272.492188 158.753906 270.546875 C 158.261719 266.554688 158.140625 262.535156 157.453125 258.566406 C 157.28125 257.632812 156.203125 257.089844 155.34375 257.238281 C 154.363281 257.410156 153.726562 258.171875 153.652344 259.160156 C 153.308594 263.742188 153.578125 268.351562 154.21875 272.886719 C 154.511719 275.03125 155.003906 277.125 155.46875 279.222656 C 155.859375 281.144531 156.375 282.871094 158.191406 283.90625 C 159.070312 284.421875 160.421875 284.199219 161.105469 283.410156 C 164.296875 279.765625 165.71875 275.054688 166.84375 270.421875 C 166.917969 270.175781 166.96875 269.90625 167.015625 269.660156 C 168.339844 271.410156 170.449219 272.171875 172.632812 271.777344 C 173.246094 271.65625 173.785156 271.457031 174.324219 271.1875 C 174.371094 271.484375 174.421875 271.777344 174.46875 272.074219 C 175.082031 275.203125 176.113281 278.507812 179.226562 279.960938 C 181.800781 281.144531 184.5 280.773438 186.925781 279.445312 C 190.089844 277.695312 192.222656 274.515625 193.792969 271.335938 C 193.816406 271.308594 193.816406 271.261719 193.839844 271.234375 C 193.890625 272.199219 193.964844 273.132812 194.0625 274.09375 C 194.429688 277.324219 195.140625 280.503906 196.757812 283.363281 C 198.328125 286.121094 200.609375 288.660156 204.042969 287.871094 C 205.367188 287.578125 206.371094 285.0625 204.679688 284.519531 C 203.402344 284.125 202.054688 282.277344 201.296875 280.972656 C 200.878906 280.28125 200.511719 279.566406 200.214844 278.828125 C 200.265625 278.949219 199.972656 278.039062 199.972656 278.039062 C 199.726562 277.175781 199.53125 276.3125 199.359375 275.425781 C 198.550781 271.335938 198.574219 267.121094 198.941406 262.953125 C 200.855469 261.722656 202.226562 259.257812 203.332031 257.457031 Z M 203.453125 239.664062 C 203.871094 238.457031 204.382812 237.273438 204.972656 236.164062 C 205.195312 235.769531 205.390625 235.351562 205.609375 234.980469 C 205.636719 235.105469 205.660156 235.203125 205.683594 235.277344 C 205.707031 235.597656 205.734375 235.894531 205.757812 236.214844 C 205.78125 237.003906 205.757812 237.789062 205.707031 238.554688 C 205.585938 240.253906 205.292969 241.929688 204.875 243.582031 C 204.089844 246.738281 203.011719 249.84375 201.589844 252.75 C 201.050781 253.859375 200.460938 254.921875 199.824219 255.980469 C 200.65625 250.460938 201.613281 244.890625 203.453125 239.664062 Z M 180.207031 260.589844 C 180.601562 259.875 181.1875 259.257812 181.828125 258.714844 C 182.046875 258.519531 182.292969 258.273438 182.683594 258.125 C 182.367188 258.246094 183.003906 258.273438 182.78125 258.171875 C 184.105469 258.863281 184.375 259.847656 184.351562 261.378906 C 184.328125 262.214844 184.179688 263.078125 183.691406 263.769531 C 183.371094 264.238281 182.929688 264.53125 182.441406 264.679688 C 182 264.828125 181.117188 264.976562 180.527344 264.703125 C 180.085938 264.507812 179.644531 263.941406 179.300781 263.375 C 179.449219 262.363281 179.765625 261.425781 180.207031 260.589844 Z M 160.566406 279.765625 C 160.617188 279.8125 160.59375 279.835938 160.566406 279.765625 Z M 122.636719 234.511719 C 119.398438 235.203125 116.285156 236.386719 113.292969 237.765625 C 112.828125 239.566406 112.09375 241.339844 111.503906 243.089844 C 110.84375 245.035156 110.230469 247.007812 109.691406 248.980469 C 108.585938 252.949219 107.703125 257.015625 107.089844 261.105469 C 106.503906 265.148438 106.183594 269.238281 106.132812 273.332031 C 106.109375 275.402344 106.132812 277.472656 106.230469 279.542969 C 106.332031 281.585938 106.722656 283.707031 106.671875 285.753906 C 106.648438 286.542969 106.207031 287.453125 105.472656 287.796875 C 104.859375 288.09375 104.269531 288.265625 103.632812 288.117188 C 103.4375 288.09375 103.242188 288.019531 103.042969 287.921875 C 103.019531 287.921875 102.996094 287.898438 102.972656 287.898438 C 102.359375 287.578125 101.964844 286.910156 101.917969 286.222656 C 101.402344 284.472656 101.5 282.328125 101.402344 280.578125 C 101.28125 278.359375 101.253906 276.140625 101.28125 273.921875 C 101.351562 269.558594 101.722656 265.246094 102.359375 260.933594 C 102.972656 256.695312 103.855469 252.503906 105.03125 248.390625 C 105.644531 246.269531 106.332031 244.175781 107.113281 242.105469 C 107.3125 241.5625 107.53125 241.019531 107.726562 240.476562 C 102.921875 242.84375 97.871094 244.964844 92.378906 244.101562 C 90.097656 243.753906 92.011719 240.894531 93.679688 241.117188 C 99.390625 241.90625 104.710938 238.898438 109.714844 236.289062 C 109.789062 236.1875 109.835938 236.089844 109.910156 235.96875 C 110.449219 235.179688 111.332031 234.90625 112.09375 235.078125 C 112.191406 235.03125 112.3125 234.980469 112.410156 234.933594 C 116.261719 233.132812 120.28125 231.628906 124.449219 230.867188 C 128.398438 230.152344 133.398438 229.78125 137.078125 231.703125 C 138.894531 232.664062 136.785156 234.933594 135.335938 234.683594 C 133.128906 234.339844 130.996094 233.847656 128.742188 233.824219 C 126.683594 233.796875 124.648438 234.070312 122.636719 234.511719 Z M 122.636719 234.511719 " fill-opacity="1" fill-rule="nonzero"/></g><g clip-path="url(#f686da6cf1)"><g clip-path="url(#d8e723ea5d)"><g clip-path="url(#24c5d061fe)"><path fill="#737373" d="M 37.171875 77.953125 C 37.210938 77.664062 37.007812 77.40625 36.71875 77.367188 C 36.433594 77.332031 36.171875 77.53125 36.132812 77.820312 C 36.121094 77.9375 36.101562 78.054688 36.085938 78.171875 C 35.71875 77.785156 35.347656 77.410156 34.960938 77.042969 C 34.75 76.839844 34.417969 76.847656 34.222656 77.058594 C 34.074219 77.214844 34.039062 77.4375 34.121094 77.625 C 34.148438 77.6875 34.1875 77.746094 34.238281 77.796875 C 34.734375 78.273438 35.214844 78.761719 35.679688 79.269531 C 35.734375 79.328125 35.800781 79.371094 35.867188 79.402344 C 35.839844 79.542969 35.808594 79.683594 35.773438 79.828125 C 35.707031 80.109375 35.878906 80.390625 36.167969 80.457031 C 36.449219 80.519531 36.730469 80.347656 36.796875 80.0625 C 36.957031 79.367188 37.082031 78.65625 37.171875 77.953125 " fill-opacity="1" fill-rule="nonzero"/></g></g></g><g clip-path="url(#a75fd7ff4b)"><g clip-path="url(#17df8fcb46)"><g clip-path="url(#aae446947c)"><path fill="#737373" d="M 14.96875 93.238281 C 14.363281 92.96875 13.761719 92.648438 13.1875 92.289062 C 12.941406 92.132812 12.617188 92.207031 12.464844 92.453125 C 12.371094 92.605469 12.363281 92.785156 12.429688 92.9375 C 12.46875 93.03125 12.539062 93.117188 12.632812 93.175781 C 13.25 93.5625 13.890625 93.902344 14.542969 94.195312 C 14.804688 94.316406 15.113281 94.195312 15.234375 93.933594 C 15.347656 93.675781 15.234375 93.359375 14.96875 93.238281 " fill-opacity="1" fill-rule="nonzero"/></g></g></g><g clip-path="url(#6febbb34a1)"><g clip-path="url(#1dd63c4ee4)"><g clip-path="url(#80955be510)"><path fill="#737373" d="M 31.671875 74.320312 C 31.074219 73.902344 30.46875 73.511719 29.875 73.164062 C 29.628906 73.019531 29.308594 73.101562 29.160156 73.355469 C 29.074219 73.503906 29.070312 73.679688 29.132812 73.824219 C 29.175781 73.925781 29.25 74.011719 29.351562 74.070312 C 29.921875 74.402344 30.496094 74.777344 31.070312 75.179688 C 31.308594 75.34375 31.632812 75.289062 31.800781 75.050781 C 31.964844 74.8125 31.910156 74.488281 31.671875 74.320312 " fill-opacity="1" fill-rule="nonzero"/></g></g></g><g clip-path="url(#bcae26a8b2)"><g clip-path="url(#171b9c5a2c)"><g clip-path="url(#a5f4dd0c3d)"><path fill="#737373" d="M 37.335938 73.683594 C 37.304688 72.972656 37.246094 72.261719 37.164062 71.558594 C 37.128906 71.273438 36.867188 71.0625 36.582031 71.097656 C 36.292969 71.132812 36.085938 71.390625 36.121094 71.679688 C 36.207031 72.359375 36.261719 73.039062 36.289062 73.726562 C 36.292969 73.789062 36.304688 73.855469 36.332031 73.910156 C 36.414062 74.105469 36.609375 74.238281 36.832031 74.226562 C 37.125 74.21875 37.34375 73.972656 37.335938 73.683594 " fill-opacity="1" fill-rule="nonzero"/></g></g></g><g clip-path="url(#67db82af0a)"><g clip-path="url(#9996b06646)"><g clip-path="url(#9c163266c8)"><path fill="#737373" d="M 10.109375 89.6875 C 9.660156 89.179688 9.257812 88.636719 8.902344 88.078125 C 8.75 87.835938 8.425781 87.761719 8.183594 87.917969 C 7.960938 88.058594 7.882812 88.332031 7.980469 88.5625 C 7.992188 88.589844 8.003906 88.613281 8.019531 88.640625 C 8.402344 89.242188 8.839844 89.832031 9.324219 90.378906 C 9.515625 90.597656 9.847656 90.617188 10.066406 90.425781 C 10.285156 90.238281 10.296875 89.894531 10.109375 89.6875 " fill-opacity="1" fill-rule="nonzero"/></g></g></g><g clip-path="url(#879c5c5ab0)"><g clip-path="url(#4cb2f4a3fd)"><g clip-path="url(#ee58d3df3a)"><path fill="#737373" d="M 35.449219 84.128906 C 35.570312 83.863281 35.441406 83.554688 35.183594 83.4375 C 34.917969 83.320312 34.609375 83.4375 34.492188 83.707031 C 34.214844 84.335938 33.90625 84.953125 33.585938 85.535156 C 33.5 85.683594 33.5 85.851562 33.558594 85.996094 C 33.605469 86.101562 33.679688 86.191406 33.785156 86.246094 C 34.035156 86.390625 34.355469 86.300781 34.496094 86.046875 C 34.839844 85.4375 35.160156 84.792969 35.449219 84.128906 " fill-opacity="1" fill-rule="nonzero"/></g></g></g><g clip-path="url(#cc277effe2)"><g clip-path="url(#dac5468c74)"><g clip-path="url(#e80c6311f1)"><path fill="#737373" d="M 7.433594 84.394531 C 7.3125 83.738281 7.257812 83.074219 7.28125 82.421875 C 7.289062 82.136719 7.0625 81.890625 6.773438 81.882812 C 6.484375 81.871094 6.242188 82.101562 6.234375 82.386719 C 6.210938 83.113281 6.269531 83.855469 6.40625 84.585938 C 6.410156 84.625 6.425781 84.664062 6.441406 84.695312 C 6.535156 84.917969 6.769531 85.050781 7.015625 85.007812 C 7.300781 84.953125 7.488281 84.679688 7.433594 84.394531 " fill-opacity="1" fill-rule="nonzero"/></g></g></g><g clip-path="url(#a35262e4eb)"><g clip-path="url(#ae444bab3a)"><g clip-path="url(#d693a02136)"><path fill="#737373" d="M 43.433594 89.160156 C 43.132812 88.515625 42.820312 87.882812 42.492188 87.257812 C 42.355469 87 42.042969 86.902344 41.785156 87.035156 C 41.542969 87.164062 41.441406 87.457031 41.546875 87.703125 C 41.550781 87.714844 41.558594 87.730469 41.566406 87.742188 C 41.886719 88.351562 42.191406 88.972656 42.484375 89.601562 C 42.605469 89.863281 42.914062 89.972656 43.179688 89.855469 C 43.441406 89.730469 43.535156 89.410156 43.433594 89.160156 " fill-opacity="1" fill-rule="nonzero"/></g></g></g><g clip-path="url(#8eabf6f09f)"><g clip-path="url(#9b5b489e97)"><g clip-path="url(#938884af46)"><path fill="#737373" d="M 40.34375 83.597656 C 39.992188 83.066406 39.636719 82.542969 39.269531 82.03125 L 39.136719 81.847656 C 38.96875 81.617188 38.636719 81.566406 38.402344 81.738281 C 38.207031 81.886719 38.140625 82.148438 38.234375 82.363281 C 38.25 82.402344 38.269531 82.4375 38.292969 82.46875 L 38.417969 82.636719 C 38.78125 83.144531 39.128906 83.652344 39.46875 84.171875 C 39.628906 84.414062 39.957031 84.480469 40.199219 84.320312 C 40.433594 84.160156 40.511719 83.847656 40.34375 83.597656 " fill-opacity="1" fill-rule="nonzero"/></g></g></g><g clip-path="url(#142af048db)"><g clip-path="url(#625b4dc38f)"><g clip-path="url(#7e83772472)"><path fill="#737373" d="M 45.703125 95.085938 C 45.496094 94.414062 45.273438 93.742188 45.039062 93.078125 C 44.894531 92.769531 44.636719 92.664062 44.367188 92.757812 C 44.09375 92.855469 43.953125 93.15625 44.050781 93.425781 C 44.285156 94.082031 44.496094 94.734375 44.703125 95.398438 C 44.707031 95.417969 44.714844 95.433594 44.722656 95.449219 C 44.828125 95.691406 45.101562 95.820312 45.359375 95.742188 C 45.632812 95.65625 45.789062 95.363281 45.703125 95.085938 " fill-opacity="1" fill-rule="nonzero"/></g></g></g><g clip-path="url(#0a20f4a14d)"><g clip-path="url(#d9402877c4)"><g clip-path="url(#3a6abf3ddf)"><path fill="#737373" d="M 27.285156 92.929688 C 27.144531 92.675781 26.828125 92.582031 26.574219 92.722656 C 26.152344 92.949219 25.722656 93.160156 25.285156 93.347656 C 25.105469 93.425781 24.925781 93.496094 24.742188 93.566406 C 24.472656 93.671875 24.335938 93.972656 24.4375 94.242188 C 24.441406 94.25 24.445312 94.257812 24.445312 94.261719 C 24.558594 94.523438 24.851562 94.648438 25.117188 94.546875 C 25.3125 94.472656 25.507812 94.394531 25.699219 94.3125 C 26.167969 94.109375 26.628906 93.886719 27.074219 93.640625 C 27.328125 93.503906 27.425781 93.179688 27.285156 92.929688 " fill-opacity="1" fill-rule="nonzero"/></g></g></g><g clip-path="url(#76b67594d5)"><g clip-path="url(#4161cc6909)"><g clip-path="url(#6d5a322dea)"><path fill="#737373" d="M 29.722656 90.933594 C 29.746094 90.988281 29.777344 91.039062 29.816406 91.082031 C 30.015625 91.296875 30.347656 91.308594 30.558594 91.113281 C 31.074219 90.636719 31.574219 90.117188 32.050781 89.5625 C 32.234375 89.34375 32.210938 89.015625 31.992188 88.824219 C 31.773438 88.636719 31.441406 88.664062 31.253906 88.878906 C 30.804688 89.402344 30.332031 89.894531 29.847656 90.34375 C 29.679688 90.496094 29.636719 90.734375 29.722656 90.933594 " fill-opacity="1" fill-rule="nonzero"/></g></g></g><g clip-path="url(#919a7aba07)"><g clip-path="url(#9eb88d19bf)"><g clip-path="url(#04bdaaf791)"><path fill="#737373" d="M 21.378906 94.914062 C 21.367188 94.628906 21.117188 94.402344 20.828125 94.414062 C 20.167969 94.445312 19.5 94.417969 18.832031 94.335938 C 18.546875 94.300781 18.285156 94.503906 18.25 94.789062 C 18.234375 94.886719 18.25 94.976562 18.285156 95.0625 C 18.355469 95.226562 18.511719 95.351562 18.703125 95.375 C 19.425781 95.464844 20.164062 95.496094 20.882812 95.460938 C 21.167969 95.449219 21.394531 95.203125 21.378906 94.914062 " fill-opacity="1" fill-rule="nonzero"/></g></g></g><g clip-path="url(#99cbc9deb9)"><g clip-path="url(#db50f0b0f5)"><g clip-path="url(#6a12f154c2)"><path fill="#737373" d="M 15.058594 36.523438 C 14.519531 36.066406 13.976562 35.625 13.425781 35.1875 C 13.195312 35.011719 12.867188 35.046875 12.691406 35.273438 C 12.566406 35.425781 12.546875 35.632812 12.621094 35.800781 C 12.652344 35.882812 12.703125 35.953125 12.773438 36.007812 C 13.316406 36.4375 13.855469 36.875 14.386719 37.320312 C 14.605469 37.511719 14.9375 37.480469 15.121094 37.261719 C 15.308594 37.039062 15.277344 36.710938 15.058594 36.523438 " fill-opacity="1" fill-rule="nonzero"/></g></g></g><g clip-path="url(#9dffc965bd)"><g clip-path="url(#b95245b546)"><g clip-path="url(#c31db45d1e)"><path fill="#737373" d="M 47.152344 101.277344 C 47.035156 100.578125 46.90625 99.886719 46.761719 99.191406 C 46.695312 98.894531 46.425781 98.726562 46.144531 98.789062 C 45.859375 98.84375 45.679688 99.121094 45.738281 99.40625 C 45.878906 100.082031 46.007812 100.761719 46.117188 101.445312 C 46.125 101.488281 46.136719 101.527344 46.152344 101.566406 C 46.246094 101.78125 46.476562 101.917969 46.71875 101.878906 C 47.003906 101.828125 47.199219 101.5625 47.152344 101.277344 " fill-opacity="1" fill-rule="nonzero"/></g></g></g><g clip-path="url(#c70e73b43f)"><g clip-path="url(#bc6669087a)"><g clip-path="url(#59d6d189ba)"><path fill="#737373" d="M 25.984375 71.375 C 25.304688 71.148438 24.605469 70.953125 23.914062 70.804688 C 23.628906 70.742188 23.351562 70.921875 23.289062 71.203125 C 23.265625 71.3125 23.28125 71.425781 23.320312 71.519531 C 23.382812 71.671875 23.519531 71.789062 23.691406 71.828125 C 24.347656 71.96875 25.007812 72.152344 25.648438 72.371094 C 25.921875 72.460938 26.21875 72.3125 26.3125 72.039062 C 26.40625 71.769531 26.253906 71.472656 25.984375 71.375 " fill-opacity="1" fill-rule="nonzero"/></g></g></g><g clip-path="url(#b19025fd40)"><g clip-path="url(#a1887475f3)"><g clip-path="url(#aaa0a1349f)"><path fill="#737373" d="M 10.050781 32.65625 C 9.472656 32.253906 8.894531 31.855469 8.3125 31.464844 C 8.066406 31.304688 7.746094 31.371094 7.585938 31.613281 C 7.484375 31.765625 7.472656 31.953125 7.539062 32.105469 C 7.578125 32.199219 7.644531 32.28125 7.730469 32.335938 C 8.308594 32.722656 8.878906 33.117188 9.445312 33.515625 C 9.683594 33.683594 10.011719 33.625 10.175781 33.390625 C 10.339844 33.152344 10.289062 32.828125 10.050781 32.65625 " fill-opacity="1" fill-rule="nonzero"/></g></g></g><g clip-path="url(#a20bc426fd)"><g clip-path="url(#cf22a51b2c)"><g clip-path="url(#f0014af103)"><path fill="#737373" d="M 4.730469 29.230469 C 4.238281 28.941406 3.738281 28.660156 3.234375 28.382812 C 3.671875 27.851562 3.808594 27.109375 3.519531 26.433594 C 3.109375 25.472656 2 25.027344 1.039062 25.4375 C 0.0742188 25.847656 -0.367188 26.957031 0.0429688 27.917969 C 0.417969 28.796875 1.371094 29.242188 2.265625 29.003906 C 2.300781 29.042969 2.34375 29.082031 2.394531 29.109375 C 3.003906 29.441406 3.605469 29.78125 4.203125 30.132812 C 4.453125 30.28125 4.773438 30.199219 4.917969 29.949219 C 5.066406 29.699219 4.980469 29.382812 4.730469 29.230469 " fill-opacity="1" fill-rule="nonzero"/></g></g></g><g clip-path="url(#b13f269d50)"><g clip-path="url(#ffa2c2cb6f)"><g clip-path="url(#22a12a9633)"><path fill="#737373" d="M 34.46875 121.582031 C 34.472656 121.648438 34.484375 121.707031 34.507812 121.761719 C 34.59375 121.957031 34.792969 122.089844 35.019531 122.082031 C 35.707031 122.042969 36.378906 122.066406 37.023438 122.136719 C 37.308594 122.167969 37.566406 121.964844 37.597656 121.675781 C 37.628906 121.386719 37.425781 121.128906 37.136719 121.097656 C 36.441406 121.015625 35.707031 120.996094 34.964844 121.035156 C 34.675781 121.046875 34.457031 121.292969 34.46875 121.582031 " fill-opacity="1" fill-rule="nonzero"/></g></g></g><g clip-path="url(#db4156625e)"><g clip-path="url(#a89e21590d)"><g clip-path="url(#41329af709)"><path fill="#737373" d="M 24.035156 45.425781 C 23.578125 44.890625 23.113281 44.363281 22.640625 43.839844 C 22.449219 43.625 22.117188 43.605469 21.90625 43.800781 C 21.734375 43.953125 21.6875 44.195312 21.773438 44.394531 C 21.796875 44.449219 21.824219 44.496094 21.867188 44.539062 C 22.332031 45.054688 22.789062 45.578125 23.242188 46.109375 C 23.429688 46.328125 23.757812 46.351562 23.980469 46.164062 C 24.199219 45.976562 24.222656 45.65625 24.035156 45.425781 " fill-opacity="1" fill-rule="nonzero"/></g></g></g><g clip-path="url(#aeedf1cc6b)"><g clip-path="url(#4bb2356230)"><g clip-path="url(#948bcfbf0b)"><path fill="#737373" d="M 34.792969 65.648438 C 35.003906 66.304688 35.191406 66.96875 35.363281 67.632812 C 35.371094 67.660156 35.378906 67.683594 35.386719 67.707031 C 35.488281 67.941406 35.746094 68.074219 36 68.007812 C 36.28125 67.9375 36.449219 67.65625 36.375 67.375 C 36.203125 66.6875 36.003906 66.007812 35.789062 65.328125 C 35.71875 65.042969 35.40625 64.902344 35.132812 64.988281 C 34.855469 65.078125 34.703125 65.371094 34.792969 65.648438 " fill-opacity="1" fill-rule="nonzero"/></g></g></g><g clip-path="url(#de4a8d05c3)"><g clip-path="url(#5133d8867f)"><g clip-path="url(#b38a3f8acf)"><path fill="#737373" d="M 19.734375 40.785156 C 19.230469 40.289062 18.726562 39.800781 18.214844 39.320312 C 18.003906 39.121094 17.675781 39.132812 17.476562 39.34375 C 17.328125 39.5 17.296875 39.722656 17.375 39.90625 C 17.402344 39.972656 17.445312 40.03125 17.5 40.082031 C 18.003906 40.558594 18.5 41.039062 18.996094 41.527344 C 19.203125 41.730469 19.53125 41.730469 19.734375 41.523438 C 19.941406 41.320312 19.9375 40.980469 19.734375 40.785156 " fill-opacity="1" fill-rule="nonzero"/></g></g></g><g clip-path="url(#1882892430)"><g clip-path="url(#e1838d47e0)"><g clip-path="url(#18927a4a68)"><path fill="#737373" d="M 20.167969 70.953125 C 20.144531 70.65625 19.898438 70.441406 19.613281 70.460938 C 18.894531 70.507812 18.175781 70.601562 17.46875 70.746094 C 17.183594 70.804688 17 71.078125 17.058594 71.363281 C 17.066406 71.398438 17.078125 71.433594 17.089844 71.460938 C 17.1875 71.6875 17.429688 71.824219 17.675781 71.773438 C 18.335938 71.636719 19.011719 71.550781 19.675781 71.507812 C 19.96875 71.492188 20.183594 71.242188 20.167969 70.953125 " fill-opacity="1" fill-rule="nonzero"/></g></g></g><g clip-path="url(#6f04faba2a)"><g clip-path="url(#b2b630fe82)"><g clip-path="url(#2666121197)"><path fill="#737373" d="M 9.253906 76.890625 C 9.425781 76.65625 9.375 76.332031 9.140625 76.15625 C 8.910156 75.984375 8.582031 76.035156 8.410156 76.265625 C 7.972656 76.863281 7.59375 77.492188 7.28125 78.140625 C 7.214844 78.28125 7.214844 78.4375 7.273438 78.570312 C 7.320312 78.683594 7.410156 78.78125 7.527344 78.839844 C 7.789062 78.964844 8.101562 78.855469 8.226562 78.59375 C 8.507812 78.003906 8.855469 77.433594 9.253906 76.890625 " fill-opacity="1" fill-rule="nonzero"/></g></g></g><g clip-path="url(#457c2f289c)"><g clip-path="url(#510b3a1aa9)"><g clip-path="url(#96678631d1)"><path fill="#737373" d="M 13.863281 73.09375 C 14.117188 72.964844 14.222656 72.703125 14.09375 72.386719 C 13.964844 72.132812 13.652344 72.027344 13.390625 72.15625 C 12.742188 72.480469 12.117188 72.851562 11.53125 73.261719 C 11.324219 73.40625 11.253906 73.671875 11.347656 73.898438 C 11.363281 73.929688 11.382812 73.960938 11.402344 73.988281 C 11.566406 74.230469 11.894531 74.285156 12.128906 74.121094 C 12.675781 73.742188 13.257812 73.398438 13.863281 73.09375 " fill-opacity="1" fill-rule="nonzero"/></g></g></g><g clip-path="url(#d67e2b60d1)"><g clip-path="url(#54e8869dc0)"><g clip-path="url(#4b6360870a)"><path fill="#737373" d="M 31.390625 55.710938 C 31.035156 55.105469 30.667969 54.5 30.292969 53.90625 C 30.136719 53.664062 29.8125 53.59375 29.570312 53.746094 C 29.347656 53.886719 29.273438 54.164062 29.371094 54.394531 C 29.382812 54.417969 29.390625 54.445312 29.40625 54.46875 C 29.78125 55.054688 30.140625 55.644531 30.492188 56.242188 C 30.636719 56.492188 30.960938 56.574219 31.210938 56.429688 C 31.457031 56.28125 31.53125 55.960938 31.390625 55.710938 " fill-opacity="1" fill-rule="nonzero"/></g></g></g><g clip-path="url(#586cad9e7e)"><g clip-path="url(#8cd55ccd27)"><g clip-path="url(#ca1b5f00b1)"><path fill="#737373" d="M 27.933594 50.414062 C 27.523438 49.839844 27.109375 49.273438 26.679688 48.714844 C 26.507812 48.484375 26.179688 48.4375 25.949219 48.613281 C 25.753906 48.761719 25.691406 49.019531 25.785156 49.238281 C 25.800781 49.273438 25.820312 49.3125 25.847656 49.347656 C 26.265625 49.898438 26.679688 50.457031 27.082031 51.023438 C 27.253906 51.257812 27.578125 51.316406 27.8125 51.144531 C 28.046875 50.976562 28.101562 50.652344 27.933594 50.414062 " fill-opacity="1" fill-rule="nonzero"/></g></g></g><g clip-path="url(#6b5cc5d5a8)"><g clip-path="url(#c1f3824a5d)"><g clip-path="url(#2d239285ca)"><path fill="#737373" d="M 34.285156 61.367188 C 34.003906 60.71875 33.707031 60.074219 33.398438 59.4375 C 33.273438 59.179688 32.957031 59.070312 32.699219 59.195312 C 32.445312 59.320312 32.335938 59.617188 32.445312 59.875 C 32.449219 59.882812 32.453125 59.890625 32.457031 59.898438 C 32.761719 60.519531 33.050781 61.144531 33.324219 61.78125 C 33.441406 62.046875 33.75 62.167969 34.015625 62.050781 C 34.277344 61.941406 34.398438 61.632812 34.285156 61.367188 " fill-opacity="1" fill-rule="nonzero"/></g></g></g><g clip-path="url(#6582a9c44e)"><g clip-path="url(#8164b5f34e)"><g clip-path="url(#d08da2f315)"><path fill="#737373" d="M 26.210938 126.148438 C 26.382812 125.914062 26.332031 125.585938 26.101562 125.414062 C 25.867188 125.242188 25.539062 125.292969 25.367188 125.523438 C 24.902344 126.15625 24.554688 126.832031 24.335938 127.53125 C 24.292969 127.652344 24.304688 127.78125 24.351562 127.894531 C 24.410156 128.027344 24.519531 128.136719 24.671875 128.1875 C 24.949219 128.273438 25.246094 128.121094 25.332031 127.84375 C 25.519531 127.253906 25.8125 126.6875 26.210938 126.148438 " fill-opacity="1" fill-rule="nonzero"/></g></g></g><g clip-path="url(#17396b218a)"><g clip-path="url(#018a35bd81)"><g clip-path="url(#a15afae2fd)"><path fill="#737373" d="M 75.582031 167.820312 C 75.25 167.210938 74.925781 166.601562 74.605469 165.984375 C 74.472656 165.726562 74.15625 165.625 73.902344 165.757812 C 73.65625 165.882812 73.554688 166.175781 73.660156 166.429688 C 73.664062 166.441406 73.671875 166.453125 73.675781 166.464844 C 74 167.085938 74.324219 167.707031 74.664062 168.324219 C 74.800781 168.578125 75.121094 168.671875 75.375 168.535156 C 75.628906 168.394531 75.742188 168.105469 75.582031 167.820312 " fill-opacity="1" fill-rule="nonzero"/></g></g></g><g clip-path="url(#dfe54254f3)"><g clip-path="url(#244587821e)"><g clip-path="url(#8c4d06a77b)"><path fill="#737373" d="M 78.792969 173.175781 C 78.410156 172.597656 78.039062 172.011719 77.675781 171.421875 C 77.523438 171.175781 77.199219 171.101562 76.953125 171.253906 C 76.730469 171.390625 76.648438 171.667969 76.746094 171.90625 C 76.757812 171.925781 76.773438 171.949219 76.785156 171.972656 C 77.15625 172.574219 77.535156 173.164062 77.917969 173.753906 C 78.078125 173.996094 78.40625 174.058594 78.648438 173.902344 C 78.882812 173.742188 78.96875 173.425781 78.792969 173.175781 " fill-opacity="1" fill-rule="nonzero"/></g></g></g><g clip-path="url(#df022e73fe)"><g clip-path="url(#28270d5f0f)"><g clip-path="url(#b31b308b7a)"><path fill="#737373" d="M 86.472656 183.003906 C 86.003906 182.488281 85.542969 181.976562 85.082031 181.453125 C 84.894531 181.234375 84.5625 181.210938 84.347656 181.398438 C 84.171875 181.554688 84.121094 181.796875 84.210938 182 C 84.230469 182.050781 84.261719 182.097656 84.296875 182.136719 C 84.761719 182.671875 85.230469 183.191406 85.707031 183.707031 C 85.902344 183.925781 86.234375 183.941406 86.441406 183.742188 C 86.652344 183.546875 86.671875 183.214844 86.472656 183.003906 " fill-opacity="1" fill-rule="nonzero"/></g></g></g><g clip-path="url(#3aa50dab60)"><g clip-path="url(#d0fdd85c59)"><g clip-path="url(#6028f7669e)"><path fill="#737373" d="M 82.4375 178.246094 C 82.007812 177.699219 81.589844 177.144531 81.175781 176.589844 C 81 176.355469 80.675781 176.304688 80.445312 176.476562 C 80.246094 176.625 80.179688 176.886719 80.273438 177.105469 C 80.289062 177.140625 80.308594 177.175781 80.332031 177.210938 C 80.75 177.777344 81.179688 178.335938 81.613281 178.890625 C 81.792969 179.121094 82.121094 179.160156 82.347656 178.980469 C 82.574219 178.804688 82.613281 178.472656 82.4375 178.246094 " fill-opacity="1" fill-rule="nonzero"/></g></g></g><g clip-path="url(#3a198e145c)"><g clip-path="url(#fcfb8c114b)"><g clip-path="url(#4f12d9b039)"><path fill="#737373" d="M 67.625 150.78125 C 67.621094 150.78125 67.621094 150.777344 67.617188 150.769531 L 66.742188 148.863281 C 66.617188 148.601562 66.304688 148.488281 66.042969 148.609375 C 65.789062 148.730469 65.671875 149.03125 65.785156 149.289062 C 65.785156 149.296875 65.789062 149.300781 65.789062 149.308594 L 66.667969 151.207031 C 66.789062 151.472656 67.097656 151.589844 67.363281 151.464844 C 67.621094 151.34375 67.734375 151.042969 67.625 150.78125 " fill-opacity="1" fill-rule="nonzero"/></g></g></g><g clip-path="url(#355f33970c)"><g clip-path="url(#f3983280e0)"><g clip-path="url(#3462d026e0)"><path fill="#737373" d="M 72.773438 162.257812 C 72.769531 162.253906 72.769531 162.246094 72.765625 162.238281 C 72.464844 161.605469 72.175781 160.976562 71.886719 160.34375 C 71.761719 160.082031 71.453125 159.964844 71.191406 160.085938 C 70.933594 160.203125 70.816406 160.507812 70.929688 160.765625 C 70.929688 160.769531 70.933594 160.773438 70.933594 160.78125 C 71.226562 161.417969 71.519531 162.050781 71.820312 162.6875 C 71.945312 162.945312 72.253906 163.0625 72.515625 162.9375 C 72.773438 162.816406 72.882812 162.515625 72.773438 162.257812 " fill-opacity="1" fill-rule="nonzero"/></g></g></g><g clip-path="url(#8d0863cb12)"><g clip-path="url(#6f9b457a2c)"><g clip-path="url(#e2c6db7372)"><path fill="#737373" d="M 64.90625 145.078125 C 64.585938 144.453125 64.261719 143.832031 63.929688 143.210938 C 63.796875 142.957031 63.476562 142.863281 63.226562 142.996094 C 62.980469 143.128906 62.882812 143.414062 62.988281 143.664062 C 62.996094 143.679688 63 143.691406 63.007812 143.703125 C 63.335938 144.320312 63.65625 144.933594 63.976562 145.554688 C 64.109375 145.8125 64.421875 145.914062 64.679688 145.78125 C 64.933594 145.648438 65.0625 145.308594 64.90625 145.078125 " fill-opacity="1" fill-rule="nonzero"/></g></g></g><g clip-path="url(#d859fddc1c)"><g clip-path="url(#1df64c0378)"><g clip-path="url(#5f30a141e8)"><path fill="#737373" d="M 70.175781 156.53125 C 70.175781 156.53125 70.175781 156.527344 70.171875 156.527344 L 69.328125 154.609375 C 69.210938 154.34375 68.902344 154.222656 68.636719 154.339844 C 68.375 154.457031 68.253906 154.761719 68.367188 155.027344 C 68.367188 155.027344 68.371094 155.027344 68.371094 155.03125 L 69.214844 156.949219 C 69.332031 157.210938 69.640625 157.335938 69.90625 157.21875 C 70.167969 157.101562 70.289062 156.796875 70.175781 156.53125 " fill-opacity="1" fill-rule="nonzero"/></g></g></g><g clip-path="url(#358ee9acec)"><g clip-path="url(#2d64959a5f)"><g clip-path="url(#8c841200e3)"><path fill="#737373" d="M 47.757812 107.597656 C 47.738281 106.890625 47.703125 106.1875 47.648438 105.480469 C 47.632812 105.203125 47.378906 104.976562 47.089844 105 C 46.800781 105.019531 46.585938 105.269531 46.609375 105.558594 C 46.65625 106.246094 46.691406 106.9375 46.714844 107.628906 C 46.714844 107.699219 46.730469 107.761719 46.753906 107.820312 C 46.835938 108.011719 47.03125 108.144531 47.253906 108.136719 C 47.539062 108.128906 47.769531 107.890625 47.757812 107.597656 " fill-opacity="1" fill-rule="nonzero"/></g></g></g><g clip-path="url(#e630f789b1)"><g clip-path="url(#b681cd79cb)"><g clip-path="url(#12b1cbf450)"><path fill="#737373" d="M 90.882812 187.421875 C 90.371094 186.949219 89.871094 186.476562 89.375 185.988281 C 89.167969 185.789062 88.835938 185.789062 88.636719 185.996094 C 88.484375 186.15625 88.449219 186.378906 88.527344 186.566406 C 88.554688 186.628906 88.589844 186.6875 88.644531 186.738281 C 89.144531 187.226562 89.652344 187.714844 90.171875 188.191406 C 90.382812 188.386719 90.714844 188.375 90.910156 188.164062 C 91.109375 187.949219 91.09375 187.621094 90.882812 187.421875 " fill-opacity="1" fill-rule="nonzero"/></g></g></g><g clip-path="url(#f6843cab2b)"><g clip-path="url(#df779489f8)"><g clip-path="url(#450750659a)"><path fill="#737373" d="M 117.328125 203.597656 C 116.675781 203.359375 116.027344 203.117188 115.382812 202.863281 C 115.113281 202.757812 114.8125 202.890625 114.703125 203.15625 C 114.652344 203.292969 114.65625 203.433594 114.710938 203.558594 C 114.765625 203.679688 114.867188 203.785156 115 203.839844 C 115.652344 204.09375 116.3125 204.34375 116.972656 204.582031 C 117.246094 204.683594 117.546875 204.539062 117.640625 204.269531 C 117.738281 204 117.601562 203.695312 117.328125 203.597656 " fill-opacity="1" fill-rule="nonzero"/></g></g></g><g clip-path="url(#04a31b333a)"><g clip-path="url(#13442a4585)"><g clip-path="url(#566a0e25cf)"><path fill="#737373" d="M 105.988281 198.417969 C 105.386719 198.078125 104.78125 197.730469 104.1875 197.378906 C 103.9375 197.230469 103.617188 197.3125 103.472656 197.558594 C 103.382812 197.710938 103.375 197.882812 103.441406 198.03125 C 103.480469 198.128906 103.554688 198.21875 103.652344 198.277344 C 104.257812 198.636719 104.867188 198.988281 105.480469 199.332031 C 105.734375 199.472656 106.050781 199.382812 106.195312 199.128906 C 106.335938 198.875 106.246094 198.554688 105.988281 198.417969 " fill-opacity="1" fill-rule="nonzero"/></g></g></g><g clip-path="url(#704613e3dd)"><g clip-path="url(#fee1eab3bd)"><g clip-path="url(#1c88250e52)"><path fill="#737373" d="M 100.667969 195.152344 C 100.09375 194.765625 99.523438 194.375 98.957031 193.972656 C 98.71875 193.804688 98.394531 193.863281 98.226562 194.097656 C 98.117188 194.253906 98.101562 194.445312 98.171875 194.605469 C 98.210938 194.695312 98.269531 194.769531 98.351562 194.828125 C 98.925781 195.234375 99.503906 195.632812 100.085938 196.027344 C 100.328125 196.183594 100.652344 196.125 100.8125 195.882812 C 100.972656 195.644531 100.910156 195.320312 100.667969 195.152344 " fill-opacity="1" fill-rule="nonzero"/></g></g></g><g clip-path="url(#cb0fea590a)"><g clip-path="url(#3500a95967)"><g clip-path="url(#9cd9233beb)"><path fill="#737373" d="M 95.625 191.480469 C 95.082031 191.050781 94.539062 190.613281 94.007812 190.167969 C 93.78125 189.984375 93.457031 190.015625 93.269531 190.234375 C 93.140625 190.394531 93.117188 190.601562 93.191406 190.777344 C 93.222656 190.851562 93.269531 190.917969 93.339844 190.976562 C 93.878906 191.425781 94.425781 191.863281 94.976562 192.300781 C 95.203125 192.480469 95.53125 192.445312 95.710938 192.21875 C 95.890625 191.992188 95.847656 191.660156 95.625 191.480469 " fill-opacity="1" fill-rule="nonzero"/></g></g></g><g clip-path="url(#607580c97d)"><g clip-path="url(#0b77dcaf12)"><g clip-path="url(#5e36e5f306)"><path fill="#737373" d="M 111.550781 201.238281 C 110.921875 200.945312 110.292969 200.652344 109.671875 200.347656 C 109.410156 200.21875 109.097656 200.324219 108.972656 200.585938 C 108.902344 200.730469 108.902344 200.886719 108.960938 201.019531 C 109.007812 201.132812 109.097656 201.230469 109.210938 201.285156 C 109.84375 201.597656 110.476562 201.894531 111.113281 202.191406 C 111.378906 202.3125 111.6875 202.195312 111.808594 201.933594 C 111.929688 201.667969 111.8125 201.355469 111.550781 201.238281 " fill-opacity="1" fill-rule="nonzero"/></g></g></g><g clip-path="url(#3db94c6f7a)"><g clip-path="url(#c232b59ea9)"><g clip-path="url(#788314a840)"><path fill="#737373" d="M 45.761719 120.574219 C 46.039062 120.644531 46.324219 120.476562 46.394531 120.195312 C 46.566406 119.511719 46.726562 118.824219 46.867188 118.128906 C 46.921875 117.851562 46.742188 117.574219 46.457031 117.511719 C 46.175781 117.453125 45.898438 117.636719 45.839844 117.921875 C 45.703125 118.597656 45.550781 119.269531 45.382812 119.9375 C 45.351562 120.050781 45.363281 120.171875 45.40625 120.273438 C 45.46875 120.417969 45.597656 120.53125 45.761719 120.574219 " fill-opacity="1" fill-rule="nonzero"/></g></g></g><g clip-path="url(#8ebb035c7d)"><g clip-path="url(#d1ecd31eda)"><g clip-path="url(#0667b3c905)"><path fill="#737373" d="M 43.640625 123.339844 C 43.746094 123.066406 43.613281 122.765625 43.34375 122.660156 C 42.671875 122.394531 41.992188 122.164062 41.324219 121.964844 C 41.046875 121.882812 40.753906 122.039062 40.675781 122.316406 C 40.636719 122.4375 40.648438 122.5625 40.695312 122.671875 C 40.753906 122.808594 40.871094 122.921875 41.027344 122.964844 C 41.683594 123.164062 42.328125 123.386719 42.964844 123.632812 C 43.234375 123.742188 43.535156 123.605469 43.640625 123.339844 " fill-opacity="1" fill-rule="nonzero"/></g></g></g><g clip-path="url(#95e8c6cb7c)"><g clip-path="url(#33594a500a)"><g clip-path="url(#e8483c7129)"><path fill="#737373" d="M 26.585938 133.152344 C 26.136719 132.671875 25.777344 132.136719 25.523438 131.566406 C 25.410156 131.304688 25.097656 131.183594 24.832031 131.300781 C 24.574219 131.414062 24.453125 131.71875 24.566406 131.984375 C 24.566406 131.988281 24.566406 131.988281 24.566406 131.988281 C 24.871094 132.671875 25.296875 133.304688 25.828125 133.871094 C 26.027344 134.082031 26.359375 134.089844 26.570312 133.890625 C 26.777344 133.691406 26.78125 133.355469 26.585938 133.152344 " fill-opacity="1" fill-rule="nonzero"/></g></g></g><g clip-path="url(#4743366c0b)"><g clip-path="url(#64a23a358c)"><g clip-path="url(#2ba4c9431d)"><path fill="#737373" d="M 31.070312 122.847656 C 31.339844 122.753906 31.484375 122.453125 31.390625 122.179688 C 31.335938 121.898438 31 121.761719 30.726562 121.859375 C 30.410156 121.964844 30.097656 122.085938 29.789062 122.21875 C 29.429688 122.371094 29.074219 122.539062 28.734375 122.722656 C 28.496094 122.851562 28.394531 123.144531 28.5 123.390625 C 28.507812 123.402344 28.511719 123.417969 28.519531 123.433594 C 28.65625 123.6875 28.976562 123.78125 29.230469 123.644531 C 29.546875 123.480469 29.871094 123.320312 30.203125 123.179688 C 30.484375 123.058594 30.777344 122.949219 31.070312 122.847656 " fill-opacity="1" fill-rule="nonzero"/></g></g></g><g clip-path="url(#3c006b5a77)"><g clip-path="url(#3c5f25cbb2)"><g clip-path="url(#48da539266)"><path fill="#737373" d="M 44.859375 125.054688 C 44.960938 124.789062 45.0625 124.519531 45.15625 124.25 C 45.257812 123.976562 45.117188 123.675781 44.84375 123.582031 C 44.570312 123.480469 44.273438 123.621094 44.175781 123.894531 C 44.082031 124.15625 43.984375 124.414062 43.882812 124.675781 C 43.738281 125.054688 43.585938 125.4375 43.425781 125.8125 C 43.363281 125.953125 43.371094 126.097656 43.425781 126.222656 C 43.476562 126.34375 43.570312 126.445312 43.699219 126.5 C 43.964844 126.613281 44.273438 126.492188 44.386719 126.226562 C 44.550781 125.839844 44.707031 125.445312 44.859375 125.054688 " fill-opacity="1" fill-rule="nonzero"/></g></g></g><g clip-path="url(#750340d0ae)"><g clip-path="url(#b59d0280f0)"><g clip-path="url(#3340ebfd32)"><path fill="#737373" d="M 47.511719 113.945312 C 47.589844 113.242188 47.648438 112.539062 47.691406 111.832031 C 47.707031 111.542969 47.488281 111.296875 47.199219 111.277344 C 46.914062 111.257812 46.667969 111.476562 46.644531 111.765625 C 46.605469 112.453125 46.550781 113.144531 46.472656 113.828125 C 46.460938 113.921875 46.476562 114.011719 46.511719 114.09375 C 46.582031 114.257812 46.742188 114.382812 46.9375 114.40625 C 47.222656 114.4375 47.480469 114.234375 47.511719 113.945312 " fill-opacity="1" fill-rule="nonzero"/></g></g></g><g clip-path="url(#c4165b88cc)"><g clip-path="url(#f6c46acfa1)"><g clip-path="url(#5f2cfb83ba)"><path fill="#737373" d="M 58.210938 134.335938 C 57.773438 133.78125 57.324219 133.238281 56.863281 132.703125 C 56.675781 132.484375 56.34375 132.457031 56.125 132.648438 C 55.949219 132.800781 55.898438 133.046875 55.984375 133.25 C 56.007812 133.300781 56.035156 133.34375 56.070312 133.386719 C 56.523438 133.90625 56.960938 134.441406 57.390625 134.984375 C 57.570312 135.210938 57.898438 135.25 58.125 135.070312 C 58.351562 134.890625 58.394531 134.574219 58.210938 134.335938 " fill-opacity="1" fill-rule="nonzero"/></g></g></g><g clip-path="url(#22304f6b6e)"><g clip-path="url(#7c4967142b)"><g clip-path="url(#e55f056f56)"><path fill="#737373" d="M 38.171875 134.011719 C 38.011719 133.769531 37.6875 133.707031 37.449219 133.871094 C 36.890625 134.246094 36.304688 134.570312 35.707031 134.832031 C 35.441406 134.949219 35.324219 135.257812 35.433594 135.519531 C 35.4375 135.519531 35.4375 135.519531 35.4375 135.523438 C 35.554688 135.789062 35.863281 135.910156 36.125 135.792969 C 36.785156 135.507812 37.425781 135.152344 38.035156 134.738281 C 38.273438 134.574219 38.34375 134.257812 38.171875 134.011719 " fill-opacity="1" fill-rule="nonzero"/></g></g></g><g clip-path="url(#8f6c51a237)"><g clip-path="url(#49d7efd6c7)"><g clip-path="url(#28cc28cd41)"><path fill="#737373" d="M 53.945312 129.625 C 53.433594 129.136719 52.90625 128.664062 52.371094 128.203125 C 52.152344 128.015625 51.824219 128.039062 51.636719 128.261719 C 51.5 128.414062 51.476562 128.628906 51.550781 128.804688 C 51.582031 128.878906 51.628906 128.941406 51.695312 129 C 52.214844 129.445312 52.726562 129.90625 53.222656 130.382812 C 53.433594 130.582031 53.765625 130.574219 53.964844 130.367188 C 54.164062 130.15625 54.148438 129.828125 53.945312 129.625 " fill-opacity="1" fill-rule="nonzero"/></g></g></g><g clip-path="url(#43fea56a9f)"><g clip-path="url(#ae3d117223)"><g clip-path="url(#6785d99347)"><path fill="#737373" d="M 61.835938 139.546875 C 61.472656 138.949219 61.09375 138.351562 60.703125 137.765625 C 60.539062 137.523438 60.214844 137.457031 59.972656 137.617188 C 59.761719 137.757812 59.6875 138.03125 59.78125 138.257812 C 59.796875 138.289062 59.808594 138.316406 59.828125 138.34375 C 60.214844 138.921875 60.585938 139.503906 60.949219 140.09375 C 61.097656 140.339844 61.417969 140.417969 61.664062 140.265625 C 61.910156 140.117188 62.003906 139.808594 61.835938 139.546875 " fill-opacity="1" fill-rule="nonzero"/></g></g></g><g clip-path="url(#db963d8302)"><g clip-path="url(#b3f433b95c)"><g clip-path="url(#5d05cec835)"><path fill="#737373" d="M 40.289062 131.648438 C 40.324219 131.726562 40.375 131.792969 40.445312 131.851562 C 40.671875 132.03125 41 131.996094 41.179688 131.769531 C 41.609375 131.234375 42.027344 130.648438 42.425781 130.015625 C 42.578125 129.769531 42.5 129.453125 42.261719 129.292969 C 42.015625 129.136719 41.695312 129.210938 41.542969 129.453125 C 41.160156 130.054688 40.769531 130.609375 40.363281 131.113281 C 40.238281 131.269531 40.21875 131.476562 40.289062 131.648438 " fill-opacity="1" fill-rule="nonzero"/></g></g></g><g clip-path="url(#5c264ae627)"><g clip-path="url(#d50715dea5)"><g clip-path="url(#72c10f0107)"><path fill="#737373" d="M 32.351562 136.03125 C 32.367188 135.738281 32.152344 135.492188 31.863281 135.472656 C 31.203125 135.425781 30.550781 135.308594 29.917969 135.121094 C 29.640625 135.039062 29.351562 135.199219 29.269531 135.472656 C 29.234375 135.597656 29.242188 135.71875 29.289062 135.828125 C 29.347656 135.96875 29.46875 136.082031 29.621094 136.125 C 30.328125 136.335938 31.058594 136.46875 31.789062 136.519531 C 32.078125 136.539062 32.328125 136.320312 32.351562 136.03125 " fill-opacity="1" fill-rule="nonzero"/></g></g></g><g clip-path="url(#ddfc3b351f)"><g clip-path="url(#944d05ffcf)"><g clip-path="url(#61858de3fe)"><path fill="#737373" d="M 49.132812 126.355469 C 49.296875 126.113281 49.230469 125.785156 48.988281 125.628906 C 48.398438 125.234375 47.796875 124.859375 47.183594 124.507812 C 46.933594 124.363281 46.613281 124.449219 46.46875 124.699219 C 46.382812 124.847656 46.378906 125.019531 46.441406 125.167969 C 46.484375 125.269531 46.558594 125.355469 46.664062 125.414062 C 47.253906 125.757812 47.839844 126.117188 48.410156 126.5 C 48.648438 126.660156 48.976562 126.59375 49.132812 126.355469 " fill-opacity="1" fill-rule="nonzero"/></g></g></g><g clip-path="url(#10abbf148f)"><g clip-path="url(#9e16324351)"><g clip-path="url(#8c020aa974)"><path fill="#737373" d="M 18.886719 23.484375 C 16.496094 22.527344 15.335938 19.808594 16.296875 17.421875 C 16.773438 16.226562 17.6875 15.347656 18.785156 14.878906 C 19.886719 14.40625 21.152344 14.355469 22.347656 14.839844 C 24.734375 15.792969 25.898438 18.515625 24.9375 20.902344 C 23.984375 23.289062 21.265625 24.449219 18.886719 23.484375 Z M 26.71875 12.085938 C 24.414062 10.058594 21.253906 9.207031 18.253906 9.875 C 17.542969 10.03125 16.84375 10.261719 16.171875 10.554688 C 13.648438 11.664062 11.519531 13.734375 10.238281 16.167969 L 5.226562 25.734375 C 5.226562 25.734375 15.59375 28.726562 15.597656 28.726562 C 20.933594 30.269531 27.234375 28.097656 29.28125 22.652344 C 30.617188 19.097656 29.902344 14.886719 26.71875 12.085938 " fill-opacity="1" fill-rule="nonzero"/></g></g></g><g clip-path="url(#1ae433d685)"><g clip-path="url(#8745618bc0)"><g clip-path="url(#b0c415b2d3)"><path fill="#737373" d="M 133.335938 219.582031 L 134.972656 217.238281 L 136.265625 217.269531 C 136.859375 217.28125 136.917969 216.800781 136.933594 216.207031 C 136.945312 215.65625 136.910156 215.207031 136.445312 215.125 L 137.703125 213.324219 L 139.1875 213.359375 C 139.78125 213.375 139.753906 212.890625 139.769531 212.292969 C 139.78125 211.699219 139.832031 211.214844 139.234375 211.199219 L 139.1875 211.199219 L 141.101562 208.460938 C 143.980469 208.695312 146.082031 208.867188 146.082031 208.867188 C 147.371094 208.972656 148.675781 208.8125 149.90625 208.417969 C 151.046875 208.050781 152.632812 207.453125 153.390625 206.480469 C 154.445312 205.128906 152.585938 204.21875 151.636719 203.648438 C 151.097656 203.324219 150.523438 203.054688 149.929688 202.839844 C 148.746094 202.417969 147.488281 202.226562 146.230469 202.265625 C 146.148438 202.269531 143.964844 202.339844 141.019531 202.4375 L 139.480469 200.007812 C 139.933594 199.941406 139.988281 199.5 140 198.957031 C 140.015625 198.363281 139.980469 197.875 139.386719 197.863281 L 138.101562 197.832031 L 136.921875 195.964844 C 137.363281 195.890625 137.414062 195.449219 137.425781 194.914062 C 137.441406 194.316406 137.40625 193.835938 136.808594 193.816406 L 135.542969 193.789062 L 134.402344 191.984375 C 134.265625 191.769531 133.945312 191.570312 133.691406 191.542969 L 132.453125 191.402344 C 132.199219 191.371094 132.023438 191.554688 132.058594 191.808594 L 133.644531 202.679688 C 130.78125 202.773438 128.105469 202.859375 126.46875 202.914062 L 123.988281 199.578125 C 123.867188 199.417969 123.6875 199.324219 123.492188 199.316406 L 121.621094 199.269531 C 121.117188 199.257812 120.789062 199.839844 121.035156 200.3125 L 122.292969 204.121094 L 120.335938 204.359375 C 120.03125 204.355469 119.78125 204.601562 119.773438 204.921875 C 119.765625 205.238281 120.003906 205.5 120.308594 205.507812 L 122.410156 205.871094 L 120.808594 210.050781 C 120.539062 210.511719 120.839844 211.105469 121.34375 211.117188 L 123.21875 211.164062 C 123.410156 211.167969 123.597656 211.082031 123.726562 210.925781 L 126.71875 207.28125 C 128.402344 207.417969 130.972656 207.628906 133.691406 207.855469 L 131.289062 219.609375 C 131.238281 219.855469 131.402344 220.050781 131.65625 220.035156 L 132.609375 219.984375 C 132.863281 219.972656 133.191406 219.789062 133.335938 219.582031 " fill-opacity="1" fill-rule="nonzero"/></g></g></g></svg>